<?xml version="1.0" encoding="UTF-8" standalone="no"?>
<!-- Created with Inkscape (http://www.inkscape.org/) -->

<svg
   width="1000"
   height="1000"
   viewBox="0 0 264.58333 264.58334"
   version="1.1"
   id="svg5"
   inkscape:version="1.1.1 (3bf5ae0d25, 2021-09-20)"
   sodipodi:docname="awan.svg"
   xmlns:inkscape="http://www.inkscape.org/namespaces/inkscape"
   xmlns:sodipodi="http://sodipodi.sourceforge.net/DTD/sodipodi-0.dtd"
   xmlns:xlink="http://www.w3.org/1999/xlink"
   xmlns="http://www.w3.org/2000/svg"
   xmlns:svg="http://www.w3.org/2000/svg">
  <sodipodi:namedview
     id="namedview7"
     pagecolor="#ffffff"
     bordercolor="#666666"
     borderopacity="1.0"
     inkscape:pageshadow="2"
     inkscape:pageopacity="0.0"
     inkscape:pagecheckerboard="0"
     inkscape:document-units="mm"
     showgrid="false"
     units="px"
     width="1000px"
     inkscape:zoom="0.23433328"
     inkscape:cx="-399.00435"
     inkscape:cy="608.10824"
     inkscape:window-width="1920"
     inkscape:window-height="991"
     inkscape:window-x="-9"
     inkscape:window-y="-9"
     inkscape:window-maximized="1"
     inkscape:current-layer="layer1" />
  <defs
     id="defs2">
    <linearGradient
       id="linear-gradient-196"
       x1="210.78976"
       y1="270.10999"
       x2="210.78976"
       y2="187.77161"
       xlink:href="#linear-gradient"
       gradientTransform="matrix(1.4482307,0,0,1.4482307,-206.0137,-207.08096)" />
    <linearGradient
       id="linear-gradient"
       x1="546.67999"
       y1="489.57999"
       x2="525.82001"
       y2="303.94"
       gradientUnits="userSpaceOnUse">
      <stop
         offset="0"
         id="stop32"
         style="stop-color:#d2a50b;stop-opacity:1" />
      <stop
         offset="1"
         stop-color="#220a06"
         id="stop34"
         style="stop-color:#fedb63;stop-opacity:1" />
    </linearGradient>
  </defs>
  <g
     inkscape:label="Layer 1"
     inkscape:groupmode="layer"
     id="layer1">
    <path
       class="cls-204"
       d="m 180.09909,138.69863 a 41.462846,41.462846 0 0 0 -32.2666,-22.33175 c -2.41852,13.3527 -12.35336,26.40128 -24.38818,31.64386 a 28.501181,28.501181 0 0 1 -11.39758,2.47643 26.79227,26.79227 0 0 1 -16.075384,-5.48879 C 87.021301,138.39446 81.489052,124.31766 83.400717,112.96353 A 20.101442,20.101442 0 0 1 97.709224,96.337833 c 9.167336,-2.896425 20.680736,-0.666136 24.938556,9.065967 a 16.669136,16.669136 0 0 1 -0.4346,12.71545 7.9363043,7.9363043 0 0 1 -5.14121,4.48953 1.0292019,1.0292019 0 1 1 -0.49263,-1.99857 5.7929229,5.7929229 0 0 0 3.79437,-3.38885 14.916778,14.916778 0 0 0 0.4056,-10.99208 C 116.98493,97.539887 106.61558,95.700649 98.331684,98.292964 A 17.958062,17.958062 0 0 0 85.427983,113.29661 c -1.795842,10.65901 3.374383,23.85238 11.774096,30.05083 a 24.446135,24.446135 0 0 0 25.430931,2.78059 c 11.75965,-5.12676 21.41934,-18.13183 23.34551,-31.22388 0,-0.75305 0.10127,-1.4482 0.10127,-2.25923 a 48.428836,48.428836 0 0 0 -96.625947,-4.75017 34.265139,34.265139 0 1 0 -11.093457,67.16891 c 8.225932,-1.44822 20.92694,-4.70672 26.314357,-12.0058 a 16.37949,16.37949 0 0 0 2.070948,-14.91678 17.378769,17.378769 0 0 0 -10.93412,-11.38313 15.293317,15.293317 0 0 0 -16.394008,4.43161 c -2.418524,2.89648 -4.040523,8.29835 -2.577806,12.19409 a 6.1984279,6.1984279 0 0 0 5.199127,4.05504 1.0427262,1.0427262 0 0 1 0.854432,1.18756 1.0137615,1.0137615 0 0 1 -1.187504,0.83998 8.2114685,8.2114685 0 0 1 -6.792224,-5.35848 c -1.781337,-4.76466 0.174061,-10.89065 2.89648,-14.22162 a 17.378769,17.378769 0 0 1 18.595282,-5.08325 19.420774,19.420774 0 0 1 12.266511,12.71545 18.334602,18.334602 0 0 1 -2.375118,16.75605 c -5.532249,7.50181 -17.856672,11.00653 -26.415728,12.58512 a 34.221693,34.221693 0 0 0 59.377487,7.24112 34.265139,34.265139 0 0 0 61.738088,-12.86029 c 44.89513,20.27524 97.58175,-9.18179 97.58175,-9.18179 -23.91027,5.14127 -63.76556,3.92475 -78.47961,-23.35991 z"
       id="path833"
       style="fill:url(#linear-gradient-196);stroke-width:1.44823" />
  </g>
</svg>
