<svg width="1920" height="1200" viewBox="0 0 1920 1200" fill="none" xmlns="http://www.w3.org/2000/svg">
<g clip-path="url(#clip0_4_151)">
<path d="M1412 1029C1559.46 1029 1679 909.46 1679 762C1679 614.54 1559.46 495 1412 495C1264.54 495 1145 614.54 1145 762C1145 909.46 1264.54 1029 1412 1029Z" fill="url(#paint0_linear_4_151)"/>
<path d="M811.061 1252.61H-493C-421.055 1199.45 -300.289 1108.72 -205.013 1037.68C-174.796 1015.12 -147.123 994.51 -124.383 977.679C-87.1254 950.109 -49.6881 922.41 -8.75638 900.595C10.8487 890.189 31.2503 881.144 50.0332 869.247C90.2712 843.784 121.311 806.115 159.365 777.569C197.418 749.022 248.757 729.674 292.592 748.431C300.339 751.833 307.654 756.145 314.381 761.278C326.255 770.585 337.349 780.845 347.553 791.958L508.171 957.766C560.965 1012.32 614.924 1065.7 670.048 1117.9C732.949 1177.25 811.061 1252.61 811.061 1252.61Z" fill="#A19974"/>
<path d="M-94.5871 1156.49C-182.746 1239.95 -292.437 1345.78 -292.437 1345.78H1539.11C1406.27 1247.5 1154.26 1058 1021.41 959.669C969.048 920.947 916.476 882.071 858.946 851.52C831.401 836.899 802.751 824.206 776.414 807.504C719.886 771.532 676.205 718.678 622.811 678.542C569.417 638.407 497.189 611.299 435.676 637.611C405.305 650.612 381.46 674.945 358.592 698.687L132.94 931.584C58.7336 1008.21 -17.1088 1083.17 -94.5871 1156.49V1156.49Z" fill="#AEA680"/>
<path d="M2216.72 1291.92H912.632C984.578 1238.76 1105.34 1148.03 1200.65 1076.98C1230.86 1054.42 1258.51 1033.82 1281.25 1017.01C1318.51 989.415 1355.97 961.716 1396.88 939.926C1416.51 929.52 1436.91 920.476 1455.67 908.579C1495.88 883.038 1526.92 845.37 1565.05 816.771C1603.18 788.173 1654.44 768.876 1698.25 787.634C1706 791.036 1713.31 795.348 1720.04 800.481C1731.91 809.787 1743.01 820.048 1753.21 831.161L1913.83 996.866C1966.62 1051.41 2020.58 1104.78 2075.71 1157C2138.61 1216.45 2216.72 1291.92 2216.72 1291.92V1291.92Z" fill="#AEA680"/>
<path d="M1970.74 877.506V982.649H973.401C977.024 982.212 980.826 981.698 984.706 981.184H-73.6355V892.255C-44.9087 890.173 -15.6681 888.169 15.4226 886.345H16.9643C58.6669 878.791 101.577 871.211 130.407 866.149C151.451 862.449 172.546 858.749 195.62 855.871C206.669 854.458 218.18 853.301 228.741 851.683C251.429 848.24 268.901 843.203 290.408 839.349C311.914 835.495 340.821 832.951 365.514 835.469C375.921 836.639 386.228 838.58 396.348 841.276L486.947 863.374C516.719 870.671 547.159 877.823 578.266 884.829C606.839 891.253 641.116 899.089 653.167 901.865L675.984 903.715C687.88 901.145 700.085 898.576 712.959 896.52C723.416 894.798 734.311 893.334 744.332 891.381C765.787 887.193 782.36 880.949 802.71 876.247C823.061 871.545 850.451 868.333 873.808 871.442C883.8 872.906 893.633 875.306 903.177 878.611L911.939 881.386C911.322 879.125 911.399 877.737 913.301 879.33C918.08 883.364 1055.29 923.885 1132.09 940.15L1207.02 945.88C1233.46 945.88 1261.36 944.338 1286.85 942.411C1296.82 941.255 1306.94 940.175 1317.51 939.225C1330.94 937.966 1344.9 936.886 1357.82 935.499C1367.53 934.343 1374.42 933.443 1377.5 932.929C1397.88 930.052 1416.04 926.66 1436.93 923.911C1464.04 920.39 1500.48 918.001 1531.62 920.313C1544.72 921.366 1557.75 923.159 1570.65 925.684L1684.79 946.239L1701.08 949.143C1711.2 950.929 1721.6 950.277 1731.42 947.241C1765.78 936.398 1804.86 924.116 1829.37 916.408C1843.97 911.834 1858.56 907.286 1874.57 903.689C1882.28 901.967 1890.22 900.477 1897.54 898.55C1913.24 894.31 1925.37 888.118 1940.29 883.39C1950.18 880.234 1960.4 878.259 1970.74 877.506V877.506Z" fill="#7E8C7A"/>
<path d="M1924.13 968.722H-1.5874V1199.98H1924.13V968.722Z" fill="url(#paint1_linear_4_151)"/>
<g style="mix-blend-mode:overlay" opacity="0.3">
<path d="M500.231 1135.07C490.485 1133.37 480.534 1133.2 470.734 1134.56C468.185 1134.97 465.593 1135.04 463.025 1134.76C460.648 1134.28 458.305 1133.65 456.011 1132.86C451.514 1131.4 446.711 1131.14 442.084 1132.12C437.809 1133.52 433.35 1134.28 428.851 1134.38C424.56 1134.09 420.423 1132.73 416.209 1132.04C411.825 1131.27 407.318 1131.58 403.079 1132.94C400.907 1133.72 398.684 1134.36 396.425 1134.84C394.028 1135.16 391.6 1135.16 389.204 1134.84C379.492 1133.81 369.214 1129.7 360.015 1135.1C359.579 1135.35 359.262 1135.77 359.135 1136.26C359.007 1136.75 359.079 1137.27 359.334 1137.7C359.59 1138.14 360.008 1138.46 360.497 1138.58C360.986 1138.71 361.506 1138.64 361.942 1138.38C369.651 1133.81 379.235 1137.31 387.637 1138.38C392.07 1139.1 396.606 1138.83 400.921 1137.59C402.951 1136.97 404.929 1136.23 406.985 1135.74C409.169 1135.26 411.419 1135.14 413.64 1135.4C418.085 1135.87 422.351 1137.28 426.77 1137.97C431.021 1138.43 435.32 1138.03 439.412 1136.79C443.707 1135.35 448.299 1135.05 452.747 1135.89C457.347 1136.97 461.561 1138.85 466.366 1138.74C471.762 1138.62 477.106 1137.46 482.528 1137.38C488.135 1137.28 493.738 1137.74 499.255 1138.74C501.645 1139.21 502.672 1135.53 500.257 1135.1L500.231 1135.07Z" fill="white"/>
<path d="M464.644 1150.54C457.842 1148.68 450.73 1148.26 443.754 1149.28C436.868 1150.28 429.725 1153.83 422.685 1152.41C419.164 1151.72 415.953 1150.38 412.407 1150.02C409.066 1149.68 405.693 1149.88 402.411 1150.59C398.943 1151.34 395.731 1152.95 392.262 1153.67C389.033 1154.25 385.727 1154.25 382.498 1153.67C375.149 1152.62 367.903 1150.18 360.4 1150.85C357.985 1151.05 357.959 1154.86 360.4 1154.65C367.004 1154.06 373.402 1155.96 379.851 1157.09C382.957 1157.69 386.119 1157.95 389.281 1157.86C392.684 1157.54 396.024 1156.74 399.2 1155.47C402.493 1154.27 405.971 1153.65 409.477 1153.65C412.936 1153.78 416.356 1154.42 419.627 1155.55C426.642 1157.63 433.297 1155.55 440.183 1153.85C447.925 1151.99 456.012 1152.12 463.693 1154.21C464.181 1154.35 464.701 1154.28 465.139 1154.03C465.578 1153.78 465.899 1153.36 466.032 1152.88C466.164 1152.39 466.098 1151.87 465.848 1151.43C465.597 1150.99 465.183 1150.67 464.696 1150.54H464.644Z" fill="white"/>
<path d="M482.014 1166.98C479.264 1168.29 476.324 1169.16 473.303 1169.55C470.597 1169.6 467.897 1169.27 465.287 1168.55C460.148 1167.37 454.803 1165.98 449.613 1167.65C447.043 1168.52 444.757 1169.99 442.136 1170.61C439.656 1171.04 437.111 1170.92 434.684 1170.25C429.545 1169.12 424.406 1167.34 419.267 1168.68C418.828 1168.85 418.466 1169.18 418.254 1169.6C418.042 1170.02 417.993 1170.5 418.118 1170.96C418.243 1171.41 418.532 1171.8 418.93 1172.06C419.327 1172.31 419.805 1172.41 420.269 1172.33C425.408 1171.02 430.547 1173.48 435.686 1174.31C438.145 1174.81 440.679 1174.81 443.138 1174.31C445.679 1173.46 448.175 1172.48 450.615 1171.38C455.754 1169.6 461.227 1171.69 466.392 1172.74C469.008 1173.35 471.706 1173.54 474.383 1173.3C477.37 1172.84 480.282 1171.97 483.042 1170.73C485.277 1169.86 484.301 1166.16 482.014 1167.06V1166.98Z" fill="white"/>
<path d="M566.653 1167.27C562.675 1165.29 558.229 1164.45 553.805 1164.85C551.603 1165.03 549.44 1165.54 547.382 1166.34C545.43 1167.41 543.324 1168.18 541.138 1168.6C536.744 1168.94 532.736 1165.85 528.65 1164.72C524.154 1163.48 519.379 1163.73 515.032 1165.42C512.771 1166.32 513.747 1169.99 516.034 1169.09C520.138 1167.44 524.702 1167.33 528.881 1168.78C532.736 1170.14 536.358 1172.46 540.572 1172.43C544.786 1172.4 548.152 1169.66 552.135 1168.88C556.375 1168.08 560.761 1168.66 564.648 1170.53C566.832 1171.61 568.76 1168.32 566.576 1167.27H566.653Z" fill="white"/>
<path d="M186.832 1034.55C177.086 1032.85 167.135 1032.68 157.335 1034.04C154.786 1034.45 152.194 1034.52 149.626 1034.24C147.25 1033.76 144.907 1033.13 142.612 1032.34C138.122 1030.89 133.327 1030.64 128.711 1031.62C124.422 1033 119.957 1033.76 115.452 1033.86C111.161 1033.58 107.025 1032.21 102.811 1031.52C98.4252 1030.76 93.9216 1031.07 89.6806 1032.42C87.5134 1033.22 85.2887 1033.86 83.0256 1034.32C80.6296 1034.64 78.2014 1034.64 75.8054 1034.32C66.0928 1033.29 55.8149 1029.18 46.6161 1034.58C46.18 1034.83 45.8633 1035.25 45.7356 1035.74C45.608 1036.23 45.6798 1036.75 45.9353 1037.19C46.1909 1037.62 46.6092 1037.94 47.0983 1038.07C47.5873 1038.19 48.1071 1038.12 48.5432 1037.87C56.2517 1033.29 65.8358 1036.79 74.238 1037.87C78.6708 1038.58 83.2066 1038.31 87.5222 1037.07C89.5521 1036.48 91.5306 1035.71 93.5862 1035.22C95.7702 1034.74 98.0197 1034.62 100.241 1034.89C104.686 1035.35 108.952 1036.76 113.371 1037.46C117.622 1037.91 121.921 1037.51 126.013 1036.27C130.307 1034.83 134.903 1034.53 139.349 1035.4C143.948 1036.48 148.162 1038.33 152.967 1038.23C158.388 1038.1 163.707 1036.97 169.129 1036.86C174.737 1036.76 180.341 1037.23 185.856 1038.25C188.246 1038.69 189.273 1035.01 186.858 1034.58L186.832 1034.55Z" fill="white"/>
<path d="M151.168 1050.02C144.366 1048.17 137.254 1047.74 130.278 1048.76C123.392 1049.76 116.249 1053.34 109.209 1051.9C105.714 1051.2 102.476 1049.87 98.9306 1049.51C95.5899 1049.17 92.2164 1049.36 88.9353 1050.07C85.4666 1050.82 82.2547 1052.44 78.7859 1053.16C75.5559 1053.72 72.2519 1053.72 69.0219 1053.16C61.6732 1052.08 54.4273 1049.66 46.9244 1050.3C44.5091 1050.51 44.4834 1054.31 46.9244 1054.11C53.5537 1053.52 59.926 1055.42 66.3753 1056.55C69.479 1057.16 72.6429 1057.42 75.8053 1057.32C79.2089 1057 82.5491 1056.2 85.7235 1054.93C89.0201 1053.74 92.4964 1053.12 96.0014 1053.1C99.4497 1053.25 102.859 1053.89 106.125 1055.01C113.14 1057.11 119.795 1055.01 126.681 1053.31C134.423 1051.45 142.51 1051.57 150.192 1053.67C150.679 1053.8 151.199 1053.74 151.637 1053.49C152.076 1053.23 152.397 1052.82 152.53 1052.33C152.663 1051.85 152.597 1051.33 152.346 1050.89C152.095 1050.45 151.681 1050.13 151.194 1049.99L151.168 1050.02Z" fill="white"/>
<path d="M168.64 1066.36C165.886 1067.69 162.936 1068.55 159.904 1068.93C157.197 1069 154.495 1068.66 151.887 1067.93C146.749 1066.75 141.404 1065.36 136.214 1067.03C133.644 1067.9 131.357 1069.37 128.737 1069.99C126.257 1070.42 123.712 1070.3 121.285 1069.63C116.146 1068.52 111.007 1066.72 105.868 1068.06C105.428 1068.23 105.067 1068.55 104.855 1068.98C104.643 1069.4 104.594 1069.88 104.719 1070.34C104.844 1070.79 105.133 1071.18 105.531 1071.44C105.928 1071.69 106.406 1071.79 106.87 1071.71C112.009 1070.4 117.148 1072.86 122.287 1073.69C124.756 1074.17 127.296 1074.17 129.764 1073.69C132.297 1072.83 134.785 1071.84 137.216 1070.73C142.355 1068.96 147.828 1071.06 153.018 1072.09C155.627 1072.7 158.314 1072.9 160.983 1072.68C163.969 1072.21 166.88 1071.34 169.643 1070.11C171.878 1069.24 170.902 1065.57 168.64 1066.44V1066.36Z" fill="white"/>
<path d="M253.253 1066.75C249.276 1064.77 244.829 1063.94 240.406 1064.33C238.204 1064.52 236.04 1065.02 233.982 1065.82C232.033 1066.9 229.926 1067.66 227.738 1068.08C223.345 1068.42 219.336 1065.33 215.251 1064.2C210.755 1062.97 205.979 1063.21 201.632 1064.9C199.371 1065.8 200.373 1069.47 202.635 1068.57C206.739 1066.92 211.303 1066.81 215.482 1068.26C219.336 1069.63 222.959 1071.94 227.173 1071.91C231.387 1071.89 234.881 1069.14 238.761 1068.37C242.995 1067.56 247.376 1068.14 251.249 1070.04C253.459 1071.09 255.386 1067.8 253.176 1066.75H253.253Z" fill="white"/>
<path d="M1395.41 1002.13C1400.32 1001.23 1405.3 1000.76 1410.29 1000.74C1415.05 1000.82 1419.8 1001.18 1424.52 1001.82C1426.8 1002.15 1429.12 1002.2 1431.41 1001.97C1433.77 1001.61 1436.09 1001.05 1438.35 1000.28C1442.71 998.695 1447.43 998.365 1451.97 999.325C1456.22 1000.7 1460.65 1001.47 1465.12 1001.61C1469.36 1001.18 1473.56 1000.45 1477.69 999.402C1481.95 998.468 1486.38 998.68 1490.53 1000.02C1494.72 1001.58 1499.17 1002.33 1503.64 1002.23C1513.02 1001.66 1523.81 996.627 1532.7 1001.82C1533.13 1002.04 1533.64 1002.09 1534.11 1001.96C1534.58 1001.82 1534.98 1001.51 1535.22 1001.08C1535.47 1000.66 1535.54 1000.16 1535.42 999.68C1535.31 999.205 1535.01 998.792 1534.6 998.528C1526.69 993.903 1517.54 996.267 1509.09 997.732C1504.37 998.761 1499.49 998.656 1494.82 997.423C1490.64 995.776 1486.17 994.964 1481.67 995.034C1477.22 995.393 1472.96 996.73 1468.56 997.449C1464.26 998.06 1459.86 997.691 1455.72 996.37C1451.32 994.963 1446.65 994.619 1442.1 995.368C1437.19 996.318 1432.75 998.528 1427.66 998.297C1424.93 998.168 1422.24 997.706 1419.54 997.398C1416.84 997.089 1413.78 996.935 1410.91 996.935C1405.36 996.934 1399.83 997.45 1394.38 998.477C1391.99 998.914 1393.02 1002.59 1395.41 1002.13V1002.13Z" fill="white"/>
<path d="M1237.31 1176.23C1242.22 1175.33 1247.2 1174.87 1252.19 1174.85C1256.95 1174.92 1261.7 1175.28 1266.42 1175.92C1268.7 1176.26 1271.02 1176.31 1273.31 1176.08C1275.67 1175.72 1277.99 1175.15 1280.25 1174.38C1284.61 1172.8 1289.33 1172.47 1293.87 1173.43C1298.12 1174.8 1302.55 1175.57 1307.02 1175.72C1311.26 1175.29 1315.46 1174.55 1319.59 1173.51C1323.85 1172.58 1328.28 1172.79 1332.43 1174.13C1336.62 1175.69 1341.07 1176.44 1345.54 1176.34C1354.92 1175.77 1365.71 1170.73 1374.6 1175.92C1375.03 1176.18 1375.55 1176.25 1376.04 1176.12C1376.53 1176 1376.95 1175.68 1377.21 1175.24C1377.46 1174.81 1377.53 1174.29 1377.41 1173.8C1377.28 1173.31 1376.96 1172.89 1376.53 1172.64C1368.59 1168.01 1359.44 1170.37 1351.01 1171.84C1346.3 1172.87 1341.41 1172.76 1336.75 1171.53C1332.55 1169.88 1328.08 1169.07 1323.57 1169.14C1319.12 1169.5 1314.86 1170.84 1310.46 1171.56C1306.16 1172.15 1301.77 1171.78 1297.62 1170.48C1293.22 1169.07 1288.55 1168.73 1284 1169.48C1279.09 1170.43 1274.67 1172.64 1269.56 1172.4C1266.83 1172.4 1264.16 1171.79 1261.44 1171.51C1258.72 1171.22 1255.68 1171.04 1252.81 1171.04C1247.27 1171.04 1241.75 1171.56 1236.31 1172.58C1233.89 1173.02 1234.92 1176.67 1237.31 1176.23V1176.23Z" fill="white"/>
<path d="M1455.77 1017.54C1462.58 1015.66 1469.73 1015.34 1476.68 1016.62C1483.47 1017.9 1490.15 1020.73 1497.24 1019.52C1500.81 1018.9 1504.07 1017.39 1507.72 1017.08C1511.12 1016.78 1514.54 1017.1 1517.82 1018C1521.02 1019.17 1524.29 1020.14 1527.61 1020.91C1530.81 1021.33 1534.06 1021.29 1537.25 1020.78C1544.54 1019.8 1551.69 1017.31 1559.14 1017.98C1561.71 1018.18 1561.55 1014.38 1559.14 1014.18C1552.48 1013.59 1545.98 1015.41 1539.51 1016.59C1536.29 1017.26 1533 1017.51 1529.72 1017.34C1526.27 1016.8 1522.89 1015.86 1519.65 1014.56C1513.03 1012.66 1505.99 1012.82 1499.48 1015.02C1496.02 1016.09 1492.35 1016.27 1488.81 1015.54C1485.29 1014.87 1481.85 1013.77 1478.35 1012.97C1470.56 1011.41 1462.51 1011.7 1454.84 1013.79C1454.36 1013.92 1453.94 1014.24 1453.69 1014.68C1453.44 1015.12 1453.37 1015.64 1453.51 1016.13C1453.64 1016.62 1453.96 1017.03 1454.4 1017.28C1454.84 1017.53 1455.36 1017.6 1455.85 1017.47L1455.77 1017.54Z" fill="white"/>
<path d="M412.664 1053.52C419.476 1051.63 426.627 1051.31 433.579 1052.59C440.363 1053.87 447.043 1056.7 454.135 1055.49C457.707 1054.88 460.97 1053.36 464.619 1053.05C468.013 1052.75 471.433 1053.07 474.717 1053.98C477.919 1055.14 481.188 1056.11 484.506 1056.88C487.702 1057.34 490.947 1057.34 494.142 1056.88C501.439 1055.9 508.608 1053.41 516.059 1054.08C518.475 1054.29 518.475 1050.48 516.059 1050.28C509.379 1049.69 502.904 1051.51 496.403 1052.69C493.186 1053.36 489.895 1053.61 486.613 1053.44C483.169 1052.9 479.798 1051.97 476.567 1050.66C469.944 1048.76 462.899 1048.92 456.371 1051.13C452.916 1052.19 449.248 1052.37 445.707 1051.64C442.187 1050.97 438.77 1049.87 435.249 1049.07C427.455 1047.52 419.406 1047.8 411.739 1049.89C411.252 1050.03 410.837 1050.35 410.587 1050.78C410.336 1051.22 410.27 1051.74 410.403 1052.23C410.536 1052.72 410.857 1053.13 411.295 1053.38C411.734 1053.63 412.254 1053.7 412.741 1053.57L412.664 1053.52Z" fill="white"/>
<path d="M469.552 1030.08C476.356 1028.2 483.498 1027.88 490.442 1029.16C497.225 1030.44 503.906 1033.29 510.998 1032.06C514.544 1031.44 517.833 1029.95 521.456 1029.64C524.848 1029.34 528.268 1029.64 531.554 1030.54C534.757 1031.7 538.026 1032.67 541.343 1033.45C544.539 1033.91 547.784 1033.91 550.979 1033.45C558.302 1032.45 565.445 1029.98 572.896 1030.62C575.312 1030.83 575.312 1027.02 572.896 1026.82C566.216 1026.23 559.741 1028.08 553.24 1029.26C550.021 1029.92 546.732 1030.17 543.45 1030C540.01 1029.45 536.64 1028.52 533.404 1027.23C526.784 1025.32 519.738 1025.47 513.207 1027.67C509.756 1028.75 506.084 1028.92 502.544 1028.18C499.024 1027.51 495.607 1026.41 492.086 1025.61C484.294 1024.05 476.245 1024.32 468.576 1026.41C468.088 1026.54 467.675 1026.87 467.427 1027.31C467.179 1027.75 467.116 1028.27 467.252 1028.76C467.389 1029.25 467.713 1029.66 468.154 1029.91C468.595 1030.15 469.116 1030.22 469.603 1030.08H469.552Z" fill="white"/>
<path d="M1212.93 1152.98C1219.74 1151.12 1226.89 1150.8 1233.84 1152.05C1240.63 1153.34 1247.31 1156.19 1254.4 1154.98C1257.94 1154.37 1261.23 1152.85 1264.86 1152.54C1268.25 1152.25 1271.67 1152.55 1274.95 1153.44C1278.16 1154.62 1281.42 1155.59 1284.74 1156.37C1287.95 1156.82 1291.2 1156.82 1294.41 1156.37C1301.7 1155.37 1308.85 1152.9 1316.3 1153.54C1318.87 1153.78 1318.71 1149.97 1316.3 1149.74C1309.64 1149.18 1303.14 1151 1296.64 1152.31C1293.43 1152.98 1290.15 1153.23 1286.88 1153.06C1283.43 1152.51 1280.05 1151.58 1276.8 1150.28C1270.19 1148.38 1263.15 1148.54 1256.63 1150.74C1253.18 1151.81 1249.51 1151.99 1245.97 1151.26C1242.45 1150.59 1239.01 1149.49 1235.49 1148.69C1227.7 1147.13 1219.66 1147.42 1212 1149.51C1211.56 1149.68 1211.2 1150.01 1210.99 1150.43C1210.78 1150.85 1210.73 1151.33 1210.85 1151.79C1210.98 1152.24 1211.27 1152.63 1211.66 1152.89C1212.06 1153.14 1212.54 1153.24 1213 1153.16L1212.93 1152.98Z" fill="white"/>
<path d="M705.584 1156.89C712.401 1155.03 719.546 1154.71 726.5 1155.96C733.283 1157.24 739.964 1160.1 747.056 1158.89C750.627 1158.27 753.89 1156.76 757.539 1156.45C760.932 1156.15 764.35 1156.46 767.637 1157.35C770.835 1158.53 774.105 1159.51 777.427 1160.28C780.629 1160.68 783.872 1160.64 787.062 1160.15C794.36 1159.15 801.503 1156.68 808.954 1157.32C811.395 1157.55 811.37 1153.75 808.954 1153.52C802.299 1152.95 795.799 1154.78 789.298 1155.96C786.089 1156.63 782.807 1156.88 779.534 1156.71C776.082 1156.16 772.703 1155.23 769.461 1153.93C762.848 1152.02 755.81 1152.19 749.291 1154.39C745.837 1155.46 742.169 1155.64 738.628 1154.91C735.107 1154.24 731.664 1153.13 728.17 1152.34C720.375 1150.78 712.326 1151.06 704.659 1153.16C704.219 1153.33 703.858 1153.66 703.646 1154.08C703.434 1154.5 703.385 1154.98 703.51 1155.44C703.635 1155.89 703.924 1156.28 704.322 1156.54C704.719 1156.79 705.197 1156.89 705.661 1156.81L705.584 1156.89Z" fill="white"/>
<path d="M119.538 1154.21C126.341 1152.33 133.484 1152.01 140.428 1153.29C147.211 1154.57 153.892 1157.42 160.983 1156.22C164.529 1155.6 167.818 1154.08 171.441 1153.65C174.834 1153.35 178.252 1153.66 181.539 1154.55C184.736 1155.72 188.007 1156.69 191.329 1157.45C194.524 1157.91 197.769 1157.91 200.965 1157.45C208.288 1156.45 215.431 1153.98 222.882 1154.62C225.452 1154.83 225.297 1151.03 222.882 1150.82C216.227 1150.26 209.726 1152.08 203.226 1153.26C200.017 1153.93 196.735 1154.18 193.462 1154.01C189.989 1153.45 186.592 1152.49 183.338 1151.16C176.717 1149.25 169.675 1149.41 163.142 1151.59C159.701 1152.68 156.038 1152.87 152.504 1152.13C148.958 1151.44 145.541 1150.36 142.021 1149.56C134.226 1148.01 126.177 1148.29 118.51 1150.38C118.062 1150.55 117.692 1150.88 117.476 1151.3C117.259 1151.73 117.21 1152.22 117.34 1152.68C117.47 1153.14 117.768 1153.54 118.175 1153.79C118.582 1154.04 119.069 1154.13 119.538 1154.03V1154.21Z" fill="white"/>
<path d="M1411.6 1034.01C1414.35 1035.25 1417.25 1036.11 1420.23 1036.58C1422.91 1036.82 1425.61 1036.63 1428.22 1036.02C1433.36 1034.96 1438.76 1032.88 1444 1034.66C1446.57 1035.5 1448.86 1036.99 1451.48 1037.58C1453.94 1038.09 1456.49 1038.09 1458.95 1037.58C1464.09 1036.76 1469.23 1034.3 1474.37 1035.61C1474.84 1035.68 1475.31 1035.59 1475.71 1035.33C1476.11 1035.08 1476.4 1034.69 1476.52 1034.23C1476.65 1033.78 1476.6 1033.3 1476.39 1032.87C1476.17 1032.45 1475.81 1032.13 1475.37 1031.96C1470.23 1030.62 1465.1 1032.39 1459.96 1033.52C1457.52 1034.19 1454.97 1034.32 1452.48 1033.88C1449.95 1033.03 1447.46 1032.04 1445.03 1030.93C1439.89 1029.18 1434.47 1030.65 1429.33 1031.83C1426.73 1032.55 1424.04 1032.88 1421.34 1032.83C1418.31 1032.45 1415.36 1031.58 1412.6 1030.26C1410.34 1029.36 1409.34 1033.04 1411.6 1033.94V1034.01Z" fill="white"/>
<path d="M1527.17 1111.33C1529.93 1112.57 1532.83 1113.43 1535.81 1113.9C1538.48 1114.12 1541.18 1113.93 1543.8 1113.33C1548.94 1112.28 1554.33 1110.2 1559.58 1111.97C1562.14 1112.82 1564.43 1114.28 1567.05 1114.9C1569.52 1115.39 1572.06 1115.39 1574.53 1114.9C1579.67 1114.08 1584.81 1111.61 1589.95 1112.92C1590.42 1113.01 1590.9 1112.93 1591.31 1112.68C1591.72 1112.43 1592.01 1112.03 1592.14 1111.57C1592.27 1111.11 1592.23 1110.62 1592.01 1110.19C1591.79 1109.77 1591.42 1109.44 1590.97 1109.27C1585.71 1107.94 1580.7 1109.71 1575.56 1110.84C1573.12 1111.51 1570.57 1111.63 1568.08 1111.2C1565.55 1110.34 1563.06 1109.36 1560.63 1108.24C1555.49 1106.5 1550.07 1107.96 1544.93 1109.14C1542.19 1110.03 1539.29 1110.36 1536.42 1110.11C1533.54 1109.86 1530.75 1109.03 1528.2 1107.68C1525.92 1106.78 1524.94 1110.45 1527.2 1111.35L1527.17 1111.33Z" fill="white"/>
<path d="M1695.89 1147.53C1698.65 1148.77 1701.56 1149.63 1704.55 1150.1C1707.22 1150.34 1709.92 1150.15 1712.54 1149.54C1717.68 1148.48 1723.07 1146.4 1728.31 1148.17C1730.75 1149.28 1733.25 1150.26 1735.79 1151.1C1738.25 1151.6 1740.78 1151.6 1743.24 1151.1C1748.38 1150.28 1753.52 1147.81 1758.66 1149.13C1759.12 1149.2 1759.6 1149.11 1760 1148.85C1760.4 1148.6 1760.68 1148.21 1760.81 1147.75C1760.93 1147.3 1760.89 1146.81 1760.67 1146.39C1760.46 1145.97 1760.1 1145.65 1759.66 1145.48C1754.52 1144.14 1749.38 1145.91 1744.24 1147.04C1741.82 1147.71 1739.27 1147.84 1736.79 1147.4C1734.22 1146.79 1731.86 1145.32 1729.31 1144.45C1724.18 1142.7 1718.78 1144.17 1713.64 1145.35C1710.9 1146.24 1708 1146.57 1705.13 1146.31C1702.26 1146.06 1699.46 1145.24 1696.91 1143.88C1694.63 1143.01 1693.65 1146.66 1695.89 1147.56V1147.53Z" fill="white"/>
<path d="M583.919 1098.76C586.67 1100 589.573 1100.86 592.553 1101.33C595.23 1101.57 597.927 1101.38 600.544 1100.77C605.683 1099.71 611.079 1097.63 616.346 1099.41C618.778 1100.51 621.265 1101.49 623.798 1102.34C626.265 1102.84 628.808 1102.84 631.275 1102.34C636.414 1101.51 641.553 1099.05 646.692 1100.36C647.156 1100.44 647.634 1100.34 648.031 1100.09C648.429 1099.83 648.718 1099.44 648.843 1098.99C648.968 1098.53 648.919 1098.05 648.707 1097.63C648.495 1097.2 648.134 1096.88 647.694 1096.71C642.426 1095.37 637.416 1097.14 632.277 1098.28C629.842 1098.95 627.288 1099.07 624.8 1098.64C622.267 1097.78 619.779 1096.79 617.348 1095.68C612.209 1093.93 606.813 1095.4 601.674 1096.58C598.926 1097.47 596.027 1097.8 593.15 1097.54C590.272 1097.29 587.474 1096.47 584.921 1095.11C582.66 1094.22 581.658 1097.89 583.919 1098.79V1098.76Z" fill="white"/>
<path d="M270.854 1094.86C273.605 1096.09 276.508 1096.96 279.488 1097.43C282.164 1097.66 284.862 1097.47 287.479 1096.86C292.618 1095.81 298.014 1093.73 303.255 1095.5C305.825 1096.35 308.112 1097.84 310.733 1098.43C313.2 1098.93 315.742 1098.93 318.21 1098.43C323.349 1097.61 328.488 1095.14 333.627 1096.45C334.095 1096.54 334.582 1096.46 334.989 1096.21C335.397 1095.96 335.695 1095.56 335.824 1095.1C335.954 1094.64 335.905 1094.15 335.689 1093.72C335.472 1093.3 335.103 1092.97 334.654 1092.8C329.515 1091.47 324.376 1093.24 319.237 1094.37C316.811 1095.04 314.266 1095.16 311.786 1094.73C309.217 1094.11 306.853 1092.65 304.309 1091.77C299.17 1090.03 293.774 1091.49 288.635 1092.67C285.891 1093.56 282.996 1093.89 280.123 1093.64C277.25 1093.39 274.456 1092.56 271.908 1091.21C269.621 1090.31 268.644 1093.98 270.906 1094.88L270.854 1094.86Z" fill="white"/>
<path d="M1065.05 1133.35C1067.81 1134.59 1070.73 1135.45 1073.71 1135.92C1076.39 1136.15 1079.09 1135.96 1081.7 1135.35C1086.84 1134.3 1092.24 1132.22 1097.48 1133.99C1099.91 1135.09 1102.4 1136.07 1104.93 1136.92C1107.4 1137.42 1109.94 1137.42 1112.41 1136.92C1117.55 1136.1 1122.69 1133.63 1127.83 1134.94C1128.29 1135.02 1128.77 1134.92 1129.17 1134.67C1129.56 1134.42 1129.85 1134.03 1129.98 1133.57C1130.1 1133.12 1130.05 1132.63 1129.84 1132.21C1129.63 1131.79 1129.27 1131.46 1128.83 1131.29C1123.56 1129.96 1118.55 1131.73 1113.41 1132.86C1110.98 1133.53 1108.44 1133.65 1105.96 1133.22C1103.39 1132.6 1101.03 1131.14 1098.48 1130.27C1093.34 1128.52 1087.95 1129.98 1082.81 1131.16C1080.06 1132.05 1077.17 1132.38 1074.3 1132.13C1071.42 1131.88 1068.63 1131.05 1066.08 1129.7C1063.79 1128.8 1062.82 1132.47 1065.05 1133.37V1133.35Z" fill="white"/>
<path d="M681.405 1137C684.156 1138.23 687.06 1139.1 690.039 1139.57C692.716 1139.8 695.413 1139.61 698.03 1139C703.169 1137.97 708.565 1135.87 713.807 1137.64C716.376 1138.49 718.663 1139.98 721.284 1140.57C723.751 1141.07 726.294 1141.07 728.761 1140.57C733.9 1139.75 739.039 1137.28 744.178 1138.59C744.643 1138.67 745.12 1138.57 745.517 1138.32C745.915 1138.07 746.204 1137.67 746.329 1137.22C746.454 1136.76 746.405 1136.28 746.193 1135.86C745.981 1135.44 745.62 1135.11 745.18 1134.94C739.912 1133.61 734.902 1135.38 729.763 1136.51C727.328 1137.18 724.774 1137.3 722.286 1136.87C719.753 1136.01 717.265 1135.03 714.834 1133.91C709.695 1132.17 704.274 1133.63 699.16 1134.81C696.412 1135.7 693.513 1136.03 690.636 1135.78C687.758 1135.53 684.96 1134.7 682.408 1133.35C680.146 1132.48 679.144 1136.15 681.405 1137.02V1137Z" fill="white"/>
<path d="M373.608 1029.18C376.362 1030.41 379.264 1031.27 382.241 1031.75C384.919 1031.98 387.617 1031.78 390.232 1031.16C395.371 1030.13 400.767 1028.03 406.009 1029.8C408.449 1030.91 410.944 1031.9 413.486 1032.75C415.954 1033.24 418.495 1033.24 420.963 1032.75C426.102 1031.93 431.241 1029.49 436.38 1030.8C438.744 1031.39 439.772 1027.72 437.408 1027.13C432.14 1025.79 427.13 1027.59 421.991 1028.69C419.564 1029.36 417.019 1029.49 414.539 1029.05C411.97 1028.46 409.606 1026.97 407.062 1026.12C401.923 1024.35 396.527 1025.82 391.388 1027.02C388.784 1027.73 386.095 1028.06 383.397 1028.03C380.371 1027.62 377.424 1026.76 374.661 1025.46C372.374 1024.56 371.398 1028.23 373.659 1029.1L373.608 1029.18Z" fill="white"/>
<path d="M1329.89 1033.88C1333.7 1032.06 1337.98 1031.47 1342.15 1032.19C1346.23 1032.93 1349.85 1035.73 1353.97 1035.79C1358.08 1035.84 1361.67 1033.58 1365.43 1032.24C1369.67 1030.65 1374.36 1030.72 1378.56 1032.45C1380.84 1033.34 1381.82 1029.67 1379.58 1028.77C1375.23 1027.07 1370.45 1026.82 1365.94 1028.05C1361.88 1029.21 1357.85 1032.32 1353.45 1031.96C1351.36 1031.54 1349.34 1030.82 1347.47 1029.8C1345.34 1028.94 1343.1 1028.4 1340.81 1028.21C1336.39 1027.81 1331.94 1028.65 1327.96 1030.62C1325.75 1031.67 1327.68 1034.96 1329.86 1033.88H1329.89Z" fill="white"/>
<path d="M1212.7 992.67C1216.5 990.824 1220.79 990.222 1224.95 990.948C1229.04 991.693 1232.66 994.494 1236.77 994.546C1240.88 994.597 1244.48 992.362 1248.23 991C1252.48 989.448 1257.16 989.522 1261.36 991.205C1263.65 992.105 1264.63 988.43 1262.36 987.531C1258.02 985.841 1253.24 985.598 1248.75 986.837C1244.69 987.968 1240.65 991.077 1236.26 990.717C1234.17 990.303 1232.15 989.576 1230.27 988.559C1228.14 987.709 1225.9 987.173 1223.62 986.966C1219.19 986.575 1214.75 987.41 1210.77 989.381C1208.59 990.434 1210.51 993.723 1212.7 992.67V992.67Z" fill="white"/>
<path d="M1393.02 1152.98C1396.82 1151.13 1401.1 1150.54 1405.25 1151.28C1409.34 1152.03 1412.96 1154.83 1417.1 1154.86C1421.23 1154.88 1424.81 1152.67 1428.56 1151.31C1432.81 1149.75 1437.49 1149.83 1441.69 1151.54C1443.97 1152.41 1444.95 1148.74 1442.69 1147.87C1438.35 1146.16 1433.57 1145.9 1429.07 1147.15C1425.01 1148.3 1420.95 1151.41 1416.58 1151.05C1414.49 1150.63 1412.48 1149.9 1410.6 1148.89C1408.46 1148.03 1406.21 1147.49 1403.92 1147.28C1399.49 1146.89 1395.05 1147.73 1391.07 1149.69C1388.89 1150.77 1390.79 1154.03 1393 1152.98H1393.02Z" fill="white"/>
<path d="M1685.15 1079.88C1690.05 1078.96 1695.03 1078.49 1700.02 1078.46C1704.79 1078.54 1709.54 1078.9 1714.26 1079.54C1716.54 1079.88 1718.85 1079.93 1721.14 1079.7C1723.52 1079.36 1725.85 1078.8 1728.11 1078C1732.47 1076.43 1737.19 1076.1 1741.73 1077.05C1745.98 1078.43 1750.41 1079.2 1754.88 1079.34C1759.11 1078.92 1763.3 1078.18 1767.42 1077.13C1771.68 1076.21 1776.11 1076.42 1780.27 1077.75C1784.46 1079.31 1788.9 1080.06 1793.37 1079.95C1802.78 1079.39 1813.54 1074.35 1822.43 1079.54C1822.87 1079.8 1823.39 1079.87 1823.88 1079.74C1824.37 1079.62 1824.79 1079.3 1825.04 1078.86C1825.3 1078.43 1825.37 1077.91 1825.24 1077.42C1825.11 1076.93 1824.8 1076.51 1824.36 1076.25C1816.42 1071.63 1807.3 1073.99 1798.85 1075.46C1794.14 1076.5 1789.24 1076.4 1784.58 1075.15C1780.39 1073.5 1775.91 1072.69 1771.4 1072.76C1766.96 1073.12 1762.69 1074.46 1758.32 1075.18C1754.02 1075.78 1749.62 1075.41 1745.48 1074.1C1741.08 1072.69 1736.41 1072.35 1731.86 1073.09C1726.95 1074.05 1722.53 1076.25 1717.42 1076.02C1714.69 1076.02 1712.02 1075.43 1709.32 1075.15C1706.63 1074.87 1703.57 1074.69 1700.67 1074.66C1695.13 1074.67 1689.61 1075.19 1684.17 1076.2C1681.75 1076.64 1682.78 1080.31 1685.17 1079.88H1685.15Z" fill="white"/>
<path d="M1660.63 1056.62C1667.45 1054.74 1674.6 1054.42 1681.55 1055.7C1688.33 1056.98 1695.01 1059.81 1702.1 1058.6C1705.68 1057.99 1708.94 1056.47 1712.59 1056.03C1715.98 1055.74 1719.4 1056.05 1722.69 1056.96C1725.89 1058.12 1729.16 1059.09 1732.48 1059.86C1735.67 1060.32 1738.92 1060.32 1742.11 1059.86C1749.41 1058.89 1756.55 1056.39 1764 1057.06C1766.57 1057.27 1766.42 1053.46 1764 1053.26C1757.35 1052.67 1750.85 1054.49 1744.37 1055.67C1741.15 1056.34 1737.86 1056.59 1734.58 1056.42C1731.13 1055.88 1727.75 1054.95 1724.51 1053.64C1717.9 1051.74 1710.86 1051.9 1704.34 1054.11C1700.89 1055.17 1697.22 1055.35 1693.68 1054.62C1690.16 1053.95 1686.71 1052.85 1683.22 1052.05C1675.42 1050.5 1667.37 1050.78 1659.71 1052.87C1659.22 1053.01 1658.81 1053.33 1658.56 1053.77C1658.31 1054.2 1658.24 1054.72 1658.37 1055.21C1658.5 1055.7 1658.83 1056.11 1659.26 1056.36C1659.7 1056.61 1660.22 1056.68 1660.71 1056.55L1660.63 1056.62Z" fill="white"/>
<path d="M1840.73 1056.6C1844.53 1054.76 1848.82 1054.17 1852.98 1054.9C1857.07 1055.65 1860.69 1058.45 1864.8 1058.5C1868.91 1058.55 1872.51 1056.29 1876.26 1054.95C1880.51 1053.37 1885.2 1053.44 1889.39 1055.16C1891.68 1056.03 1892.66 1052.38 1890.4 1051.49C1886.05 1049.79 1881.28 1049.53 1876.78 1050.77C1872.72 1051.92 1868.66 1055.03 1864.29 1054.67C1862.2 1054.26 1860.18 1053.53 1858.3 1052.51C1856.18 1051.65 1853.93 1051.11 1851.65 1050.92C1847.22 1050.53 1842.78 1051.36 1838.8 1053.34C1836.62 1054.39 1838.54 1057.68 1840.73 1056.6V1056.6Z" fill="white"/>
<path d="M566.653 1009.29C570.45 1007.46 574.73 1006.86 578.883 1007.6C582.969 1008.34 586.592 1011.14 590.729 1011.2C594.865 1011.25 598.437 1008.99 602.188 1007.65C606.435 1006.06 611.124 1006.13 615.318 1007.86C617.58 1008.73 618.582 1005.05 616.321 1004.18C611.977 1002.48 607.201 1002.23 602.702 1003.46C598.643 1004.62 594.583 1007.73 590.215 1007.37C588.122 1006.95 586.103 1006.23 584.228 1005.21C582.094 1004.34 579.842 1003.81 577.547 1003.62C573.124 1003.22 568.677 1004.06 564.7 1006.03C562.516 1007.08 564.417 1010.37 566.627 1009.29H566.653Z" fill="white"/>
</g>
<path style="mix-blend-mode:overlay" opacity="0.2" d="M1098.61 1161.43C1119.35 1161.43 1145.79 1153.93 1169.09 1147.3C1186.69 1142.16 1203.34 1137.56 1212.49 1137.51H1216.6C1229.73 1137.51 1243.04 1137.87 1256.15 1138.59L1259.41 1138.77C1266.32 1139.16 1273.46 1139.54 1280.68 1139.54C1294.05 1139.54 1311.52 1138.38 1328.01 1129.26C1330.76 1127.77 1333.33 1126.1 1335.72 1124.51C1338.43 1122.67 1341.27 1121.01 1344.2 1119.55C1349.12 1117.66 1354.24 1116.33 1359.46 1115.59L1381.77 1111.56C1384.52 1111.25 1387.47 1110.87 1390.43 1110.33C1393.38 1109.79 1396.77 1108.99 1399.21 1108.37L1437.01 1101.49C1451.14 1098.92 1465.28 1094.88 1474.65 1083.27C1477.94 1081.65 1480.76 1079.23 1482.87 1076.23C1484.97 1073.23 1486.28 1069.75 1486.68 1066.11C1487.19 1060.26 1485.6 1054.43 1482.18 1049.66C1472.78 1035.45 1457.7 1030.39 1442.79 1027.02C1429.95 1024.07 1416.22 1021.47 1399.63 1018.85C1391.42 1016.03 1382.91 1014.21 1374.26 1013.43C1372.49 1013.43 1370.69 1013.25 1368.77 1013.25C1367.43 1013.25 1366.2 1013.25 1364.73 1013.25C1363.81 1013.25 1362.73 1013.25 1361.62 1013.25L1353.68 1012.4L1306.15 1006.11C1286.73 1000.55 1266.28 999.669 1246.46 1003.54H1245.84C1240.09 1003.31 1233.92 1002.84 1227.03 1002.2C1224.16 1001.59 1221.25 1000.87 1218.35 1000.12C1209.5 997.548 1200.39 996.013 1191.19 995.548C1187.16 995.548 1183.1 995.419 1179.06 995.419C1174.23 995.419 1169.97 995.419 1166.03 995.702C1155.76 994.854 1146.71 994.443 1138.28 994.443C1124.78 994.339 1111.3 995.596 1098.05 998.194C1084.8 995.595 1071.33 994.338 1057.83 994.443C1049.41 994.443 1040.31 994.854 1030.08 995.702C1026.15 995.522 1021.89 995.419 1017.06 995.419C1013 995.419 1008.94 995.419 1004.9 995.548C995.711 996.015 986.605 997.55 977.769 1000.12C974.865 1000.87 971.962 1001.59 969.084 1002.2C962.198 1002.87 956.005 1003.31 950.249 1003.54H949.864C929.978 999.628 909.447 1000.51 889.97 1006.11L841.381 1012.4L834.597 1013.3C832.028 1013.17 829.921 1013.1 827.814 1013.1C825.707 1013.1 823.857 1013.1 821.981 1013.28C813.332 1014.06 804.808 1015.88 796.595 1018.7C779.97 1021.27 766.224 1023.84 753.376 1026.87C738.525 1030.24 723.442 1035.3 714.012 1049.53C710.609 1054.31 709.023 1060.14 709.541 1065.98C709.945 1069.61 711.259 1073.09 713.36 1076.09C715.462 1079.08 718.284 1081.5 721.566 1083.12C730.868 1094.73 745.077 1098.76 759.209 1101.33L797.006 1108.22C799.447 1108.84 802.582 1109.61 805.871 1110.2C808.748 1110.71 811.678 1111.1 814.427 1111.41L836.756 1115.44C842.03 1116.17 847.203 1117.51 852.173 1119.42C855.088 1120.88 857.903 1122.53 860.6 1124.36C863.17 1125.95 865.739 1127.62 868.463 1129.13C884.908 1138.21 902.38 1139.41 915.741 1139.41C922.936 1139.41 930.105 1139.03 937.017 1138.64L940.254 1138.46C953.616 1137.74 967.182 1137.38 980.595 1137.38H984.809C993.982 1137.38 1010.66 1142.16 1028.31 1147.2C1051.49 1153.88 1077.9 1161.43 1098.61 1161.43V1161.43Z" fill="url(#paint2_linear_4_151)"/>
<path d="M719.279 1056.7C719.69 1060.25 723.21 1062.25 726.705 1063.51C733.437 1073.15 746.798 1076.18 758.695 1078.16L797.237 1084.58C800.038 1085.25 802.839 1085.86 805.691 1086.33C808.543 1086.79 811.189 1087.1 813.964 1087.38L836.858 1091.18C843.08 1091.98 849.192 1093.48 855.076 1095.65C861.114 1098.22 866.485 1102.08 872.343 1105.01C892.334 1115.11 916.024 1113.33 938.327 1112.23C953.487 1111.48 968.724 1111.15 983.935 1111.23C1007.99 1111.35 1063.59 1133.32 1098.64 1133.32C1133.68 1133.32 1189.24 1111.41 1213.31 1111.23C1228.25 1111.23 1243.16 1111.56 1258.05 1112.23C1280.4 1113.33 1304.04 1115.11 1324.03 1105.01C1329.89 1102.08 1335.26 1098.17 1341.3 1095.65C1347.18 1093.48 1353.29 1091.98 1359.52 1091.18L1382.38 1087.38C1385.16 1087.1 1387.93 1086.79 1390.68 1086.33C1393.43 1085.86 1396.34 1085.25 1399.14 1084.58L1437.68 1078.16C1449.58 1076.18 1462.94 1073.15 1469.67 1063.51C1473.16 1062.25 1476.68 1060.25 1477.1 1056.7C1477.16 1054.46 1476.39 1052.27 1474.94 1050.56C1467.79 1040.69 1454.92 1037.15 1443.02 1034.68C1428.56 1031.65 1413.99 1029.26 1399.34 1027.15C1391.69 1024.68 1383.77 1023.09 1375.75 1022.4C1372.98 1022.26 1370.2 1022.26 1367.43 1022.4C1366.06 1022.4 1364.7 1022.45 1363.34 1022.55L1354.3 1021.45L1305.48 1015.54C1287.38 1010.68 1268.43 1009.88 1249.98 1013.2C1249.21 1013.35 1248.41 1013.43 1247.64 1013.53C1240.52 1013.28 1233.46 1012.79 1226.34 1012.17C1214.88 1009.94 1203.21 1006.29 1191.86 1006.13C1183.38 1006.13 1174.9 1005.9 1166.47 1006.29C1143.55 1004.52 1120.81 1004.28 1098.3 1008.86H1097.99C1075.51 1004.36 1052.77 1004.59 1029.85 1006.29C1021.42 1005.9 1012.94 1006.01 1004.47 1006.13C992.98 1006.29 981.34 1009.94 969.983 1012.17C962.866 1012.79 955.774 1013.28 948.682 1013.53C947.911 1013.53 947.115 1013.35 946.344 1013.2C927.897 1009.88 908.946 1010.68 890.843 1015.54L842.023 1021.45L840.97 1021.58L832.979 1022.55C820.794 1021.63 808.549 1023.22 797.006 1027.23C782.36 1029.34 767.791 1031.73 753.325 1034.76C741.402 1037.33 728.555 1040.77 721.412 1050.64C719.982 1052.33 719.224 1054.49 719.279 1056.7V1056.7Z" fill="#677A62"/>
<path style="mix-blend-mode:overlay" opacity="0.2" d="M835.291 1035.79C835.291 1064.05 911.553 1089.74 1103.03 1090.03H1104.7C1296.2 1089.87 1372.47 1064.1 1372.47 1035.79C1372.31 1030.85 1370.5 1026.11 1367.33 1022.32C1365.96 1022.32 1364.59 1022.37 1363.24 1022.48L1354.2 1021.37L1305.38 1015.46C1287.27 1010.61 1268.32 1009.81 1249.88 1013.12C1249.11 1013.28 1248.31 1013.35 1247.54 1013.46C1240.42 1013.2 1233.35 1012.71 1226.24 1012.1C1214.78 1009.86 1203.11 1006.21 1191.75 1006.06C1183.28 1006.06 1174.8 1005.83 1166.37 1006.21C1143.45 1004.44 1120.71 1004.21 1098.2 1008.78H1097.89C1075.41 1004.28 1052.67 1004.52 1029.75 1006.21C1021.32 1005.83 1012.84 1005.93 1004.36 1006.06C992.877 1006.21 981.238 1009.86 969.88 1012.1C962.763 1012.71 955.671 1013.2 948.579 1013.46C947.809 1013.46 947.012 1013.28 946.241 1013.12C927.794 1009.81 908.843 1010.61 890.741 1015.46L841.92 1021.37L840.867 1021.5C837.408 1025.47 835.437 1030.52 835.291 1035.79V1035.79Z" fill="url(#paint3_linear_4_151)"/>
<path style="mix-blend-mode:overlay" opacity="0.2" d="M438.949 1038.48C451.103 1038.48 466.597 1034.06 480.267 1030.18C490.544 1027.26 500.36 1024.48 505.73 1024.43H508.145C515.854 1024.43 523.562 1024.63 531.271 1025.07H533.198C537.232 1025.3 541.446 1025.53 545.66 1025.53C555.271 1025.92 564.822 1023.85 573.41 1019.52C575.029 1018.62 576.545 1017.67 577.984 1016.72C579.577 1015.64 581.242 1014.67 582.968 1013.82C585.857 1012.7 588.866 1011.92 591.936 1011.5L605.015 1009.11C606.608 1008.93 608.355 1008.73 610.154 1008.4C611.952 1008.06 613.879 1007.62 615.293 1007.24L637.441 1003.2C645.741 1001.71 654.066 999.35 659.513 992.541C661.44 991.588 663.096 990.166 664.33 988.406C665.565 986.646 666.338 984.605 666.579 982.469C666.898 979.046 665.987 975.62 664.01 972.808C658.511 964.508 649.646 961.528 640.884 959.549C633.382 957.828 625.313 956.312 615.575 954.77C610.771 953.115 605.784 952.045 600.724 951.584C599.67 951.584 598.617 951.584 597.486 951.584H595.122H593.298L588.647 950.967L560.768 947.293C554.084 945.379 547.165 944.411 540.212 944.415C535.365 944.412 530.53 944.877 525.772 945.803H525.412C522.046 945.648 518.423 945.391 514.389 945.006C512.693 944.646 510.997 944.209 509.25 943.798C504.062 942.287 498.716 941.382 493.319 941.1H486.202C483.376 941.1 480.883 941.1 478.494 941.255C472.507 940.741 467.162 940.509 462.203 940.509C454.294 940.445 446.4 941.185 438.641 942.719C430.873 941.186 422.97 940.446 415.053 940.509C410.094 940.509 404.775 940.741 398.763 941.255C396.45 941.255 393.958 941.1 391.054 941.1H383.911C378.527 941.329 373.188 942.192 368.006 943.67C366.31 944.081 364.614 944.518 362.867 944.878C358.833 945.263 355.159 945.52 351.844 945.674H351.613C346.822 944.734 341.952 944.261 337.07 944.261C330.117 944.252 323.197 945.22 316.514 947.139L287.941 950.916L283.984 951.43C282.52 951.43 281.235 951.43 280.001 951.43C278.768 951.43 277.663 951.43 276.558 951.43C271.489 951.888 266.494 952.958 261.681 954.616C251.943 956.158 243.875 957.674 236.346 959.395C227.636 961.374 218.771 964.354 213.221 972.679C211.251 975.486 210.341 978.9 210.651 982.315C210.892 984.451 211.666 986.492 212.9 988.252C214.135 990.012 215.791 991.433 217.717 992.387C223.165 999.196 231.515 1001.56 239.789 1003.05L261.938 1007.08C263.377 1007.47 265.227 1007.91 267.077 1008.27C268.927 1008.63 270.494 1008.78 272.087 1008.96L285.192 1011.35C288.264 1011.77 291.275 1012.55 294.159 1013.69C295.882 1014.52 297.54 1015.48 299.118 1016.57C300.557 1017.52 302.073 1018.47 303.718 1019.37C312.294 1023.71 321.839 1025.78 331.442 1025.38C335.656 1025.38 339.87 1025.15 343.904 1024.92H345.831C353.54 1024.48 361.608 1024.27 369.471 1024.27H372.04C377.436 1024.27 387.2 1027.1 397.555 1030.03C411.225 1034.09 426.693 1038.48 438.949 1038.48V1038.48Z" fill="url(#paint4_linear_4_151)"/>
<path d="M216.407 977.099C216.638 979.18 218.694 980.336 220.749 981.081C224.706 986.734 232.543 988.507 239.507 989.663L262.092 993.441C263.737 993.826 265.381 994.186 267.051 994.468C268.722 994.751 270.289 994.905 271.908 995.085L285.32 997.32C288.971 997.757 292.559 998.619 296.009 999.89C299.555 1001.35 302.716 1003.64 306.133 1005.36C317.876 1011.27 331.828 1010.24 344.829 1009.6C353.737 1009.16 362.653 1008.96 371.578 1009.01C385.684 1009.01 418.317 1021.86 438.847 1021.86C459.377 1021.86 491.983 1009.01 506.09 1009.01C514.86 1009.01 523.605 1009.21 532.324 1009.6C545.429 1010.24 559.304 1011.27 571.021 1005.36C574.464 1003.64 577.598 1001.35 581.144 999.89C584.596 998.622 588.183 997.76 591.833 997.32L605.246 995.085C606.865 994.905 608.509 994.725 610.102 994.468C611.695 994.211 613.417 993.826 615.061 993.441L637.647 989.663C644.61 988.507 652.473 986.734 656.404 981.081C658.46 980.336 660.515 979.18 660.772 977.099C660.799 975.775 660.342 974.487 659.488 973.476C655.299 967.694 647.771 965.613 640.782 964.174C632.303 962.401 623.746 960.988 615.087 959.755C610.602 958.297 605.963 957.365 601.263 956.98C599.619 956.98 598 956.98 596.381 956.98H593.992L588.673 956.337L560.1 952.869C549.489 950.031 538.382 949.566 527.571 951.507C527.108 951.507 526.646 951.635 526.183 951.712C522.021 951.558 517.858 951.275 513.695 950.916C506.989 949.605 500.206 947.447 493.474 947.37C488.515 947.37 483.53 947.216 478.571 947.37C465.248 946.029 451.804 946.522 438.615 948.834H438.436C425.247 946.522 411.803 946.029 398.48 947.37C393.521 947.139 388.562 947.216 383.577 947.37C376.845 947.37 370.087 949.605 363.355 950.916C359.193 951.275 355.03 951.558 350.868 951.712C350.405 951.712 349.943 951.712 349.506 951.507C338.686 949.566 327.571 950.031 316.951 952.869V952.869L288.378 956.337H287.761L283.085 956.903C280.663 956.761 278.235 956.761 275.813 956.903C271.105 957.286 266.457 958.217 261.964 959.678C253.382 960.911 244.825 962.247 236.269 964.097C229.28 965.536 221.752 967.617 217.563 973.399C216.724 974.441 216.311 975.764 216.407 977.099V977.099Z" fill="#677A62"/>
<path style="mix-blend-mode:overlay" opacity="0.2" d="M284.421 964.817C284.421 981.416 329.156 996.55 441.442 996.627H442.418C554.704 996.627 599.439 981.416 599.439 964.817C599.351 961.929 598.302 959.153 596.458 956.928H594.069L588.75 956.286L560.177 952.817C549.566 949.979 538.459 949.514 527.648 951.455C527.185 951.455 526.723 951.584 526.26 951.661C522.098 951.507 517.935 951.224 513.773 950.864C507.066 949.554 500.283 947.396 493.551 947.319C488.592 947.319 483.607 947.164 478.648 947.319C465.325 945.978 451.881 946.471 438.693 948.783H438.513C425.324 946.471 411.88 945.978 398.557 947.319C393.598 947.087 388.639 947.164 383.654 947.319C376.922 947.319 370.165 949.554 363.433 950.864C359.27 951.224 355.107 951.507 350.945 951.661C350.482 951.661 350.02 951.661 349.583 951.455C338.763 949.515 327.648 949.98 317.028 952.817V952.817L288.455 956.286H287.839C285.727 958.636 284.516 961.659 284.421 964.817V964.817Z" fill="url(#paint5_linear_4_151)"/>
</g>
<defs>
<linearGradient id="paint0_linear_4_151" x1="1412" y1="230.65" x2="1412" y2="1021.65" gradientUnits="userSpaceOnUse">
<stop stop-color="#F39B31"/>
<stop offset="1" stop-color="#EE9734" stop-opacity="0"/>
</linearGradient>
<linearGradient id="paint1_linear_4_151" x1="1098.05" y1="998.194" x2="1098.05" y2="1189.2" gradientUnits="userSpaceOnUse">
<stop stop-color="#6B77CF"/>
<stop offset="1" stop-color="white"/>
</linearGradient>
<linearGradient id="paint2_linear_4_151" x1="1202.01" y1="857.978" x2="1008.47" y2="1241.09" gradientUnits="userSpaceOnUse">
<stop stop-color="#272525" stop-opacity="0"/>
<stop offset="0.7" stop-color="#272525"/>
</linearGradient>
<linearGradient id="paint3_linear_4_151" x1="1272.49" y1="760.055" x2="951.252" y2="1284.56" gradientUnits="userSpaceOnUse">
<stop stop-color="#272525" stop-opacity="0"/>
<stop offset="0.7" stop-color="#272525"/>
</linearGradient>
<linearGradient id="paint4_linear_4_151" x1="499.486" y1="860.547" x2="385.993" y2="1085.22" gradientUnits="userSpaceOnUse">
<stop stop-color="#272525" stop-opacity="0"/>
<stop offset="0.7" stop-color="#272525"/>
</linearGradient>
<linearGradient id="paint5_linear_4_151" x1="540.804" y1="803.145" x2="352.436" y2="1110.71" gradientUnits="userSpaceOnUse">
<stop stop-color="#272525" stop-opacity="0"/>
<stop offset="0.7" stop-color="#272525"/>
</linearGradient>
<clipPath id="clip0_4_151">
<rect width="1920" height="1200" fill="white"/>
</clipPath>
</defs>
</svg>
