<svg width="2045" height="1294" viewBox="0 0 2045 1294" fill="none" xmlns="http://www.w3.org/2000/svg">
<g clip-path="url(#clip0_5_250)">
<path d="M1462.01 1119.29C1656.31 1119.29 1813.82 961.666 1813.82 767.223C1813.82 572.78 1656.31 415.153 1462.01 415.153C1267.71 415.153 1110.2 572.78 1110.2 767.223C1110.2 961.666 1267.71 1119.29 1462.01 1119.29Z" fill="url(#paint0_linear_5_250)"/>
<path d="M738.113 1377.7H-565.948C-494.003 1324.54 -373.237 1233.81 -277.961 1162.76C-247.744 1140.2 -220.071 1119.6 -197.331 1102.77C-160.074 1075.2 -122.636 1047.5 -81.7046 1025.68C-62.0995 1015.28 -41.6979 1006.23 -22.915 994.334C17.323 968.871 48.3623 931.202 86.4162 902.655C124.47 874.108 175.808 854.76 219.644 873.517C227.391 876.919 234.706 881.232 241.433 886.365C253.307 895.671 264.401 905.932 274.605 917.044L435.223 1082.85C488.017 1137.41 541.976 1190.79 597.1 1242.98C660.001 1302.34 738.113 1377.7 738.113 1377.7V1377.7Z" fill="#A19974"/>
<path d="M-20.5868 1250.49C-108.746 1333.95 -218.437 1439.78 -218.437 1439.78H1613.11C1480.27 1341.5 1228.26 1152 1095.41 1053.67C1043.05 1014.95 990.477 976.071 932.946 945.52C905.401 930.899 876.752 918.206 850.414 901.504C793.886 865.532 750.205 812.678 696.811 772.542C643.417 732.407 571.189 705.299 509.676 731.611C479.305 744.612 455.46 768.945 432.592 792.687L206.94 1025.58C132.734 1102.21 56.8915 1177.18 -20.5868 1250.49V1250.49Z" fill="#AEA680"/>
<path d="M2290.72 1385.92H986.632C1058.58 1332.76 1179.34 1242.03 1274.65 1170.98C1304.86 1148.42 1332.51 1127.82 1355.25 1111.01C1392.51 1083.41 1429.97 1055.72 1470.88 1033.93C1490.51 1023.52 1510.91 1014.48 1529.67 1002.58C1569.88 977.038 1600.92 939.37 1639.05 910.771C1677.18 882.173 1728.44 862.876 1772.25 881.634C1780 885.036 1787.31 889.348 1794.04 894.481C1805.91 903.787 1817.01 914.048 1827.21 925.161L1987.83 1090.87C2040.62 1145.41 2094.58 1198.78 2149.71 1251C2212.61 1310.45 2290.72 1385.92 2290.72 1385.92V1385.92Z" fill="#AEA680"/>
<path d="M2044.74 971.506V1076.65H1047.4C1051.02 1076.21 1054.83 1075.7 1058.71 1075.18H0.364258V986.255C29.091 984.173 58.3317 982.169 89.4223 980.345H90.964C132.667 972.791 175.577 965.211 204.406 960.149C225.45 956.449 246.546 952.749 269.62 949.871C280.669 948.458 292.18 947.301 302.74 945.683C325.429 942.24 342.901 937.203 364.408 933.349C385.914 929.495 414.821 926.951 439.514 929.469C449.921 930.639 460.227 932.58 470.347 935.276L560.947 957.374C590.719 964.671 621.158 971.823 652.266 978.829C680.839 985.253 715.116 993.089 727.167 995.865L749.983 997.715C761.88 995.145 774.085 992.576 786.958 990.52C797.416 988.798 808.311 987.334 818.332 985.381C839.787 981.193 856.36 974.949 876.71 970.247C897.06 965.545 924.451 962.333 947.807 965.442C957.8 966.906 967.633 969.306 977.177 972.611L985.938 975.386C985.322 973.125 985.399 971.737 987.3 973.33C992.08 977.364 1129.29 1017.88 1206.09 1034.15L1281.02 1039.88C1307.46 1039.88 1335.36 1038.34 1360.85 1036.41C1370.82 1035.25 1380.94 1034.18 1391.5 1033.22C1404.94 1031.97 1418.9 1030.89 1431.82 1029.5C1441.53 1028.34 1448.42 1027.44 1451.5 1026.93C1471.88 1024.05 1490.04 1020.66 1510.93 1017.91C1538.04 1014.39 1574.48 1012 1605.62 1014.31C1618.72 1015.37 1631.75 1017.16 1644.65 1019.68L1758.79 1040.24L1775.08 1043.14C1785.2 1044.93 1795.6 1044.28 1805.42 1041.24C1839.78 1030.4 1878.86 1018.12 1903.37 1010.41C1917.96 1005.83 1932.56 1001.29 1948.57 997.689C1956.28 995.967 1964.22 994.477 1971.54 992.55C1987.24 988.31 1999.37 982.118 2014.29 977.39C2024.18 974.234 2034.4 972.259 2044.74 971.506V971.506Z" fill="#7E8C7A"/>
<path d="M2045 1063H0V1294H2045V1063Z" fill="url(#paint1_linear_5_250)"/>
<g style="mix-blend-mode:overlay" opacity="0.3">
<path d="M574.231 1229.07C564.485 1227.37 554.534 1227.2 544.734 1228.56C542.185 1228.97 539.593 1229.04 537.025 1228.76C534.648 1228.28 532.305 1227.65 530.011 1226.86C525.514 1225.4 520.711 1225.14 516.084 1226.12C511.809 1227.52 507.35 1228.28 502.851 1228.38C498.56 1228.09 494.423 1226.73 490.209 1226.04C485.825 1225.27 481.318 1225.58 477.079 1226.94C474.907 1227.72 472.684 1228.36 470.425 1228.84C468.028 1229.16 465.6 1229.16 463.204 1228.84C453.492 1227.81 443.214 1223.7 434.015 1229.1C433.579 1229.35 433.262 1229.77 433.135 1230.26C433.007 1230.75 433.079 1231.27 433.334 1231.7C433.59 1232.14 434.008 1232.46 434.497 1232.58C434.986 1232.71 435.506 1232.64 435.942 1232.38C443.651 1227.81 453.235 1231.31 461.637 1232.38C466.07 1233.1 470.606 1232.83 474.921 1231.59C476.951 1230.97 478.929 1230.23 480.985 1229.74C483.169 1229.26 485.419 1229.14 487.64 1229.4C492.085 1229.87 496.351 1231.28 500.77 1231.97C505.021 1232.43 509.32 1232.03 513.412 1230.79C517.707 1229.35 522.299 1229.05 526.747 1229.89C531.347 1230.97 535.561 1232.85 540.366 1232.74C545.762 1232.62 551.106 1231.46 556.528 1231.38C562.135 1231.28 567.738 1231.74 573.255 1232.74C575.645 1233.21 576.672 1229.53 574.257 1229.1L574.231 1229.07Z" fill="white"/>
<path d="M538.644 1244.54C531.842 1242.68 524.73 1242.26 517.754 1243.28C510.868 1244.28 503.725 1247.83 496.684 1246.41C493.164 1245.72 489.952 1244.38 486.406 1244.02C483.066 1243.68 479.692 1243.88 476.411 1244.59C472.942 1245.34 469.731 1246.95 466.262 1247.67C463.033 1248.25 459.727 1248.25 456.498 1247.67C449.149 1246.62 441.903 1244.18 434.4 1244.85C431.985 1245.05 431.959 1248.86 434.4 1248.65C441.004 1248.06 447.402 1249.96 453.851 1251.09C456.957 1251.69 460.119 1251.95 463.281 1251.86C466.684 1251.54 470.024 1250.74 473.199 1249.47C476.492 1248.27 479.971 1247.65 483.477 1247.65C486.936 1247.78 490.356 1248.42 493.627 1249.55C500.641 1251.63 507.296 1249.55 514.182 1247.85C521.925 1245.99 530.012 1246.12 537.693 1248.21C538.18 1248.35 538.7 1248.28 539.139 1248.03C539.577 1247.78 539.898 1247.36 540.031 1246.88C540.164 1246.39 540.098 1245.87 539.848 1245.43C539.597 1244.99 539.183 1244.67 538.695 1244.54H538.644Z" fill="white"/>
<path d="M556.013 1260.98C553.264 1262.29 550.324 1263.16 547.303 1263.55C544.596 1263.6 541.897 1263.27 539.286 1262.55C534.147 1261.37 528.803 1259.98 523.612 1261.65C521.043 1262.52 518.756 1263.99 516.135 1264.61C513.655 1265.04 511.11 1264.92 508.684 1264.25C503.545 1263.12 498.406 1261.34 493.267 1262.68C492.827 1262.85 492.466 1263.18 492.254 1263.6C492.041 1264.02 491.993 1264.5 492.118 1264.96C492.243 1265.41 492.532 1265.8 492.929 1266.06C493.327 1266.31 493.804 1266.41 494.269 1266.33C499.408 1265.02 504.547 1267.48 509.686 1268.31C512.144 1268.81 514.679 1268.81 517.137 1268.31C519.678 1267.46 522.174 1266.48 524.614 1265.38C529.753 1263.6 535.226 1265.69 540.391 1266.74C543.008 1267.35 545.705 1267.54 548.382 1267.3C551.37 1266.84 554.282 1265.97 557.041 1264.73C559.277 1263.86 558.3 1260.16 556.013 1261.06V1260.98Z" fill="white"/>
<path d="M640.652 1261.27C636.675 1259.29 632.228 1258.45 627.805 1258.85C625.603 1259.03 623.439 1259.54 621.381 1260.34C619.43 1261.41 617.323 1262.18 615.137 1262.6C610.743 1262.94 606.735 1259.85 602.65 1258.72C598.154 1257.48 593.378 1257.73 589.031 1259.42C586.77 1260.32 587.747 1263.99 590.033 1263.09C594.138 1261.44 598.702 1261.33 602.881 1262.78C606.735 1264.14 610.358 1266.46 614.572 1266.43C618.786 1266.4 622.152 1263.66 626.135 1262.88C630.374 1262.08 634.76 1262.66 638.648 1264.53C640.832 1265.61 642.759 1262.32 640.575 1261.27H640.652Z" fill="white"/>
<path d="M260.832 1128.55C251.086 1126.85 241.134 1126.68 231.334 1128.04C228.786 1128.45 226.193 1128.52 223.626 1128.24C221.249 1127.76 218.906 1127.13 216.611 1126.34C212.121 1124.89 207.327 1124.64 202.71 1125.62C198.422 1127 193.956 1127.76 189.452 1127.86C185.161 1127.58 181.024 1126.21 176.81 1125.52C172.425 1124.76 167.921 1125.07 163.68 1126.42C161.513 1127.22 159.288 1127.86 157.025 1128.32C154.629 1128.64 152.201 1128.64 149.805 1128.32C140.092 1127.29 129.814 1123.18 120.616 1128.58C120.18 1128.83 119.863 1129.25 119.735 1129.74C119.607 1130.23 119.679 1130.75 119.935 1131.19C120.19 1131.62 120.609 1131.94 121.098 1132.07C121.587 1132.19 122.107 1132.12 122.543 1131.87C130.251 1127.29 139.835 1130.79 148.238 1131.87C152.67 1132.58 157.206 1132.31 161.522 1131.07C163.552 1130.48 165.53 1129.71 167.586 1129.22C169.77 1128.74 172.019 1128.62 174.241 1128.89C178.686 1129.35 182.951 1130.76 187.371 1131.46C191.621 1131.91 195.92 1131.51 200.012 1130.27C204.307 1128.83 208.902 1128.53 213.348 1129.4C217.947 1130.48 222.161 1132.33 226.966 1132.23C232.388 1132.1 237.707 1130.97 243.128 1130.86C248.737 1130.76 254.341 1131.23 259.856 1132.25C262.245 1132.69 263.273 1129.01 260.858 1128.58L260.832 1128.55Z" fill="white"/>
<path d="M225.168 1144.02C218.366 1142.17 211.254 1141.74 204.278 1142.76C197.392 1143.76 190.249 1147.34 183.208 1145.9C179.714 1145.2 176.476 1143.87 172.93 1143.51C169.59 1143.17 166.216 1143.36 162.935 1144.07C159.466 1144.82 156.254 1146.44 152.786 1147.16C149.556 1147.72 146.252 1147.72 143.022 1147.16C135.673 1146.08 128.427 1143.66 120.924 1144.3C118.509 1144.51 118.483 1148.31 120.924 1148.11C127.553 1147.52 133.926 1149.42 140.375 1150.55C143.479 1151.16 146.643 1151.42 149.805 1151.32C153.209 1151 156.549 1150.2 159.723 1148.93C163.02 1147.74 166.496 1147.12 170.001 1147.1C173.449 1147.25 176.859 1147.89 180.125 1149.01C187.14 1151.11 193.795 1149.01 200.681 1147.31C208.423 1145.45 216.51 1145.57 224.191 1147.67C224.679 1147.8 225.199 1147.74 225.637 1147.49C226.076 1147.23 226.397 1146.82 226.529 1146.33C226.662 1145.85 226.596 1145.33 226.346 1144.89C226.095 1144.45 225.681 1144.13 225.194 1143.99L225.168 1144.02Z" fill="white"/>
<path d="M242.64 1160.36C239.886 1161.69 236.936 1162.55 233.904 1162.93C231.197 1163 228.495 1162.66 225.887 1161.93C220.748 1160.75 215.404 1159.36 210.213 1161.03C207.644 1161.9 205.357 1163.37 202.736 1163.99C200.256 1164.42 197.711 1164.3 195.285 1163.63C190.146 1162.52 185.007 1160.72 179.868 1162.06C179.428 1162.23 179.067 1162.55 178.855 1162.98C178.642 1163.4 178.594 1163.88 178.719 1164.34C178.844 1164.79 179.133 1165.18 179.53 1165.44C179.928 1165.69 180.405 1165.79 180.87 1165.71C186.009 1164.4 191.148 1166.86 196.287 1167.69C198.755 1168.17 201.296 1168.17 203.764 1167.69C206.297 1166.83 208.784 1165.84 211.216 1164.73C216.354 1162.96 221.827 1165.06 227.018 1166.09C229.627 1166.7 232.313 1166.9 234.983 1166.68C237.969 1166.21 240.879 1165.34 243.642 1164.11C245.878 1163.24 244.901 1159.57 242.64 1160.44V1160.36Z" fill="white"/>
<path d="M327.253 1160.75C323.276 1158.77 318.829 1157.94 314.406 1158.33C312.204 1158.52 310.04 1159.02 307.982 1159.82C306.033 1160.9 303.926 1161.66 301.738 1162.08C297.345 1162.42 293.336 1159.33 289.251 1158.2C284.755 1156.97 279.979 1157.21 275.632 1158.9C273.371 1159.8 274.373 1163.47 276.635 1162.57C280.739 1160.92 285.303 1160.81 289.482 1162.26C293.336 1163.63 296.959 1165.94 301.173 1165.91C305.387 1165.89 308.881 1163.14 312.761 1162.37C316.995 1161.56 321.376 1162.14 325.249 1164.04C327.459 1165.09 329.386 1161.8 327.176 1160.75H327.253Z" fill="white"/>
<path d="M1469.41 1096.13C1474.32 1095.23 1479.3 1094.76 1484.29 1094.74C1489.05 1094.82 1493.8 1095.18 1498.52 1095.82C1500.8 1096.15 1503.12 1096.2 1505.41 1095.97C1507.77 1095.61 1510.09 1095.05 1512.35 1094.28C1516.71 1092.69 1521.43 1092.37 1525.97 1093.32C1530.22 1094.7 1534.65 1095.47 1539.12 1095.61C1543.36 1095.18 1547.56 1094.45 1551.69 1093.4C1555.95 1092.47 1560.38 1092.68 1564.53 1094.02C1568.72 1095.58 1573.17 1096.33 1577.64 1096.23C1587.02 1095.66 1597.81 1090.63 1606.7 1095.82C1607.13 1096.04 1607.64 1096.09 1608.11 1095.96C1608.58 1095.82 1608.98 1095.51 1609.22 1095.08C1609.47 1094.66 1609.54 1094.16 1609.42 1093.68C1609.31 1093.2 1609.01 1092.79 1608.6 1092.53C1600.69 1087.9 1591.54 1090.27 1583.08 1091.73C1578.37 1092.76 1573.49 1092.66 1568.82 1091.42C1564.64 1089.78 1560.17 1088.96 1555.67 1089.03C1551.22 1089.39 1546.96 1090.73 1542.56 1091.45C1538.25 1092.06 1533.86 1091.69 1529.72 1090.37C1525.32 1088.96 1520.65 1088.62 1516.1 1089.37C1511.19 1090.32 1506.75 1092.53 1501.66 1092.3C1498.93 1092.17 1496.24 1091.71 1493.54 1091.4C1490.84 1091.09 1487.78 1090.94 1484.9 1090.94C1479.36 1090.93 1473.83 1091.45 1468.38 1092.48C1465.99 1092.91 1467.02 1096.59 1469.41 1096.13V1096.13Z" fill="white"/>
<path d="M1311.31 1270.23C1316.22 1269.33 1321.2 1268.87 1326.19 1268.85C1330.95 1268.92 1335.7 1269.28 1340.42 1269.92C1342.7 1270.26 1345.02 1270.31 1347.31 1270.08C1349.67 1269.72 1351.99 1269.15 1354.25 1268.38C1358.61 1266.8 1363.33 1266.47 1367.87 1267.43C1372.12 1268.8 1376.55 1269.57 1381.02 1269.72C1385.26 1269.29 1389.46 1268.55 1393.59 1267.51C1397.85 1266.58 1402.28 1266.79 1406.43 1268.13C1410.62 1269.69 1415.07 1270.44 1419.54 1270.34C1428.92 1269.77 1439.71 1264.73 1448.6 1269.92C1449.03 1270.18 1449.55 1270.25 1450.04 1270.12C1450.53 1270 1450.95 1269.68 1451.21 1269.24C1451.46 1268.81 1451.53 1268.29 1451.41 1267.8C1451.28 1267.31 1450.96 1266.89 1450.53 1266.64C1442.59 1262.01 1433.44 1264.37 1425.01 1265.84C1420.3 1266.87 1415.41 1266.76 1410.75 1265.53C1406.55 1263.88 1402.08 1263.07 1397.57 1263.14C1393.12 1263.5 1388.86 1264.84 1384.46 1265.56C1380.16 1266.15 1375.77 1265.78 1371.62 1264.48C1367.22 1263.07 1362.55 1262.73 1358 1263.48C1353.09 1264.43 1348.67 1266.64 1343.56 1266.4C1340.83 1266.4 1338.16 1265.79 1335.44 1265.51C1332.72 1265.22 1329.68 1265.04 1326.81 1265.04C1321.27 1265.04 1315.75 1265.56 1310.31 1266.58C1307.89 1267.02 1308.92 1270.67 1311.31 1270.23V1270.23Z" fill="white"/>
<path d="M1529.77 1111.54C1536.58 1109.66 1543.73 1109.34 1550.68 1110.62C1557.47 1111.9 1564.15 1114.73 1571.24 1113.52C1574.81 1112.9 1578.07 1111.39 1581.72 1111.08C1585.12 1110.78 1588.54 1111.1 1591.82 1112C1595.02 1113.17 1598.29 1114.14 1601.61 1114.91C1604.81 1115.33 1608.06 1115.29 1611.25 1114.78C1618.54 1113.8 1625.69 1111.31 1633.14 1111.98C1635.71 1112.18 1635.55 1108.38 1633.14 1108.18C1626.48 1107.59 1619.98 1109.41 1613.51 1110.59C1610.29 1111.26 1607 1111.51 1603.72 1111.34C1600.27 1110.8 1596.89 1109.86 1593.65 1108.56C1587.03 1106.66 1579.99 1106.82 1573.48 1109.02C1570.02 1110.09 1566.35 1110.27 1562.81 1109.54C1559.29 1108.87 1555.85 1107.77 1552.35 1106.97C1544.56 1105.41 1536.51 1105.7 1528.84 1107.79C1528.36 1107.92 1527.94 1108.24 1527.69 1108.68C1527.44 1109.12 1527.37 1109.64 1527.51 1110.13C1527.64 1110.62 1527.96 1111.03 1528.4 1111.28C1528.84 1111.53 1529.36 1111.6 1529.85 1111.47L1529.77 1111.54Z" fill="white"/>
<path d="M486.664 1147.52C493.476 1145.63 500.627 1145.31 507.579 1146.59C514.362 1147.87 521.043 1150.7 528.135 1149.49C531.706 1148.88 534.97 1147.36 538.618 1147.05C542.013 1146.75 545.433 1147.07 548.716 1147.98C551.919 1149.14 555.188 1150.11 558.506 1150.88C561.701 1151.34 564.946 1151.34 568.142 1150.88C575.439 1149.9 582.608 1147.41 590.059 1148.08C592.475 1148.29 592.475 1144.48 590.059 1144.28C583.379 1143.69 576.904 1145.51 570.403 1146.69C567.186 1147.36 563.895 1147.61 560.613 1147.44C557.169 1146.9 553.798 1145.97 550.566 1144.66C543.944 1142.76 536.899 1142.92 530.37 1145.13C526.916 1146.19 523.248 1146.37 519.707 1145.64C516.187 1144.97 512.769 1143.87 509.249 1143.07C501.455 1141.52 493.405 1141.8 485.739 1143.89C485.251 1144.03 484.837 1144.35 484.586 1144.78C484.336 1145.22 484.27 1145.74 484.403 1146.23C484.535 1146.72 484.856 1147.13 485.295 1147.38C485.733 1147.63 486.253 1147.7 486.741 1147.57L486.664 1147.52Z" fill="white"/>
<path d="M543.552 1124.08C550.356 1122.2 557.498 1121.88 564.442 1123.16C571.225 1124.44 577.906 1127.29 584.998 1126.06C588.543 1125.44 591.832 1123.95 595.455 1123.64C598.848 1123.34 602.268 1123.64 605.553 1124.54C608.757 1125.7 612.026 1126.67 615.343 1127.45C618.538 1127.91 621.783 1127.91 624.979 1127.45C632.302 1126.45 639.445 1123.98 646.896 1124.62C649.312 1124.83 649.312 1121.02 646.896 1120.82C640.216 1120.23 633.74 1122.08 627.24 1123.26C624.021 1123.92 620.732 1124.17 617.45 1124C614.009 1123.45 610.64 1122.52 607.403 1121.23C600.784 1119.32 593.738 1119.47 587.207 1121.67C583.755 1122.75 580.084 1122.92 576.544 1122.18C573.024 1121.51 569.606 1120.41 566.086 1119.61C558.294 1118.05 550.244 1118.32 542.575 1120.41C542.088 1120.54 541.675 1120.87 541.427 1121.31C541.179 1121.75 541.116 1122.27 541.252 1122.76C541.388 1123.25 541.713 1123.66 542.154 1123.91C542.595 1124.15 543.116 1124.22 543.603 1124.08H543.552Z" fill="white"/>
<path d="M1286.93 1246.98C1293.74 1245.12 1300.89 1244.8 1307.84 1246.05C1314.63 1247.34 1321.31 1250.19 1328.4 1248.98C1331.94 1248.37 1335.23 1246.85 1338.86 1246.54C1342.25 1246.25 1345.67 1246.55 1348.95 1247.44C1352.15 1248.62 1355.42 1249.59 1358.74 1250.37C1361.95 1250.82 1365.2 1250.82 1368.41 1250.37C1375.7 1249.37 1382.85 1246.9 1390.3 1247.54C1392.87 1247.78 1392.71 1243.97 1390.3 1243.74C1383.64 1243.18 1377.14 1245 1370.64 1246.31C1367.43 1246.98 1364.15 1247.23 1360.88 1247.06C1357.43 1246.51 1354.05 1245.58 1350.8 1244.28C1344.19 1242.38 1337.15 1242.54 1330.63 1244.74C1327.18 1245.81 1323.51 1245.99 1319.97 1245.26C1316.45 1244.59 1313.01 1243.49 1309.49 1242.69C1301.7 1241.13 1293.66 1241.42 1286 1243.51C1285.56 1243.68 1285.2 1244.01 1284.99 1244.43C1284.78 1244.85 1284.73 1245.33 1284.85 1245.79C1284.98 1246.24 1285.27 1246.63 1285.66 1246.89C1286.06 1247.14 1286.54 1247.24 1287 1247.16L1286.93 1246.98Z" fill="white"/>
<path d="M779.584 1250.89C786.4 1249.03 793.546 1248.71 800.499 1249.96C807.283 1251.24 813.964 1254.1 821.055 1252.89C824.627 1252.27 827.89 1250.76 831.539 1250.45C834.931 1250.15 838.349 1250.46 841.637 1251.35C844.835 1252.53 848.105 1253.51 851.427 1254.28C854.629 1254.68 857.872 1254.64 861.062 1254.15C868.359 1253.15 875.503 1250.68 882.954 1251.32C885.395 1251.55 885.369 1247.75 882.954 1247.52C876.299 1246.95 869.798 1248.78 863.298 1249.96C860.089 1250.63 856.807 1250.88 853.533 1250.71C850.082 1250.16 846.703 1249.23 843.461 1247.93C836.848 1246.02 829.81 1246.19 823.291 1248.39C819.837 1249.46 816.168 1249.64 812.627 1248.91C809.107 1248.24 805.664 1247.13 802.17 1246.34C794.375 1244.78 786.326 1245.06 778.659 1247.16C778.219 1247.33 777.858 1247.66 777.646 1248.08C777.433 1248.5 777.385 1248.98 777.51 1249.44C777.635 1249.89 777.924 1250.28 778.321 1250.54C778.719 1250.79 779.196 1250.89 779.661 1250.81L779.584 1250.89Z" fill="white"/>
<path d="M193.538 1248.21C200.341 1246.33 207.484 1246.01 214.427 1247.29C221.211 1248.57 227.891 1251.42 234.983 1250.22C238.529 1249.6 241.818 1248.08 245.441 1247.65C248.834 1247.35 252.252 1247.66 255.539 1248.55C258.736 1249.72 262.006 1250.69 265.329 1251.45C268.524 1251.91 271.769 1251.91 274.964 1251.45C282.287 1250.45 289.43 1247.98 296.882 1248.62C299.451 1248.83 299.297 1245.03 296.882 1244.82C290.227 1244.26 283.726 1246.08 277.225 1247.26C274.017 1247.93 270.735 1248.18 267.461 1248.01C263.988 1247.45 260.591 1246.49 257.338 1245.16C250.716 1243.25 243.674 1243.41 237.142 1245.59C233.701 1246.68 230.037 1246.87 226.504 1246.13C222.958 1245.44 219.541 1244.36 216.02 1243.56C208.226 1242.01 200.177 1242.29 192.51 1244.38C192.062 1244.55 191.692 1244.88 191.475 1245.3C191.259 1245.73 191.21 1246.22 191.34 1246.68C191.469 1247.14 191.767 1247.54 192.175 1247.79C192.582 1248.04 193.069 1248.13 193.538 1248.03V1248.21Z" fill="white"/>
<path d="M1485.6 1128.01C1488.35 1129.25 1491.25 1130.11 1494.23 1130.58C1496.91 1130.82 1499.61 1130.63 1502.22 1130.02C1507.36 1128.96 1512.76 1126.88 1518 1128.66C1520.57 1129.5 1522.86 1130.99 1525.48 1131.58C1527.94 1132.09 1530.49 1132.09 1532.95 1131.58C1538.09 1130.76 1543.23 1128.3 1548.37 1129.61C1548.84 1129.68 1549.31 1129.59 1549.71 1129.33C1550.11 1129.08 1550.4 1128.69 1550.52 1128.23C1550.65 1127.78 1550.6 1127.3 1550.39 1126.87C1550.17 1126.45 1549.81 1126.13 1549.37 1125.96C1544.23 1124.62 1539.1 1126.39 1533.96 1127.52C1531.52 1128.19 1528.97 1128.32 1526.48 1127.88C1523.95 1127.03 1521.46 1126.04 1519.03 1124.93C1513.89 1123.18 1508.47 1124.65 1503.33 1125.83C1500.73 1126.55 1498.04 1126.88 1495.34 1126.83C1492.31 1126.45 1489.35 1125.58 1486.6 1124.26C1484.34 1123.36 1483.34 1127.04 1485.6 1127.94V1128.01Z" fill="white"/>
<path d="M1601.17 1205.33C1603.92 1206.57 1606.83 1207.43 1609.81 1207.9C1612.48 1208.12 1615.18 1207.93 1617.8 1207.33C1622.94 1206.28 1628.33 1204.2 1633.58 1205.97C1636.14 1206.82 1638.43 1208.28 1641.05 1208.9C1643.52 1209.39 1646.06 1209.39 1648.53 1208.9C1653.67 1208.08 1658.81 1205.61 1663.95 1206.92C1664.42 1207.01 1664.9 1206.93 1665.31 1206.68C1665.72 1206.43 1666.01 1206.03 1666.14 1205.57C1666.27 1205.11 1666.23 1204.62 1666.01 1204.19C1665.79 1203.77 1665.42 1203.44 1664.97 1203.27C1659.71 1201.94 1654.7 1203.71 1649.56 1204.84C1647.12 1205.51 1644.57 1205.63 1642.08 1205.2C1639.55 1204.34 1637.06 1203.36 1634.63 1202.24C1629.49 1200.5 1624.07 1201.96 1618.93 1203.14C1616.18 1204.03 1613.29 1204.36 1610.42 1204.11C1607.54 1203.86 1604.75 1203.03 1602.2 1201.68C1599.91 1200.78 1598.94 1204.45 1601.2 1205.35L1601.17 1205.33Z" fill="white"/>
<path d="M1769.89 1241.53C1772.65 1242.77 1775.56 1243.63 1778.54 1244.1C1781.22 1244.34 1783.92 1244.15 1786.54 1243.54C1791.67 1242.48 1797.07 1240.4 1802.31 1242.17C1804.75 1243.28 1807.25 1244.26 1809.79 1245.1C1812.25 1245.6 1814.78 1245.6 1817.24 1245.1C1822.38 1244.28 1827.52 1241.81 1832.66 1243.13C1833.12 1243.2 1833.6 1243.11 1834 1242.85C1834.4 1242.6 1834.68 1242.21 1834.81 1241.75C1834.93 1241.3 1834.89 1240.81 1834.67 1240.39C1834.46 1239.97 1834.1 1239.65 1833.66 1239.48C1828.52 1238.14 1823.38 1239.91 1818.24 1241.04C1815.82 1241.71 1813.27 1241.84 1810.79 1241.4C1808.22 1240.79 1805.86 1239.32 1803.31 1238.45C1798.18 1236.7 1792.78 1238.17 1787.64 1239.35C1784.9 1240.24 1782 1240.57 1779.13 1240.31C1776.26 1240.06 1773.46 1239.24 1770.91 1237.88C1768.63 1237.01 1767.65 1240.66 1769.89 1241.56V1241.53Z" fill="white"/>
<path d="M657.919 1192.76C660.67 1194 663.573 1194.86 666.553 1195.33C669.229 1195.57 671.927 1195.38 674.544 1194.77C679.683 1193.71 685.078 1191.63 690.346 1193.41C692.777 1194.51 695.265 1195.49 697.797 1196.34C700.265 1196.84 702.807 1196.84 705.275 1196.34C710.414 1195.51 715.552 1193.05 720.691 1194.36C721.156 1194.44 721.634 1194.34 722.031 1194.09C722.429 1193.83 722.718 1193.44 722.843 1192.99C722.967 1192.53 722.919 1192.05 722.707 1191.63C722.494 1191.2 722.133 1190.88 721.694 1190.71C716.426 1189.37 711.416 1191.14 706.277 1192.28C703.841 1192.95 701.288 1193.07 698.799 1192.64C696.266 1191.78 693.779 1190.79 691.348 1189.68C686.209 1187.93 680.813 1189.4 675.674 1190.58C672.926 1191.47 670.027 1191.8 667.149 1191.54C664.272 1191.29 661.474 1190.47 658.921 1189.11C656.66 1188.22 655.658 1191.89 657.919 1192.79V1192.76Z" fill="white"/>
<path d="M344.854 1188.86C347.605 1190.09 350.508 1190.96 353.487 1191.43C356.164 1191.66 358.862 1191.47 361.479 1190.86C366.617 1189.81 372.013 1187.73 377.255 1189.5C379.825 1190.35 382.111 1191.84 384.732 1192.43C387.199 1192.93 389.742 1192.93 392.209 1192.43C397.348 1191.61 402.487 1189.14 407.626 1190.45C408.095 1190.54 408.582 1190.46 408.989 1190.21C409.396 1189.96 409.694 1189.56 409.824 1189.1C409.954 1188.64 409.905 1188.15 409.688 1187.72C409.472 1187.3 409.102 1186.97 408.654 1186.8C403.515 1185.47 398.376 1187.24 393.237 1188.37C390.811 1189.04 388.266 1189.16 385.786 1188.73C383.216 1188.11 380.852 1186.65 378.309 1185.77C373.17 1184.03 367.774 1185.49 362.635 1186.67C359.89 1187.56 356.996 1187.89 354.123 1187.64C351.249 1187.39 348.456 1186.56 345.907 1185.21C343.621 1184.31 342.644 1187.98 344.905 1188.88L344.854 1188.86Z" fill="white"/>
<path d="M1139.05 1227.35C1141.81 1228.59 1144.73 1229.45 1147.71 1229.92C1150.39 1230.15 1153.09 1229.96 1155.7 1229.35C1160.84 1228.3 1166.24 1226.22 1171.48 1227.99C1173.91 1229.09 1176.4 1230.07 1178.93 1230.92C1181.4 1231.42 1183.94 1231.42 1186.41 1230.92C1191.55 1230.1 1196.69 1227.63 1201.83 1228.94C1202.29 1229.02 1202.77 1228.92 1203.17 1228.67C1203.56 1228.42 1203.85 1228.03 1203.98 1227.57C1204.1 1227.12 1204.05 1226.63 1203.84 1226.21C1203.63 1225.79 1203.27 1225.46 1202.83 1225.29C1197.56 1223.96 1192.55 1225.73 1187.41 1226.86C1184.98 1227.53 1182.44 1227.65 1179.96 1227.22C1177.39 1226.6 1175.03 1225.14 1172.48 1224.27C1167.34 1222.52 1161.95 1223.98 1156.81 1225.16C1154.06 1226.05 1151.17 1226.38 1148.3 1226.13C1145.42 1225.88 1142.63 1225.05 1140.08 1223.7C1137.79 1222.8 1136.82 1226.47 1139.05 1227.37V1227.35Z" fill="white"/>
<path d="M755.405 1231C758.156 1232.23 761.059 1233.1 764.038 1233.57C766.715 1233.8 769.413 1233.61 772.029 1233C777.168 1231.97 782.564 1229.87 787.806 1231.64C790.376 1232.49 792.662 1233.98 795.283 1234.57C797.75 1235.07 800.293 1235.07 802.76 1234.57C807.899 1233.75 813.038 1231.28 818.177 1232.59C818.642 1232.67 819.119 1232.57 819.517 1232.32C819.914 1232.07 820.204 1231.67 820.329 1231.22C820.453 1230.76 820.405 1230.28 820.193 1229.86C819.98 1229.44 819.619 1229.11 819.179 1228.94C813.912 1227.61 808.901 1229.38 803.762 1230.51C801.327 1231.18 798.774 1231.3 796.285 1230.87C793.752 1230.01 791.265 1229.03 788.834 1227.91C783.695 1226.17 778.273 1227.63 773.16 1228.81C770.411 1229.7 767.513 1230.03 764.635 1229.78C761.758 1229.53 758.96 1228.7 756.407 1227.35C754.146 1226.48 753.144 1230.15 755.405 1231.02V1231Z" fill="white"/>
<path d="M447.607 1123.18C450.361 1124.41 453.264 1125.27 456.241 1125.75C458.919 1125.98 461.616 1125.78 464.232 1125.16C469.371 1124.13 474.767 1122.03 480.008 1123.8C482.448 1124.91 484.944 1125.9 487.486 1126.75C489.954 1127.24 492.494 1127.24 494.963 1126.75C500.102 1125.93 505.241 1123.49 510.38 1124.8C512.744 1125.39 513.771 1121.72 511.408 1121.13C506.14 1119.79 501.13 1121.59 495.991 1122.69C493.564 1123.36 491.019 1123.49 488.539 1123.05C485.97 1122.46 483.606 1120.97 481.062 1120.12C475.923 1118.35 470.527 1119.82 465.388 1121.02C462.784 1121.73 460.094 1122.06 457.397 1122.03C454.37 1121.62 451.424 1120.76 448.661 1119.46C446.374 1118.56 445.398 1122.23 447.659 1123.1L447.607 1123.18Z" fill="white"/>
<path d="M1403.89 1127.88C1407.7 1126.06 1411.98 1125.47 1416.15 1126.19C1420.23 1126.93 1423.85 1129.73 1427.97 1129.79C1432.08 1129.84 1435.67 1127.58 1439.43 1126.24C1443.67 1124.65 1448.36 1124.72 1452.56 1126.45C1454.84 1127.34 1455.82 1123.67 1453.58 1122.77C1449.23 1121.07 1444.45 1120.82 1439.94 1122.05C1435.88 1123.21 1431.85 1126.32 1427.45 1125.96C1425.36 1125.54 1423.34 1124.82 1421.46 1123.8C1419.34 1122.94 1417.1 1122.4 1414.81 1122.21C1410.39 1121.81 1405.94 1122.65 1401.96 1124.62C1399.75 1125.67 1401.68 1128.96 1403.86 1127.88H1403.89Z" fill="white"/>
<path d="M1286.7 1086.67C1290.5 1084.82 1294.79 1084.22 1298.95 1084.95C1303.04 1085.69 1306.66 1088.49 1310.77 1088.55C1314.88 1088.6 1318.48 1086.36 1322.23 1085C1326.48 1083.45 1331.16 1083.52 1335.36 1085.21C1337.65 1086.1 1338.63 1082.43 1336.36 1081.53C1332.02 1079.84 1327.24 1079.6 1322.75 1080.84C1318.69 1081.97 1314.65 1085.08 1310.26 1084.72C1308.17 1084.3 1306.15 1083.58 1304.27 1082.56C1302.14 1081.71 1299.9 1081.17 1297.62 1080.97C1293.19 1080.57 1288.75 1081.41 1284.77 1083.38C1282.58 1084.43 1284.51 1087.72 1286.7 1086.67V1086.67Z" fill="white"/>
<path d="M1467.02 1246.98C1470.82 1245.13 1475.1 1244.54 1479.25 1245.28C1483.34 1246.03 1486.96 1248.83 1491.1 1248.86C1495.23 1248.88 1498.81 1246.67 1502.56 1245.31C1506.81 1243.75 1511.49 1243.83 1515.69 1245.54C1517.97 1246.41 1518.95 1242.74 1516.69 1241.87C1512.35 1240.16 1507.57 1239.9 1503.07 1241.15C1499.01 1242.3 1494.95 1245.41 1490.58 1245.05C1488.49 1244.63 1486.48 1243.9 1484.6 1242.89C1482.46 1242.03 1480.21 1241.49 1477.92 1241.28C1473.49 1240.89 1469.05 1241.73 1465.07 1243.69C1462.88 1244.77 1464.79 1248.03 1467 1246.98H1467.02Z" fill="white"/>
<path d="M1759.15 1173.88C1764.05 1172.96 1769.03 1172.49 1774.02 1172.46C1778.78 1172.54 1783.54 1172.9 1788.26 1173.54C1790.54 1173.88 1792.85 1173.93 1795.14 1173.7C1797.52 1173.36 1799.85 1172.8 1802.11 1172C1806.47 1170.43 1811.19 1170.1 1815.73 1171.05C1819.98 1172.43 1824.41 1173.2 1828.88 1173.34C1833.11 1172.92 1837.3 1172.18 1841.42 1171.13C1845.68 1170.21 1850.11 1170.42 1854.27 1171.75C1858.46 1173.31 1862.9 1174.06 1867.37 1173.95C1876.78 1173.39 1887.54 1168.35 1896.43 1173.54C1896.87 1173.8 1897.39 1173.87 1897.88 1173.74C1898.37 1173.62 1898.78 1173.3 1899.04 1172.86C1899.3 1172.43 1899.37 1171.91 1899.24 1171.42C1899.11 1170.93 1898.8 1170.51 1898.36 1170.25C1890.42 1165.63 1881.3 1167.99 1872.84 1169.46C1868.14 1170.5 1863.24 1170.4 1858.58 1169.15C1854.39 1167.5 1849.91 1166.69 1845.4 1166.76C1840.96 1167.12 1836.69 1168.46 1832.32 1169.18C1828.01 1169.78 1823.62 1169.41 1819.48 1168.1C1815.08 1166.69 1810.41 1166.35 1805.86 1167.09C1800.95 1168.05 1796.53 1170.25 1791.42 1170.02C1788.69 1170.02 1786.02 1169.43 1783.32 1169.15C1780.63 1168.87 1777.57 1168.69 1774.66 1168.66C1769.13 1168.67 1763.61 1169.19 1758.17 1170.2C1755.75 1170.64 1756.78 1174.31 1759.17 1173.88H1759.15Z" fill="white"/>
<path d="M1734.63 1150.62C1741.45 1148.74 1748.6 1148.42 1755.55 1149.7C1762.33 1150.98 1769.01 1153.81 1776.1 1152.6C1779.68 1151.99 1782.94 1150.47 1786.59 1150.03C1789.98 1149.74 1793.4 1150.05 1796.69 1150.96C1799.89 1152.12 1803.16 1153.09 1806.48 1153.86C1809.67 1154.32 1812.92 1154.32 1816.11 1153.86C1823.41 1152.89 1830.55 1150.39 1838 1151.06C1840.57 1151.27 1840.42 1147.46 1838 1147.26C1831.35 1146.67 1824.85 1148.49 1818.37 1149.67C1815.15 1150.34 1811.86 1150.59 1808.58 1150.42C1805.13 1149.88 1801.75 1148.95 1798.51 1147.64C1791.9 1145.74 1784.86 1145.9 1778.34 1148.11C1774.89 1149.17 1771.22 1149.35 1767.68 1148.62C1764.16 1147.95 1760.71 1146.85 1757.22 1146.05C1749.42 1144.5 1741.37 1144.78 1733.71 1146.87C1733.22 1147.01 1732.81 1147.33 1732.56 1147.77C1732.31 1148.2 1732.24 1148.72 1732.37 1149.21C1732.5 1149.7 1732.83 1150.11 1733.26 1150.36C1733.7 1150.61 1734.22 1150.68 1734.71 1150.55L1734.63 1150.62Z" fill="white"/>
<path d="M1914.73 1150.6C1918.53 1148.76 1922.82 1148.17 1926.98 1148.9C1931.07 1149.65 1934.69 1152.45 1938.8 1152.5C1942.91 1152.55 1946.51 1150.29 1950.26 1148.95C1954.51 1147.37 1959.2 1147.44 1963.39 1149.16C1965.68 1150.03 1966.66 1146.38 1964.4 1145.49C1960.05 1143.79 1955.28 1143.53 1950.78 1144.77C1946.72 1145.92 1942.66 1149.03 1938.29 1148.67C1936.2 1148.26 1934.18 1147.53 1932.3 1146.51C1930.18 1145.65 1927.93 1145.11 1925.65 1144.92C1921.22 1144.53 1916.78 1145.36 1912.8 1147.34C1910.62 1148.39 1912.54 1151.68 1914.73 1150.6V1150.6Z" fill="white"/>
<path d="M640.652 1103.29C644.449 1101.46 648.729 1100.86 652.883 1101.6C656.968 1102.34 660.591 1105.14 664.728 1105.2C668.865 1105.25 672.437 1102.99 676.188 1101.65C680.434 1100.06 685.124 1100.13 689.318 1101.86C691.579 1102.73 692.581 1099.05 690.32 1098.18C685.976 1096.48 681.201 1096.23 676.702 1097.46C672.642 1098.62 668.582 1101.73 664.214 1101.37C662.121 1100.95 660.103 1100.23 658.227 1099.21C656.093 1098.34 653.841 1097.81 651.547 1097.62C647.123 1097.22 642.677 1098.06 638.699 1100.03C636.515 1101.08 638.417 1104.37 640.626 1103.29H640.652Z" fill="white"/>
</g>
<path style="mix-blend-mode:overlay" opacity="0.2" d="M1172.61 1255.43C1193.35 1255.43 1219.79 1247.93 1243.09 1241.3C1260.69 1236.16 1277.34 1231.56 1286.49 1231.51H1290.6C1303.73 1231.51 1317.04 1231.87 1330.15 1232.59L1333.41 1232.77C1340.32 1233.16 1347.46 1233.54 1354.68 1233.54C1368.05 1233.54 1385.52 1232.38 1402.01 1223.26C1404.76 1221.77 1407.33 1220.1 1409.72 1218.51C1412.43 1216.67 1415.27 1215.01 1418.2 1213.55C1423.12 1211.66 1428.24 1210.33 1433.46 1209.59L1455.77 1205.56C1458.52 1205.25 1461.47 1204.87 1464.43 1204.33C1467.38 1203.79 1470.77 1202.99 1473.21 1202.37L1511.01 1195.49C1525.14 1192.92 1539.28 1188.88 1548.65 1177.27C1551.94 1175.65 1554.76 1173.23 1556.87 1170.23C1558.97 1167.23 1560.28 1163.75 1560.68 1160.11C1561.19 1154.26 1559.6 1148.43 1556.18 1143.66C1546.78 1129.45 1531.7 1124.39 1516.79 1121.02C1503.95 1118.07 1490.22 1115.47 1473.63 1112.85C1465.42 1110.03 1456.91 1108.21 1448.26 1107.43C1446.49 1107.43 1444.69 1107.25 1442.77 1107.25C1441.43 1107.25 1440.2 1107.25 1438.73 1107.25C1437.81 1107.25 1436.73 1107.25 1435.62 1107.25L1427.68 1106.4L1380.15 1100.11C1360.73 1094.55 1340.28 1093.67 1320.46 1097.54H1319.84C1314.09 1097.31 1307.92 1096.84 1301.03 1096.2C1298.16 1095.59 1295.25 1094.87 1292.35 1094.12C1283.5 1091.55 1274.39 1090.01 1265.19 1089.55C1261.16 1089.55 1257.1 1089.42 1253.06 1089.42C1248.23 1089.42 1243.97 1089.42 1240.03 1089.7C1229.76 1088.85 1220.71 1088.44 1212.28 1088.44C1198.78 1088.34 1185.3 1089.6 1172.05 1092.19C1158.8 1089.59 1145.33 1088.34 1131.83 1088.44C1123.41 1088.44 1114.31 1088.85 1104.08 1089.7C1100.15 1089.52 1095.89 1089.42 1091.06 1089.42C1087 1089.42 1082.94 1089.42 1078.9 1089.55C1069.71 1090.01 1060.61 1091.55 1051.77 1094.12C1048.87 1094.87 1045.96 1095.59 1043.08 1096.2C1036.2 1096.87 1030.01 1097.31 1024.25 1097.54H1023.86C1003.98 1093.63 983.447 1094.51 963.97 1100.11L915.381 1106.4L908.597 1107.3C906.028 1107.17 903.921 1107.1 901.814 1107.1C899.707 1107.1 897.857 1107.1 895.981 1107.28C887.332 1108.06 878.808 1109.88 870.595 1112.7C853.97 1115.27 840.224 1117.84 827.376 1120.87C812.525 1124.24 797.442 1129.3 788.012 1143.53C784.609 1148.31 783.023 1154.14 783.541 1159.98C783.945 1163.61 785.259 1167.09 787.36 1170.09C789.462 1173.08 792.284 1175.5 795.566 1177.12C804.868 1188.73 819.077 1192.76 833.209 1195.33L871.006 1202.22C873.447 1202.84 876.582 1203.61 879.871 1204.2C882.748 1204.71 885.678 1205.1 888.427 1205.41L910.756 1209.44C916.03 1210.17 921.203 1211.51 926.173 1213.42C929.088 1214.88 931.903 1216.53 934.6 1218.36C937.17 1219.95 939.739 1221.62 942.463 1223.13C958.908 1232.21 976.38 1233.41 989.741 1233.41C996.936 1233.41 1004.1 1233.03 1011.02 1232.64L1014.25 1232.46C1027.62 1231.74 1041.18 1231.38 1054.59 1231.38H1058.81C1067.98 1231.38 1084.66 1236.16 1102.31 1241.2C1125.49 1247.88 1151.9 1255.43 1172.61 1255.43V1255.43Z" fill="url(#paint2_linear_5_250)"/>
<path d="M793.279 1150.7C793.69 1154.25 797.21 1156.25 800.705 1157.51C807.437 1167.15 820.798 1170.18 832.695 1172.16L871.237 1178.58C874.038 1179.25 876.839 1179.86 879.691 1180.33C882.543 1180.79 885.189 1181.1 887.964 1181.38L910.858 1185.18C917.08 1185.98 923.192 1187.48 929.076 1189.65C935.114 1192.22 940.485 1196.08 946.343 1199.01C966.334 1209.11 990.024 1207.33 1012.33 1206.23C1027.49 1205.48 1042.72 1205.15 1057.94 1205.23C1081.99 1205.35 1137.59 1227.32 1172.64 1227.32C1207.68 1227.32 1263.24 1205.41 1287.31 1205.23C1302.25 1205.23 1317.16 1205.56 1332.05 1206.23C1354.4 1207.33 1378.04 1209.11 1398.03 1199.01C1403.89 1196.08 1409.26 1192.17 1415.3 1189.65C1421.18 1187.48 1427.29 1185.98 1433.52 1185.18L1456.38 1181.38C1459.16 1181.1 1461.93 1180.79 1464.68 1180.33C1467.43 1179.86 1470.34 1179.25 1473.14 1178.58L1511.68 1172.16C1523.58 1170.18 1536.94 1167.15 1543.67 1157.51C1547.16 1156.25 1550.68 1154.25 1551.1 1150.7C1551.16 1148.46 1550.39 1146.27 1548.94 1144.56C1541.79 1134.69 1528.92 1131.15 1517.02 1128.68C1502.56 1125.65 1487.99 1123.26 1473.34 1121.15C1465.69 1118.68 1457.77 1117.09 1449.75 1116.4C1446.98 1116.26 1444.2 1116.26 1441.43 1116.4C1440.06 1116.4 1438.7 1116.45 1437.34 1116.55L1428.3 1115.45L1379.48 1109.54C1361.38 1104.68 1342.43 1103.88 1323.98 1107.2C1323.21 1107.35 1322.41 1107.43 1321.64 1107.53C1314.52 1107.28 1307.46 1106.79 1300.34 1106.17C1288.88 1103.94 1277.21 1100.29 1265.86 1100.13C1257.38 1100.13 1248.9 1099.9 1240.47 1100.29C1217.55 1098.52 1194.81 1098.28 1172.3 1102.86H1171.99C1149.51 1098.36 1126.77 1098.59 1103.85 1100.29C1095.42 1099.9 1086.94 1100.01 1078.47 1100.13C1066.98 1100.29 1055.34 1103.94 1043.98 1106.17C1036.87 1106.79 1029.77 1107.28 1022.68 1107.53C1021.91 1107.53 1021.11 1107.35 1020.34 1107.2C1001.9 1103.88 982.946 1104.68 964.843 1109.54L916.023 1115.45L914.97 1115.58L906.979 1116.55C894.794 1115.63 882.549 1117.22 871.006 1121.23C856.36 1123.34 841.791 1125.73 827.325 1128.76C815.402 1131.33 802.555 1134.77 795.412 1144.64C793.982 1146.33 793.224 1148.49 793.279 1150.7V1150.7Z" fill="#677A62"/>
<path style="mix-blend-mode:overlay" opacity="0.2" d="M909.291 1129.79C909.291 1158.05 985.553 1183.74 1177.03 1184.03H1178.7C1370.2 1183.87 1446.47 1158.1 1446.47 1129.79C1446.31 1124.85 1444.5 1120.11 1441.33 1116.32C1439.96 1116.32 1438.59 1116.37 1437.24 1116.48L1428.2 1115.37L1379.38 1109.46C1361.27 1104.61 1342.32 1103.81 1323.88 1107.12C1323.11 1107.28 1322.31 1107.35 1321.54 1107.46C1314.42 1107.2 1307.35 1106.71 1300.24 1106.1C1288.78 1103.86 1277.11 1100.21 1265.75 1100.06C1257.28 1100.06 1248.8 1099.83 1240.37 1100.21C1217.45 1098.44 1194.71 1098.21 1172.2 1102.78H1171.89C1149.41 1098.28 1126.67 1098.52 1103.75 1100.21C1095.32 1099.83 1086.84 1099.93 1078.36 1100.06C1066.88 1100.21 1055.24 1103.86 1043.88 1106.1C1036.76 1106.71 1029.67 1107.2 1022.58 1107.46C1021.81 1107.46 1021.01 1107.28 1020.24 1107.12C1001.79 1103.81 982.843 1104.61 964.74 1109.46L915.92 1115.37L914.867 1115.5C911.408 1119.47 909.437 1124.52 909.291 1129.79V1129.79Z" fill="url(#paint3_linear_5_250)"/>
<path style="mix-blend-mode:overlay" opacity="0.2" d="M512.949 1132.48C525.103 1132.48 540.597 1128.06 554.267 1124.18C564.544 1121.26 574.36 1118.48 579.73 1118.43H582.145C589.854 1118.43 597.562 1118.63 605.271 1119.07H607.198C611.232 1119.3 615.446 1119.53 619.66 1119.53C629.271 1119.92 638.822 1117.85 647.41 1113.52C649.029 1112.62 650.545 1111.67 651.984 1110.72C653.577 1109.64 655.242 1108.67 656.968 1107.82C659.857 1106.7 662.866 1105.92 665.936 1105.5L679.015 1103.11C680.608 1102.93 682.355 1102.73 684.154 1102.4C685.952 1102.06 687.879 1101.62 689.293 1101.24L711.441 1097.2C719.741 1095.71 728.066 1093.35 733.513 1086.54C735.44 1085.59 737.096 1084.17 738.33 1082.41C739.565 1080.65 740.338 1078.6 740.579 1076.47C740.898 1073.05 739.987 1069.62 738.01 1066.81C732.511 1058.51 723.646 1055.53 714.884 1053.55C707.382 1051.83 699.313 1050.31 689.575 1048.77C684.771 1047.11 679.784 1046.04 674.724 1045.58C673.67 1045.58 672.617 1045.58 671.486 1045.58H669.122H667.298L662.647 1044.97L634.768 1041.29C628.084 1039.38 621.165 1038.41 614.212 1038.42C609.365 1038.41 604.53 1038.88 599.772 1039.8H599.412C596.046 1039.65 592.423 1039.39 588.389 1039.01C586.693 1038.65 584.997 1038.21 583.25 1037.8C578.062 1036.29 572.716 1035.38 567.319 1035.1H560.202C557.376 1035.1 554.883 1035.1 552.494 1035.25C546.507 1034.74 541.162 1034.51 536.203 1034.51C528.294 1034.44 520.4 1035.19 512.641 1036.72C504.873 1035.19 496.97 1034.45 489.053 1034.51C484.094 1034.51 478.775 1034.74 472.763 1035.25C470.45 1035.25 467.958 1035.1 465.054 1035.1H457.911C452.527 1035.33 447.188 1036.19 442.006 1037.67C440.31 1038.08 438.614 1038.52 436.867 1038.88C432.833 1039.26 429.159 1039.52 425.844 1039.67H425.613C420.822 1038.73 415.952 1038.26 411.07 1038.26C404.117 1038.25 397.197 1039.22 390.514 1041.14L361.941 1044.92L357.984 1045.43C356.52 1045.43 355.235 1045.43 354.001 1045.43C352.768 1045.43 351.663 1045.43 350.558 1045.43C345.489 1045.89 340.494 1046.96 335.681 1048.62C325.943 1050.16 317.875 1051.67 310.346 1053.4C301.636 1055.37 292.771 1058.35 287.221 1066.68C285.251 1069.49 284.341 1072.9 284.651 1076.31C284.892 1078.45 285.666 1080.49 286.9 1082.25C288.135 1084.01 289.791 1085.43 291.717 1086.39C297.165 1093.2 305.515 1095.56 313.789 1097.05L335.938 1101.08C337.377 1101.47 339.227 1101.91 341.077 1102.27C342.927 1102.63 344.494 1102.78 346.087 1102.96L359.192 1105.35C362.264 1105.77 365.275 1106.55 368.159 1107.69C369.882 1108.52 371.54 1109.48 373.118 1110.57C374.557 1111.52 376.073 1112.47 377.718 1113.37C386.294 1117.71 395.839 1119.78 405.442 1119.38C409.656 1119.38 413.87 1119.15 417.904 1118.92H419.831C427.54 1118.48 435.608 1118.27 443.471 1118.27H446.04C451.436 1118.27 461.2 1121.1 471.555 1124.03C485.225 1128.09 500.693 1132.48 512.949 1132.48V1132.48Z" fill="url(#paint4_linear_5_250)"/>
<path d="M290.407 1071.1C290.639 1073.18 292.694 1074.34 294.75 1075.08C298.707 1080.73 306.544 1082.51 313.507 1083.66L336.093 1087.44C337.737 1087.83 339.382 1088.19 341.052 1088.47C342.722 1088.75 344.289 1088.91 345.908 1089.09L359.321 1091.32C362.972 1091.76 366.559 1092.62 370.01 1093.89C373.556 1095.35 376.716 1097.64 380.133 1099.36C391.876 1105.27 405.828 1104.24 418.83 1103.6C427.737 1103.16 436.653 1102.96 445.578 1103.01C459.684 1103.01 492.317 1115.86 512.847 1115.86C533.377 1115.86 565.984 1103.01 580.09 1103.01C588.861 1103.01 597.605 1103.21 606.324 1103.6C619.429 1104.24 633.304 1105.27 645.021 1099.36C648.464 1097.64 651.599 1095.35 655.145 1093.89C658.596 1092.62 662.183 1091.76 665.834 1091.32L679.246 1089.09C680.865 1088.91 682.509 1088.73 684.103 1088.47C685.696 1088.21 687.417 1087.83 689.062 1087.44L711.647 1083.66C718.611 1082.51 726.473 1080.73 730.405 1075.08C732.46 1074.34 734.516 1073.18 734.773 1071.1C734.799 1069.78 734.342 1068.49 733.488 1067.48C729.3 1061.69 721.771 1059.61 714.782 1058.17C706.303 1056.4 697.746 1054.99 689.087 1053.75C684.603 1052.3 679.963 1051.37 675.264 1050.98C673.619 1050.98 672 1050.98 670.382 1050.98H667.992L662.673 1050.34L634.1 1046.87C623.489 1044.03 612.383 1043.57 601.571 1045.51C601.108 1045.51 600.646 1045.64 600.183 1045.71C596.021 1045.56 591.858 1045.28 587.696 1044.92C580.989 1043.61 574.206 1041.45 567.474 1041.37C562.515 1041.37 557.53 1041.22 552.571 1041.37C539.248 1040.03 525.805 1040.52 512.616 1042.83H512.436C499.247 1040.52 485.803 1040.03 472.48 1041.37C467.521 1041.14 462.562 1041.22 457.577 1041.37C450.845 1041.37 444.088 1043.61 437.356 1044.92C433.193 1045.28 429.031 1045.56 424.868 1045.71C424.406 1045.71 423.943 1045.71 423.506 1045.51C412.686 1043.57 401.571 1044.03 390.951 1046.87V1046.87L362.378 1050.34H361.762L357.085 1050.9C354.663 1050.76 352.235 1050.76 349.814 1050.9C345.105 1051.29 340.457 1052.22 335.964 1053.68C327.382 1054.91 318.826 1056.25 310.269 1058.1C303.28 1059.54 295.752 1061.62 291.564 1067.4C290.724 1068.44 290.311 1069.76 290.407 1071.1V1071.1Z" fill="#677A62"/>
<path style="mix-blend-mode:overlay" opacity="0.2" d="M358.421 1058.82C358.421 1075.42 403.155 1090.55 515.442 1090.63H516.418C628.704 1090.63 673.439 1075.42 673.439 1058.82C673.351 1055.93 672.302 1053.15 670.458 1050.93H668.069L662.75 1050.29L634.177 1046.82C623.566 1043.98 612.459 1043.51 601.648 1045.46C601.185 1045.46 600.723 1045.58 600.26 1045.66C596.097 1045.51 591.935 1045.22 587.772 1044.86C581.066 1043.55 574.283 1041.4 567.551 1041.32C562.592 1041.32 557.607 1041.16 552.648 1041.32C539.325 1039.98 525.881 1040.47 512.692 1042.78H512.512C499.324 1040.47 485.88 1039.98 472.557 1041.32C467.598 1041.09 462.639 1041.16 457.654 1041.32C450.922 1041.32 444.164 1043.55 437.432 1044.86C433.27 1045.22 429.107 1045.51 424.945 1045.66C424.482 1045.66 424.02 1045.66 423.583 1045.46C412.763 1043.51 401.648 1043.98 391.028 1046.82V1046.82L362.455 1050.29H361.838C359.726 1052.64 358.516 1055.66 358.421 1058.82V1058.82Z" fill="url(#paint5_linear_5_250)"/>
</g>
<defs>
<linearGradient id="paint0_linear_5_250" x1="1462.01" y1="66.578" x2="1462.01" y2="1109.61" gradientUnits="userSpaceOnUse">
<stop stop-color="#F39B31"/>
<stop offset="1" stop-color="#EE9734" stop-opacity="0"/>
</linearGradient>
<linearGradient id="paint1_linear_5_250" x1="1167.75" y1="1092.44" x2="1167.75" y2="1283.24" gradientUnits="userSpaceOnUse">
<stop stop-color="#6B77CF"/>
<stop offset="1" stop-color="white"/>
</linearGradient>
<linearGradient id="paint2_linear_5_250" x1="1276.01" y1="951.978" x2="1082.47" y2="1335.09" gradientUnits="userSpaceOnUse">
<stop stop-color="#272525" stop-opacity="0"/>
<stop offset="0.7" stop-color="#272525"/>
</linearGradient>
<linearGradient id="paint3_linear_5_250" x1="1346.49" y1="854.055" x2="1025.25" y2="1378.56" gradientUnits="userSpaceOnUse">
<stop stop-color="#272525" stop-opacity="0"/>
<stop offset="0.7" stop-color="#272525"/>
</linearGradient>
<linearGradient id="paint4_linear_5_250" x1="573.486" y1="954.547" x2="459.993" y2="1179.22" gradientUnits="userSpaceOnUse">
<stop stop-color="#272525" stop-opacity="0"/>
<stop offset="0.7" stop-color="#272525"/>
</linearGradient>
<linearGradient id="paint5_linear_5_250" x1="614.804" y1="897.145" x2="426.435" y2="1204.71" gradientUnits="userSpaceOnUse">
<stop stop-color="#272525" stop-opacity="0"/>
<stop offset="0.7" stop-color="#272525"/>
</linearGradient>
<clipPath id="clip0_5_250">
<rect width="2045" height="1294" fill="white"/>
</clipPath>
</defs>
</svg>
