<svg width="1920" height="1080" viewBox="0 0 1920 1080" fill="none" xmlns="http://www.w3.org/2000/svg">
<g clip-path="url(#clip0_2_2)">
<path d="M664.113 1163.7H-639.948C-568.003 1110.54 -447.237 1019.81 -351.961 948.763C-321.744 926.203 -294.071 905.596 -271.331 888.766C-234.074 861.196 -196.636 833.497 -155.705 811.682C-136.1 801.275 -115.698 792.231 -96.915 780.334C-56.677 754.871 -25.6377 717.202 12.4162 688.655C50.4702 660.108 101.808 640.76 145.644 659.517C153.391 662.919 160.706 667.232 167.433 672.365C179.307 681.671 190.401 691.932 200.605 703.044L361.223 868.853C414.017 923.411 467.976 976.788 523.1 1028.98C586.001 1088.34 664.113 1163.7 664.113 1163.7V1163.7Z" fill="#A19974"/>
<path d="M-94.5869 1036.49C-182.746 1119.95 -292.437 1225.78 -292.437 1225.78H1539.11C1406.27 1127.5 1154.26 938.003 1021.41 839.669C969.048 800.947 916.476 762.071 858.946 731.52C831.401 716.899 802.751 704.206 776.414 687.504C719.886 651.532 676.205 598.678 622.811 558.542C569.417 518.407 497.189 491.299 435.676 517.611C405.305 530.612 381.46 554.945 358.592 578.687L132.94 811.584C58.7337 888.206 -17.1086 963.175 -94.5869 1036.49V1036.49Z" fill="#AEA680"/>
<path d="M2216.72 1171.92H912.632C984.578 1118.76 1105.34 1028.03 1200.65 956.982C1230.86 934.422 1258.51 913.815 1281.25 897.011C1318.51 869.415 1355.97 841.716 1396.88 819.926C1416.51 809.52 1436.91 800.476 1455.67 788.579C1495.88 763.038 1526.92 725.37 1565.05 696.771C1603.18 668.173 1654.44 648.876 1698.25 667.634C1706 671.035 1713.31 675.348 1720.04 680.481C1731.91 689.787 1743.01 700.048 1753.21 711.16L1913.83 876.866C1966.62 931.407 2020.58 984.784 2075.71 1037C2138.61 1096.45 2216.72 1171.92 2216.72 1171.92V1171.92Z" fill="#AEA680"/>
<path d="M1970.74 757.506V862.649H973.401C977.024 862.212 980.826 861.698 984.706 861.184H-73.6355V772.255C-44.9087 770.173 -15.6681 768.169 15.4226 766.345H16.9643C58.6669 758.791 101.577 751.211 130.407 746.149C151.451 742.449 172.546 738.749 195.62 735.871C206.669 734.458 218.18 733.301 228.741 731.683C251.429 728.24 268.901 723.203 290.408 719.349C311.914 715.495 340.821 712.951 365.514 715.469C375.921 716.639 386.228 718.58 396.348 721.276L486.947 743.374C516.719 750.671 547.159 757.823 578.266 764.829C606.839 771.253 641.116 779.089 653.167 781.865L675.984 783.715C687.88 781.145 700.085 778.576 712.959 776.52C723.416 774.798 734.311 773.334 744.332 771.381C765.787 767.193 782.36 760.949 802.71 756.247C823.061 751.545 850.451 748.333 873.808 751.442C883.8 752.906 893.633 755.306 903.177 758.611L911.939 761.386C911.322 759.125 911.399 757.737 913.301 759.33C918.08 763.364 1055.29 803.885 1132.09 820.15L1207.02 825.88C1233.46 825.88 1261.36 824.338 1286.85 822.411C1296.82 821.255 1306.94 820.175 1317.51 819.225C1330.94 817.966 1344.9 816.886 1357.82 815.499C1367.53 814.343 1374.42 813.443 1377.5 812.929C1397.88 810.052 1416.04 806.66 1436.93 803.911C1464.04 800.39 1500.48 798.001 1531.62 800.313C1544.72 801.366 1557.75 803.159 1570.65 805.684L1684.79 826.239L1701.08 829.143C1711.2 830.929 1721.6 830.277 1731.42 827.241C1765.78 816.398 1804.86 804.116 1829.37 796.408C1843.97 791.834 1858.56 787.286 1874.57 783.689C1882.28 781.967 1890.22 780.477 1897.54 778.55C1913.24 774.31 1925.37 768.118 1940.29 763.39C1950.18 760.234 1960.4 758.259 1970.74 757.506V757.506Z" fill="#7E8C7A"/>
<path d="M1924.13 848.722H-1.5874V1079.98H1924.13V848.722Z" fill="url(#paint0_linear_2_2)"/>
<g style="mix-blend-mode:overlay" opacity="0.3">
<path d="M500.231 1015.07C490.485 1013.37 480.534 1013.2 470.734 1014.56C468.185 1014.97 465.593 1015.04 463.025 1014.76C460.648 1014.28 458.305 1013.65 456.011 1012.86C451.514 1011.4 446.711 1011.14 442.084 1012.12C437.809 1013.52 433.35 1014.28 428.851 1014.38C424.56 1014.09 420.423 1012.73 416.21 1012.04C411.825 1011.27 407.318 1011.58 403.08 1012.94C400.907 1013.72 398.684 1014.36 396.425 1014.84C394.029 1015.16 391.6 1015.16 389.204 1014.84C379.492 1013.81 369.214 1009.7 360.015 1015.1C359.579 1015.35 359.262 1015.77 359.135 1016.26C359.007 1016.75 359.079 1017.27 359.334 1017.7C359.59 1018.14 360.008 1018.46 360.497 1018.58C360.986 1018.71 361.506 1018.64 361.942 1018.38C369.651 1013.81 379.235 1017.31 387.637 1018.38C392.07 1019.1 396.606 1018.83 400.921 1017.59C402.951 1016.97 404.93 1016.23 406.985 1015.74C409.169 1015.25 411.419 1015.14 413.64 1015.4C418.085 1015.87 422.351 1017.28 426.77 1017.97C431.021 1018.43 435.32 1018.03 439.412 1016.79C443.707 1015.35 448.299 1015.05 452.748 1015.89C457.347 1016.97 461.561 1018.85 466.366 1018.74C471.762 1018.62 477.106 1017.46 482.528 1017.38C488.135 1017.28 493.738 1017.74 499.255 1018.74C501.645 1019.21 502.672 1015.53 500.257 1015.1L500.231 1015.07Z" fill="white"/>
<path d="M464.644 1030.54C457.842 1028.68 450.73 1028.26 443.754 1029.28C436.868 1030.28 429.725 1033.83 422.685 1032.41C419.164 1031.72 415.953 1030.38 412.407 1030.02C409.066 1029.68 405.693 1029.88 402.411 1030.59C398.943 1031.33 395.731 1032.95 392.262 1033.67C389.033 1034.25 385.727 1034.25 382.498 1033.67C375.149 1032.62 367.903 1030.18 360.4 1030.85C357.985 1031.05 357.959 1034.86 360.4 1034.65C367.004 1034.06 373.402 1035.96 379.851 1037.09C382.957 1037.69 386.119 1037.95 389.281 1037.86C392.684 1037.54 396.024 1036.74 399.2 1035.47C402.493 1034.27 405.971 1033.65 409.477 1033.65C412.936 1033.78 416.356 1034.42 419.627 1035.55C426.642 1037.63 433.297 1035.55 440.183 1033.85C447.925 1031.99 456.012 1032.12 463.693 1034.21C464.181 1034.35 464.701 1034.28 465.139 1034.03C465.578 1033.78 465.899 1033.36 466.032 1032.88C466.164 1032.39 466.098 1031.87 465.848 1031.43C465.597 1030.99 465.183 1030.67 464.696 1030.54H464.644Z" fill="white"/>
<path d="M482.014 1046.98C479.264 1048.29 476.324 1049.16 473.303 1049.55C470.597 1049.6 467.897 1049.27 465.287 1048.55C460.148 1047.37 454.803 1045.98 449.613 1047.65C447.043 1048.52 444.756 1049.99 442.136 1050.61C439.656 1051.04 437.111 1050.92 434.684 1050.25C429.545 1049.12 424.406 1047.34 419.267 1048.68C418.827 1048.85 418.466 1049.18 418.254 1049.6C418.042 1050.02 417.993 1050.5 418.118 1050.96C418.243 1051.41 418.532 1051.8 418.93 1052.06C419.327 1052.31 419.805 1052.41 420.269 1052.33C425.408 1051.02 430.547 1053.48 435.686 1054.31C438.145 1054.81 440.679 1054.81 443.138 1054.31C445.679 1053.46 448.175 1052.48 450.615 1051.38C455.754 1049.6 461.227 1051.69 466.391 1052.74C469.008 1053.35 471.706 1053.54 474.382 1053.3C477.37 1052.84 480.282 1051.97 483.042 1050.73C485.277 1049.86 484.301 1046.16 482.014 1047.06V1046.98Z" fill="white"/>
<path d="M566.652 1047.27C562.675 1045.29 558.228 1044.45 553.805 1044.85C551.603 1045.03 549.44 1045.54 547.381 1046.34C545.43 1047.41 543.324 1048.18 541.138 1048.6C536.744 1048.94 532.735 1045.85 528.65 1044.72C524.154 1043.48 519.378 1043.73 515.032 1045.42C512.771 1046.31 513.747 1049.99 516.034 1049.09C520.138 1047.44 524.702 1047.33 528.881 1048.78C532.735 1050.14 536.358 1052.46 540.572 1052.43C544.786 1052.4 548.152 1049.66 552.135 1048.88C556.375 1048.08 560.76 1048.66 564.648 1050.53C566.832 1051.61 568.759 1048.32 566.575 1047.27H566.652Z" fill="white"/>
<path d="M186.832 914.552C177.086 912.853 167.135 912.68 157.335 914.038C154.786 914.45 152.194 914.519 149.626 914.244C147.25 913.761 144.907 913.126 142.612 912.342C138.121 910.887 133.327 910.639 128.711 911.623C124.422 913.004 119.956 913.757 115.452 913.858C111.161 913.576 107.024 912.214 102.81 911.52C98.4251 910.762 93.9215 911.07 89.6804 912.42C87.5133 913.22 85.2886 913.856 83.0255 914.321C80.6295 914.642 78.2013 914.642 75.8053 914.321C66.0926 913.293 55.8147 909.182 46.616 914.578C46.1799 914.833 45.8632 915.252 45.7355 915.741C45.6078 916.23 45.6797 916.75 45.9352 917.186C46.1908 917.622 46.6091 917.939 47.0981 918.066C47.5872 918.194 48.107 918.122 48.5431 917.867C56.2515 913.293 65.8357 916.788 74.2379 917.867C78.6706 918.582 83.2065 918.31 87.5221 917.07C89.552 916.479 91.5305 915.708 93.586 915.22C95.7701 914.737 98.0196 914.624 100.241 914.886C104.686 915.349 108.952 916.762 113.371 917.456C117.622 917.913 121.921 917.511 126.013 916.274C130.307 914.832 134.903 914.531 139.348 915.4C143.948 916.479 148.162 918.329 152.967 918.227C158.388 918.098 163.707 916.967 169.129 916.865C174.737 916.761 180.341 917.226 185.856 918.252C188.246 918.689 189.273 915.015 186.858 914.578L186.832 914.552Z" fill="white"/>
<path d="M151.168 930.021C144.366 928.167 137.254 927.738 130.278 928.761C123.392 929.764 116.249 933.335 109.208 931.896C105.714 931.202 102.476 929.866 98.9305 929.507C95.5898 929.167 92.2164 929.357 88.9353 930.072C85.4665 930.817 82.2546 932.436 78.7859 933.155C75.5558 933.722 72.2519 933.722 69.0218 933.155C61.6731 932.076 54.4272 929.661 46.9243 930.303C44.509 930.509 44.4833 934.312 46.9243 934.106C53.5536 933.515 59.9259 935.416 66.3753 936.547C69.4789 937.163 72.6428 937.421 75.8053 937.318C79.2088 937.001 82.5491 936.196 85.7234 934.928C89.02 933.737 92.4963 933.12 96.0013 933.104C99.4497 933.249 102.859 933.889 106.125 935.005C113.14 937.112 119.795 935.005 126.681 933.309C134.423 931.449 142.51 931.572 150.192 933.669C150.679 933.802 151.199 933.736 151.637 933.485C152.076 933.235 152.397 932.82 152.53 932.333C152.663 931.846 152.596 931.326 152.346 930.887C152.095 930.449 151.681 930.128 151.194 929.995L151.168 930.021Z" fill="white"/>
<path d="M168.64 946.362C165.886 947.685 162.936 948.553 159.904 948.932C157.197 948.998 154.495 948.66 151.887 947.93C146.748 946.748 141.404 945.36 136.214 947.03C133.644 947.904 131.357 949.369 128.736 949.985C126.257 950.418 123.712 950.295 121.285 949.626C116.146 948.521 111.007 946.722 105.868 948.058C105.428 948.228 105.067 948.555 104.855 948.976C104.643 949.396 104.594 949.881 104.719 950.336C104.844 950.79 105.133 951.182 105.531 951.436C105.928 951.689 106.405 951.786 106.87 951.707C112.009 950.396 117.148 952.863 122.287 953.685C124.756 954.174 127.296 954.174 129.764 953.685C132.297 952.83 134.785 951.843 137.216 950.73C142.355 948.958 147.828 951.065 153.018 952.092C155.627 952.699 158.314 952.898 160.983 952.683C163.969 952.206 166.88 951.342 169.643 950.114C171.878 949.24 170.902 945.566 168.64 946.439V946.362Z" fill="white"/>
<path d="M253.253 946.748C249.276 944.772 244.829 943.936 240.406 944.332C238.204 944.517 236.04 945.019 233.982 945.823C232.033 946.9 229.926 947.663 227.738 948.084C223.345 948.418 219.336 945.334 215.251 944.204C210.755 942.965 205.979 943.208 201.633 944.898C199.371 945.797 200.373 949.471 202.635 948.572C206.739 946.919 211.303 946.809 215.482 948.264C219.336 949.625 222.959 951.938 227.173 951.912C231.387 951.887 234.882 949.137 238.761 948.366C242.995 947.559 247.376 948.145 251.249 950.037C253.459 951.09 255.386 947.801 253.176 946.748H253.253Z" fill="white"/>
<path d="M1395.41 882.125C1400.32 881.226 1405.3 880.762 1410.29 880.738C1415.05 880.815 1419.8 881.176 1424.52 881.817C1426.8 882.151 1429.12 882.203 1431.41 881.971C1433.77 881.613 1436.09 881.045 1438.35 880.275C1442.71 878.695 1447.43 878.365 1451.97 879.325C1456.22 880.699 1460.65 881.469 1465.12 881.611C1469.36 881.184 1473.56 880.445 1477.69 879.402C1481.95 878.467 1486.38 878.68 1490.53 880.018C1494.72 881.583 1499.17 882.333 1503.64 882.228C1513.02 881.663 1523.81 876.627 1532.7 881.817C1533.13 882.043 1533.64 882.092 1534.11 881.955C1534.58 881.818 1534.98 881.505 1535.22 881.082C1535.47 880.658 1535.54 880.156 1535.42 879.68C1535.31 879.205 1535.01 878.792 1534.6 878.528C1526.69 873.903 1517.54 876.267 1509.09 877.732C1504.37 878.761 1499.49 878.656 1494.82 877.423C1490.64 875.776 1486.17 874.964 1481.67 875.034C1477.22 875.393 1472.96 876.729 1468.56 877.449C1464.26 878.06 1459.86 877.691 1455.72 876.37C1451.32 874.963 1446.65 874.619 1442.1 875.368C1437.19 876.318 1432.75 878.528 1427.66 878.297C1424.93 878.168 1422.24 877.706 1419.54 877.398C1416.84 877.089 1413.78 876.935 1410.91 876.935C1405.36 876.934 1399.83 877.45 1394.38 878.477C1391.99 878.913 1393.02 882.588 1395.41 882.125V882.125Z" fill="white"/>
<path d="M1237.31 1056.23C1242.22 1055.33 1247.2 1054.87 1252.19 1054.85C1256.95 1054.92 1261.7 1055.28 1266.42 1055.92C1268.7 1056.26 1271.02 1056.31 1273.31 1056.08C1275.67 1055.72 1277.99 1055.15 1280.25 1054.38C1284.61 1052.8 1289.33 1052.47 1293.87 1053.43C1298.12 1054.8 1302.55 1055.57 1307.02 1055.72C1311.26 1055.29 1315.46 1054.55 1319.59 1053.51C1323.85 1052.58 1328.28 1052.79 1332.43 1054.13C1336.62 1055.69 1341.07 1056.44 1345.54 1056.34C1354.92 1055.77 1365.71 1050.73 1374.6 1055.92C1375.03 1056.18 1375.55 1056.25 1376.04 1056.12C1376.53 1056 1376.95 1055.68 1377.21 1055.24C1377.46 1054.81 1377.53 1054.29 1377.41 1053.8C1377.28 1053.31 1376.96 1052.89 1376.53 1052.64C1368.59 1048.01 1359.44 1050.37 1351.01 1051.84C1346.3 1052.87 1341.41 1052.76 1336.75 1051.53C1332.55 1049.88 1328.08 1049.07 1323.57 1049.14C1319.12 1049.5 1314.86 1050.84 1310.46 1051.56C1306.16 1052.15 1301.77 1051.78 1297.62 1050.48C1293.22 1049.07 1288.55 1048.73 1284 1049.48C1279.09 1050.43 1274.67 1052.64 1269.56 1052.4C1266.83 1052.4 1264.16 1051.79 1261.44 1051.51C1258.72 1051.22 1255.68 1051.04 1252.81 1051.04C1247.27 1051.04 1241.75 1051.56 1236.31 1052.58C1233.89 1053.02 1234.92 1056.67 1237.31 1056.23V1056.23Z" fill="white"/>
<path d="M1455.77 897.542C1462.58 895.658 1469.73 895.342 1476.68 896.617C1483.47 897.902 1490.15 900.728 1497.24 899.521C1500.81 898.904 1504.07 897.388 1507.72 897.08C1511.12 896.782 1514.54 897.095 1517.82 898.005C1521.02 899.166 1524.29 900.136 1527.61 900.908C1530.81 901.328 1534.06 901.285 1537.25 900.78C1544.54 899.803 1551.69 897.311 1559.14 897.979C1561.71 898.185 1561.55 894.382 1559.14 894.176C1552.48 893.585 1545.98 895.41 1539.51 896.592C1536.29 897.263 1533 897.513 1529.72 897.337C1526.27 896.795 1522.89 895.864 1519.65 894.562C1513.03 892.656 1505.99 892.818 1499.48 895.024C1496.02 896.092 1492.35 896.269 1488.81 895.538C1485.29 894.87 1481.85 893.765 1478.35 892.969C1470.56 891.415 1462.51 891.696 1454.84 893.791C1454.36 893.924 1453.94 894.245 1453.69 894.683C1453.44 895.122 1453.37 895.642 1453.51 896.129C1453.64 896.616 1453.96 897.031 1454.4 897.281C1454.84 897.532 1455.36 897.598 1455.85 897.465L1455.77 897.542Z" fill="white"/>
<path d="M412.664 933.515C419.476 931.631 426.627 931.315 433.579 932.59C440.363 933.875 447.043 936.701 454.135 935.493C457.707 934.877 460.97 933.361 464.619 933.052C468.013 932.755 471.433 933.068 474.717 933.977C477.919 935.139 481.188 936.109 484.506 936.881C487.702 937.343 490.947 937.343 494.142 936.881C501.439 935.905 508.608 933.412 516.059 934.08C518.475 934.286 518.475 930.483 516.059 930.277C509.379 929.686 502.904 931.511 496.403 932.693C493.186 933.364 489.895 933.614 486.613 933.438C483.169 932.901 479.798 931.969 476.567 930.663C469.944 928.759 462.899 928.92 456.371 931.125C452.916 932.193 449.248 932.37 445.707 931.639C442.187 930.971 438.77 929.866 435.249 929.07C427.455 927.516 419.406 927.797 411.739 929.892C411.252 930.025 410.837 930.346 410.587 930.784C410.336 931.223 410.27 931.743 410.403 932.23C410.536 932.717 410.857 933.132 411.295 933.382C411.734 933.633 412.254 933.699 412.741 933.566L412.664 933.515Z" fill="white"/>
<path d="M469.552 910.081C476.356 908.197 483.498 907.88 490.442 909.156C497.225 910.441 503.906 913.293 510.998 912.06C514.544 911.443 517.832 909.953 521.455 909.644C524.848 909.338 528.268 909.643 531.553 910.544C534.757 911.702 538.026 912.671 541.343 913.447C544.538 913.91 547.784 913.91 550.979 913.447C558.302 912.445 565.445 909.978 572.896 910.621C575.312 910.826 575.312 907.024 572.896 906.818C566.216 906.227 559.741 908.077 553.24 909.259C550.021 909.918 546.732 910.169 543.45 910.004C540.009 909.451 536.64 908.521 533.403 907.229C526.784 905.315 519.738 905.468 513.207 907.666C509.756 908.748 506.084 908.925 502.544 908.18C499.024 907.512 495.606 906.407 492.086 905.61C484.294 904.048 476.244 904.321 468.576 906.407C468.088 906.543 467.675 906.867 467.427 907.308C467.179 907.749 467.116 908.271 467.252 908.758C467.389 909.245 467.713 909.658 468.154 909.907C468.595 910.155 469.116 910.218 469.603 910.081H469.552Z" fill="white"/>
<path d="M1212.93 1032.98C1219.74 1031.12 1226.89 1030.8 1233.84 1032.05C1240.63 1033.34 1247.31 1036.19 1254.4 1034.98C1257.94 1034.37 1261.23 1032.85 1264.86 1032.54C1268.25 1032.25 1271.67 1032.55 1274.95 1033.44C1278.16 1034.62 1281.42 1035.59 1284.74 1036.37C1287.95 1036.82 1291.2 1036.82 1294.41 1036.37C1301.7 1035.37 1308.85 1032.9 1316.3 1033.54C1318.87 1033.78 1318.71 1029.97 1316.3 1029.74C1309.64 1029.18 1303.14 1031 1296.64 1032.31C1293.43 1032.98 1290.15 1033.23 1286.88 1033.06C1283.43 1032.51 1280.05 1031.58 1276.8 1030.28C1270.19 1028.38 1263.15 1028.54 1256.63 1030.74C1253.18 1031.81 1249.51 1031.99 1245.97 1031.26C1242.45 1030.59 1239.01 1029.48 1235.49 1028.69C1227.7 1027.13 1219.66 1027.42 1212 1029.51C1211.56 1029.68 1211.2 1030.01 1210.99 1030.43C1210.78 1030.85 1210.73 1031.33 1210.85 1031.79C1210.98 1032.24 1211.27 1032.63 1211.66 1032.89C1212.06 1033.14 1212.54 1033.24 1213 1033.16L1212.93 1032.98Z" fill="white"/>
<path d="M705.584 1036.88C712.401 1035.03 719.546 1034.71 726.5 1035.96C733.283 1037.24 739.964 1040.1 747.055 1038.89C750.627 1038.27 753.89 1036.76 757.539 1036.45C760.932 1036.15 764.35 1036.46 767.637 1037.35C770.835 1038.53 774.105 1039.51 777.427 1040.28C780.629 1040.68 783.872 1040.64 787.062 1040.15C794.36 1039.15 801.503 1036.68 808.954 1037.32C811.395 1037.55 811.369 1033.75 808.954 1033.52C802.299 1032.95 795.798 1034.78 789.298 1035.96C786.089 1036.63 782.807 1036.88 779.534 1036.71C776.082 1036.16 772.703 1035.23 769.461 1033.93C762.848 1032.02 755.81 1032.19 749.291 1034.39C745.837 1035.46 742.168 1035.64 738.628 1034.91C735.107 1034.24 731.664 1033.13 728.17 1032.34C720.375 1030.78 712.326 1031.06 704.659 1033.16C704.219 1033.33 703.858 1033.66 703.646 1034.08C703.434 1034.5 703.385 1034.98 703.51 1035.44C703.635 1035.89 703.924 1036.28 704.321 1036.54C704.719 1036.79 705.196 1036.89 705.661 1036.81L705.584 1036.88Z" fill="white"/>
<path d="M119.538 1034.21C126.341 1032.33 133.484 1032.01 140.428 1033.29C147.211 1034.57 153.892 1037.42 160.983 1036.22C164.529 1035.6 167.818 1034.08 171.441 1033.65C174.834 1033.35 178.252 1033.66 181.539 1034.55C184.736 1035.72 188.006 1036.69 191.329 1037.45C194.524 1037.91 197.769 1037.91 200.964 1037.45C208.287 1036.45 215.431 1033.98 222.882 1034.62C225.452 1034.83 225.297 1031.03 222.882 1030.82C216.227 1030.26 209.726 1032.08 203.226 1033.26C200.017 1033.93 196.735 1034.18 193.462 1034.01C189.989 1033.45 186.592 1032.49 183.338 1031.16C176.717 1029.25 169.675 1029.41 163.142 1031.59C159.701 1032.68 156.038 1032.87 152.504 1032.13C148.958 1031.44 145.541 1030.36 142.021 1029.56C134.226 1028.01 126.177 1028.29 118.51 1030.38C118.062 1030.55 117.692 1030.88 117.476 1031.3C117.259 1031.73 117.21 1032.22 117.34 1032.68C117.47 1033.14 117.768 1033.54 118.175 1033.79C118.582 1034.04 119.069 1034.13 119.538 1034.03V1034.21Z" fill="white"/>
<path d="M1411.6 914.013C1414.35 915.249 1417.25 916.114 1420.23 916.582C1422.91 916.819 1425.61 916.628 1428.22 916.017C1433.36 914.963 1438.76 912.882 1444 914.655C1446.57 915.503 1448.86 916.993 1451.48 917.584C1453.94 918.085 1456.49 918.085 1458.95 917.584C1464.09 916.762 1469.23 914.295 1474.37 915.606C1474.84 915.684 1475.31 915.588 1475.71 915.334C1476.11 915.081 1476.4 914.689 1476.52 914.235C1476.65 913.78 1476.6 913.295 1476.39 912.875C1476.17 912.454 1475.81 912.127 1475.37 911.957C1470.23 910.621 1465.1 912.394 1459.96 913.524C1457.52 914.195 1454.97 914.317 1452.48 913.884C1449.95 913.028 1447.46 912.042 1445.03 910.929C1439.89 909.182 1434.47 910.647 1429.33 911.829C1426.73 912.547 1424.04 912.884 1421.34 912.831C1418.31 912.452 1415.36 911.584 1412.6 910.261C1410.34 909.362 1409.34 913.036 1411.6 913.936V914.013Z" fill="white"/>
<path d="M1527.17 991.328C1529.92 992.565 1532.83 993.429 1535.81 993.898C1538.48 994.121 1541.18 993.93 1543.8 993.332C1548.94 992.279 1554.33 990.198 1559.58 991.97C1562.14 992.818 1564.43 994.283 1567.05 994.9C1569.52 995.388 1572.06 995.388 1574.53 994.9C1579.67 994.078 1584.81 991.611 1589.95 992.921C1590.42 993.014 1590.9 992.926 1591.31 992.676C1591.72 992.426 1592.01 992.031 1592.14 991.571C1592.27 991.111 1592.23 990.619 1592.01 990.193C1591.79 989.767 1591.42 989.439 1590.97 989.273C1585.71 987.936 1580.7 989.709 1575.56 990.84C1573.12 991.51 1570.57 991.633 1568.08 991.2C1565.55 990.344 1563.06 989.358 1560.63 988.245C1555.49 986.497 1550.07 987.962 1544.93 989.144C1542.18 990.031 1539.29 990.359 1536.42 990.107C1533.54 989.856 1530.75 989.03 1528.2 987.679C1525.92 986.78 1524.94 990.455 1527.2 991.354L1527.17 991.328Z" fill="white"/>
<path d="M1695.89 1027.53C1698.65 1028.77 1701.56 1029.63 1704.55 1030.1C1707.22 1030.34 1709.92 1030.15 1712.54 1029.54C1717.68 1028.48 1723.07 1026.4 1728.31 1028.17C1730.75 1029.28 1733.25 1030.26 1735.79 1031.1C1738.25 1031.6 1740.78 1031.6 1743.24 1031.1C1748.38 1030.28 1753.52 1027.81 1758.66 1029.13C1759.12 1029.2 1759.6 1029.11 1760 1028.85C1760.4 1028.6 1760.68 1028.21 1760.81 1027.75C1760.93 1027.3 1760.89 1026.81 1760.67 1026.39C1760.46 1025.97 1760.1 1025.65 1759.66 1025.48C1754.52 1024.14 1749.38 1025.91 1744.24 1027.04C1741.82 1027.71 1739.27 1027.84 1736.79 1027.4C1734.22 1026.79 1731.86 1025.32 1729.31 1024.45C1724.18 1022.7 1718.78 1024.17 1713.64 1025.35C1710.9 1026.24 1708 1026.57 1705.13 1026.31C1702.26 1026.06 1699.46 1025.24 1696.91 1023.88C1694.63 1023.01 1693.65 1026.66 1695.89 1027.56V1027.53Z" fill="white"/>
<path d="M583.919 978.763C586.67 980 589.573 980.864 592.553 981.333C595.23 981.57 597.927 981.38 600.544 980.768C605.683 979.714 611.079 977.633 616.346 979.406C618.778 980.51 621.265 981.488 623.798 982.335C626.265 982.836 628.808 982.836 631.275 982.335C636.414 981.513 641.553 979.046 646.692 980.356C647.156 980.435 647.634 980.339 648.031 980.085C648.429 979.832 648.718 979.44 648.843 978.985C648.968 978.531 648.919 978.046 648.707 977.625C648.495 977.204 648.134 976.877 647.694 976.708C642.426 975.372 637.416 977.145 632.277 978.275C629.842 978.945 627.288 979.068 624.8 978.635C622.267 977.779 619.779 976.793 617.348 975.68C612.209 973.933 606.813 975.397 601.674 976.579C598.926 977.467 596.027 977.795 593.15 977.544C590.272 977.292 587.474 976.466 584.921 975.115C582.66 974.215 581.658 977.89 583.919 978.789V978.763Z" fill="white"/>
<path d="M270.854 974.858C273.605 976.095 276.508 976.959 279.488 977.427C282.164 977.664 284.862 977.473 287.479 976.862C292.618 975.808 298.014 973.727 303.255 975.5C305.825 976.348 308.112 977.838 310.733 978.429C313.2 978.93 315.742 978.93 318.21 978.429C323.349 977.607 328.488 975.14 333.627 976.451C334.095 976.543 334.582 976.456 334.989 976.205C335.397 975.955 335.695 975.561 335.824 975.101C335.954 974.641 335.905 974.149 335.689 973.723C335.472 973.297 335.103 972.968 334.654 972.802C329.515 971.466 324.376 973.239 319.237 974.37C316.811 975.04 314.266 975.163 311.786 974.729C309.217 974.113 306.853 972.648 304.309 971.774C299.17 970.027 293.774 971.492 288.635 972.674C285.891 973.561 282.996 973.888 280.123 973.637C277.25 973.385 274.456 972.56 271.908 971.209C269.621 970.31 268.644 973.984 270.906 974.883L270.854 974.858Z" fill="white"/>
<path d="M1065.05 1013.35C1067.81 1014.59 1070.73 1015.45 1073.71 1015.92C1076.39 1016.15 1079.09 1015.96 1081.7 1015.35C1086.84 1014.3 1092.24 1012.22 1097.48 1013.99C1099.91 1015.09 1102.4 1016.07 1104.93 1016.92C1107.4 1017.42 1109.94 1017.42 1112.41 1016.92C1117.55 1016.1 1122.69 1013.63 1127.83 1014.94C1128.29 1015.02 1128.77 1014.92 1129.17 1014.67C1129.56 1014.42 1129.85 1014.02 1129.98 1013.57C1130.1 1013.12 1130.05 1012.63 1129.84 1012.21C1129.63 1011.79 1129.27 1011.46 1128.83 1011.29C1123.56 1009.96 1118.55 1011.73 1113.41 1012.86C1110.98 1013.53 1108.44 1013.65 1105.96 1013.22C1103.39 1012.6 1101.03 1011.14 1098.48 1010.27C1093.34 1008.52 1087.95 1009.98 1082.81 1011.16C1080.06 1012.05 1077.17 1012.38 1074.3 1012.13C1071.42 1011.88 1068.63 1011.05 1066.08 1009.7C1063.79 1008.8 1062.82 1012.47 1065.05 1013.37V1013.35Z" fill="white"/>
<path d="M681.405 1017C684.156 1018.23 687.059 1019.1 690.039 1019.57C692.716 1019.8 695.413 1019.61 698.03 1019C703.169 1017.97 708.565 1015.87 713.806 1017.64C716.376 1018.49 718.663 1019.98 721.284 1020.57C723.751 1021.07 726.294 1021.07 728.761 1020.57C733.9 1019.75 739.039 1017.28 744.178 1018.59C744.642 1018.67 745.12 1018.57 745.517 1018.32C745.915 1018.07 746.204 1017.67 746.329 1017.22C746.454 1016.76 746.405 1016.28 746.193 1015.86C745.981 1015.44 745.619 1015.11 745.18 1014.94C739.912 1013.61 734.902 1015.38 729.763 1016.51C727.328 1017.18 724.774 1017.3 722.286 1016.87C719.752 1016.01 717.265 1015.03 714.834 1013.91C709.695 1012.17 704.274 1013.63 699.16 1014.81C696.412 1015.7 693.513 1016.03 690.636 1015.78C687.758 1015.53 684.96 1014.7 682.407 1013.35C680.146 1012.47 679.144 1016.15 681.405 1017.02V1017Z" fill="white"/>
<path d="M373.608 909.182C376.362 910.41 379.264 911.274 382.241 911.751C384.919 911.979 387.617 911.78 390.232 911.16C395.371 910.133 400.767 908.026 406.009 909.799C408.449 910.912 410.944 911.898 413.486 912.754C415.954 913.242 418.495 913.242 420.963 912.754C426.102 911.931 431.241 909.49 436.38 910.801C438.744 911.392 439.772 907.717 437.408 907.126C432.14 905.79 427.13 907.589 421.991 908.694C419.564 909.364 417.019 909.487 414.539 909.054C411.97 908.463 409.606 906.972 407.062 906.124C401.923 904.351 396.527 905.816 391.388 907.024C388.784 907.728 386.095 908.065 383.397 908.026C380.371 907.622 377.424 906.756 374.661 905.456C372.374 904.557 371.398 908.231 373.659 909.105L373.608 909.182Z" fill="white"/>
<path d="M1329.89 913.884C1333.7 912.062 1337.98 911.469 1342.15 912.188C1346.23 912.933 1349.85 915.734 1353.97 915.786C1358.08 915.837 1361.67 913.576 1365.43 912.24C1369.67 910.651 1374.36 910.724 1378.56 912.445C1380.84 913.344 1381.82 909.67 1379.58 908.771C1375.23 907.073 1370.45 906.82 1365.94 908.051C1361.88 909.208 1357.85 912.317 1353.45 911.957C1351.36 911.543 1349.34 910.816 1347.47 909.799C1345.34 908.937 1343.1 908.4 1340.81 908.206C1336.39 907.809 1331.94 908.645 1327.96 910.621C1325.75 911.674 1327.68 914.963 1329.86 913.884H1329.89Z" fill="white"/>
<path d="M1212.7 872.67C1216.5 870.824 1220.79 870.222 1224.95 870.948C1229.04 871.693 1232.66 874.494 1236.77 874.545C1240.88 874.597 1244.48 872.361 1248.23 871C1252.48 869.448 1257.16 869.521 1261.36 871.205C1263.65 872.104 1264.63 868.43 1262.36 867.531C1258.02 865.841 1253.24 865.598 1248.75 866.837C1244.69 867.968 1240.65 871.077 1236.26 870.717C1234.17 870.303 1232.15 869.576 1230.27 868.559C1228.14 867.709 1225.9 867.172 1223.62 866.966C1219.19 866.574 1214.75 867.41 1210.77 869.381C1208.58 870.434 1210.51 873.723 1212.7 872.67V872.67Z" fill="white"/>
<path d="M1393.02 1032.98C1396.82 1031.13 1401.1 1030.54 1405.25 1031.28C1409.34 1032.03 1412.96 1034.83 1417.1 1034.86C1421.23 1034.88 1424.81 1032.67 1428.56 1031.31C1432.81 1029.75 1437.49 1029.83 1441.69 1031.54C1443.97 1032.41 1444.95 1028.74 1442.69 1027.87C1438.35 1026.16 1433.57 1025.9 1429.07 1027.15C1425.01 1028.3 1420.95 1031.41 1416.58 1031.05C1414.49 1030.63 1412.48 1029.9 1410.6 1028.89C1408.46 1028.03 1406.21 1027.49 1403.92 1027.28C1399.49 1026.89 1395.05 1027.73 1391.07 1029.69C1388.89 1030.77 1390.79 1034.03 1393 1032.98H1393.02Z" fill="white"/>
<path d="M1685.15 959.878C1690.05 958.958 1695.03 958.485 1700.02 958.464C1704.79 958.541 1709.54 958.901 1714.26 959.544C1716.54 959.877 1718.85 959.929 1721.14 959.698C1723.52 959.364 1725.85 958.796 1728.11 958.002C1732.47 956.432 1737.19 956.103 1741.73 957.051C1745.98 958.426 1750.41 959.196 1754.88 959.338C1759.11 958.923 1763.3 958.184 1767.42 957.128C1771.68 956.206 1776.11 956.419 1780.27 957.745C1784.46 959.306 1788.9 960.056 1793.37 959.955C1802.78 959.39 1813.54 954.353 1822.43 959.544C1822.87 959.799 1823.39 959.871 1823.88 959.743C1824.37 959.616 1824.79 959.299 1825.04 958.863C1825.3 958.427 1825.37 957.907 1825.24 957.418C1825.11 956.929 1824.8 956.51 1824.36 956.255C1816.42 951.63 1807.3 953.994 1798.85 955.458C1794.14 956.501 1789.24 956.395 1784.58 955.15C1780.39 953.503 1775.91 952.691 1771.4 952.76C1766.96 953.12 1762.69 954.456 1758.32 955.176C1754.02 955.781 1749.62 955.413 1745.48 954.096C1741.08 952.689 1736.41 952.346 1731.86 953.094C1726.95 954.045 1722.53 956.255 1717.42 956.024C1714.69 956.024 1712.02 955.433 1709.32 955.15C1706.63 954.867 1703.57 954.687 1700.67 954.662C1695.13 954.674 1689.61 955.19 1684.17 956.203C1681.75 956.64 1682.78 960.315 1685.17 959.878H1685.15Z" fill="white"/>
<path d="M1660.63 936.624C1667.45 934.74 1674.6 934.424 1681.55 935.699C1688.33 936.984 1695.01 939.81 1702.1 938.603C1705.68 937.986 1708.94 936.47 1712.59 936.033C1715.98 935.735 1719.4 936.048 1722.69 936.958C1725.89 938.12 1729.16 939.089 1732.48 939.862C1735.67 940.324 1738.92 940.324 1742.11 939.862C1749.41 938.885 1756.55 936.393 1764 937.061C1766.57 937.266 1766.42 933.464 1764 933.258C1757.35 932.667 1750.85 934.491 1744.37 935.673C1741.15 936.344 1737.86 936.595 1734.58 936.418C1731.13 935.877 1727.75 934.946 1724.51 933.643C1717.9 931.738 1710.86 931.9 1704.34 934.106C1700.89 935.174 1697.22 935.351 1693.68 934.62C1690.16 933.952 1686.71 932.847 1683.22 932.05C1675.42 930.496 1667.37 930.778 1659.71 932.873C1659.22 933.006 1658.81 933.327 1658.56 933.765C1658.31 934.204 1658.24 934.724 1658.37 935.211C1658.5 935.698 1658.83 936.112 1659.26 936.363C1659.7 936.614 1660.22 936.68 1660.71 936.547L1660.63 936.624Z" fill="white"/>
<path d="M1840.73 936.598C1844.53 934.76 1848.82 934.166 1852.98 934.902C1857.07 935.648 1860.69 938.448 1864.8 938.5C1868.91 938.551 1872.51 936.29 1876.26 934.954C1880.51 933.365 1885.2 933.439 1889.39 935.159C1891.68 936.033 1892.66 932.384 1890.4 931.485C1886.05 929.787 1881.28 929.535 1876.78 930.766C1872.72 931.922 1868.66 935.031 1864.29 934.671C1862.2 934.258 1860.18 933.53 1858.3 932.513C1856.18 931.651 1853.93 931.114 1851.65 930.92C1847.22 930.529 1842.78 931.364 1838.8 933.335C1836.62 934.389 1838.54 937.677 1840.73 936.598V936.598Z" fill="white"/>
<path d="M566.652 889.294C570.45 887.458 574.729 886.864 578.883 887.598C582.969 888.344 586.592 891.144 590.728 891.196C594.865 891.247 598.437 888.986 602.188 887.65C606.434 886.061 611.124 886.134 615.318 887.855C617.579 888.729 618.582 885.055 616.32 884.181C611.977 882.483 607.201 882.231 602.702 883.461C598.642 884.618 594.583 887.727 590.215 887.367C588.122 886.953 586.103 886.226 584.228 885.209C582.094 884.344 579.841 883.807 577.547 883.616C573.124 883.219 568.677 884.055 564.7 886.031C562.516 887.084 564.417 890.373 566.627 889.294H566.652Z" fill="white"/>
</g>
<path style="mix-blend-mode:overlay" opacity="0.2" d="M1098.61 1041.43C1119.35 1041.43 1145.79 1033.93 1169.09 1027.3C1186.69 1022.16 1203.34 1017.56 1212.49 1017.51H1216.6C1229.73 1017.51 1243.04 1017.87 1256.15 1018.59L1259.41 1018.77C1266.32 1019.16 1273.46 1019.54 1280.68 1019.54C1294.05 1019.54 1311.52 1018.38 1328.01 1009.26C1330.76 1007.77 1333.33 1006.1 1335.72 1004.51C1338.43 1002.67 1341.27 1001.01 1344.2 999.551C1349.12 997.66 1354.24 996.332 1359.46 995.594L1381.77 991.56C1384.52 991.251 1387.47 990.866 1390.43 990.326C1393.38 989.787 1396.77 988.99 1399.21 988.373L1437.01 981.487C1451.14 978.918 1465.28 974.884 1474.65 963.27C1477.94 961.65 1480.76 959.228 1482.87 956.228C1484.97 953.228 1486.28 949.747 1486.68 946.106C1487.19 940.263 1485.6 934.429 1482.18 929.661C1472.78 915.452 1457.7 910.39 1442.79 907.024C1429.95 904.069 1416.22 901.474 1399.63 898.853C1391.42 896.033 1382.91 894.212 1374.26 893.431C1372.49 893.431 1370.69 893.251 1368.77 893.251C1367.43 893.251 1366.2 893.251 1364.73 893.251C1363.81 893.251 1362.73 893.251 1361.62 893.251L1353.68 892.403L1306.15 886.108C1286.73 880.55 1266.28 879.669 1246.46 883.539H1245.84C1240.09 883.307 1233.92 882.845 1227.03 882.203C1224.16 881.586 1221.25 880.867 1218.35 880.121C1209.5 877.548 1200.39 876.013 1191.19 875.548C1187.16 875.548 1183.1 875.419 1179.06 875.419C1174.23 875.419 1169.97 875.419 1166.03 875.702C1155.76 874.854 1146.71 874.443 1138.28 874.443C1124.78 874.339 1111.3 875.596 1098.05 878.194C1084.8 875.595 1071.33 874.338 1057.83 874.443C1049.41 874.443 1040.31 874.854 1030.08 875.702C1026.15 875.522 1021.89 875.419 1017.06 875.419C1013 875.419 1008.94 875.419 1004.9 875.548C995.711 876.015 986.605 877.55 977.769 880.121C974.865 880.867 971.962 881.586 969.084 882.203C962.198 882.871 956.005 883.307 950.25 883.539H949.864C929.979 879.628 909.447 880.508 889.97 886.108L841.381 892.403L834.597 893.303C832.028 893.174 829.921 893.097 827.814 893.097C825.707 893.097 823.857 893.097 821.981 893.277C813.332 894.056 804.808 895.877 796.595 898.699C779.97 901.268 766.224 903.838 753.376 906.87C738.525 910.236 723.442 915.298 714.012 929.532C710.609 934.306 709.023 940.138 709.541 945.977C709.945 949.614 711.259 953.09 713.36 956.085C715.462 959.08 718.284 961.498 721.566 963.115C730.868 974.729 745.077 978.764 759.209 981.333L797.006 988.219C799.447 988.836 802.582 989.607 805.871 990.198C808.748 990.712 811.678 991.097 814.427 991.405L836.756 995.439C842.03 996.173 847.203 997.509 852.173 999.422C855.088 1000.88 857.903 1002.53 860.601 1004.36C863.17 1005.95 865.74 1007.62 868.463 1009.13C884.908 1018.21 902.38 1019.41 915.742 1019.41C922.936 1019.41 930.105 1019.03 937.017 1018.64L940.254 1018.46C953.616 1017.74 967.182 1017.38 980.595 1017.38H984.809C993.982 1017.38 1010.66 1022.16 1028.31 1027.2C1051.49 1033.88 1077.9 1041.43 1098.61 1041.43V1041.43Z" fill="url(#paint1_linear_2_2)"/>
<path d="M719.279 936.701C719.69 940.247 723.211 942.251 726.705 943.51C733.437 953.146 746.798 956.178 758.695 958.156L797.237 964.58C800.038 965.248 802.839 965.865 805.691 966.327C808.543 966.79 811.19 967.098 813.965 967.381L836.859 971.184C843.08 971.982 849.192 973.482 855.076 975.654C861.114 978.224 866.485 982.078 872.343 985.007C892.334 995.105 916.024 993.332 938.327 992.228C953.487 991.482 968.724 991.148 983.935 991.225C1007.99 991.354 1063.59 1013.32 1098.64 1013.32C1133.68 1013.32 1189.24 991.405 1213.31 991.225C1228.25 991.225 1243.16 991.56 1258.05 992.228C1280.4 993.332 1304.04 995.105 1324.03 985.007C1329.89 982.078 1335.26 978.173 1341.3 975.654C1347.18 973.479 1353.29 971.979 1359.52 971.184L1382.38 967.381C1385.16 967.098 1387.93 966.79 1390.68 966.327C1393.43 965.865 1396.34 965.248 1399.14 964.58L1437.68 958.156C1449.58 956.178 1462.94 953.146 1469.67 943.51C1473.16 942.251 1476.68 940.247 1477.1 936.701C1477.16 934.457 1476.39 932.268 1474.94 930.56C1467.79 920.693 1454.92 917.147 1443.02 914.681C1428.56 911.649 1413.99 909.259 1399.34 907.152C1391.69 904.681 1383.77 903.086 1375.76 902.399C1372.98 902.257 1370.2 902.257 1367.43 902.399C1366.06 902.399 1364.7 902.45 1363.34 902.553L1354.3 901.448L1305.48 895.538C1287.38 890.683 1268.43 889.885 1249.98 893.2C1249.21 893.354 1248.41 893.431 1247.64 893.534C1240.52 893.277 1233.46 892.789 1226.34 892.172C1214.88 889.937 1203.21 886.288 1191.86 886.134C1183.38 886.134 1174.9 885.903 1166.47 886.288C1143.55 884.515 1120.81 884.284 1098.3 888.857H1097.99C1075.51 884.361 1052.77 884.592 1029.85 886.288C1021.42 885.903 1012.94 886.005 1004.47 886.134C992.98 886.288 981.34 889.937 969.983 892.172C962.866 892.789 955.774 893.277 948.682 893.534C947.911 893.534 947.115 893.354 946.344 893.2C927.897 889.885 908.946 890.683 890.843 895.538L842.023 901.448L840.97 901.576L832.979 902.553C820.794 901.629 808.55 903.221 797.006 907.229C782.36 909.336 767.791 911.726 753.325 914.758C741.403 917.327 728.555 920.77 721.412 930.637C719.983 932.329 719.224 934.487 719.279 936.701V936.701Z" fill="#677A62"/>
<path style="mix-blend-mode:overlay" opacity="0.2" d="M835.291 915.786C835.291 944.05 911.553 969.745 1103.03 970.027H1104.7C1296.2 969.873 1372.47 944.101 1372.47 915.786C1372.31 910.848 1370.5 906.105 1367.33 902.322C1365.96 902.322 1364.59 902.373 1363.24 902.476L1354.2 901.371L1305.38 895.461C1287.27 890.606 1268.32 889.808 1249.88 893.123C1249.11 893.277 1248.31 893.354 1247.54 893.457C1240.42 893.2 1233.35 892.712 1226.24 892.095C1214.78 889.86 1203.11 886.211 1191.75 886.057C1183.28 886.057 1174.8 885.826 1166.37 886.211C1143.45 884.438 1120.71 884.207 1098.2 888.78H1097.89C1075.41 884.284 1052.67 884.515 1029.75 886.211C1021.32 885.826 1012.84 885.928 1004.36 886.057C992.877 886.211 981.238 889.86 969.88 892.095C962.763 892.712 955.671 893.2 948.579 893.457C947.809 893.457 947.012 893.277 946.241 893.123C927.794 889.808 908.843 890.606 890.741 895.461L841.92 901.371L840.867 901.499C837.408 905.471 835.437 910.521 835.291 915.786V915.786Z" fill="url(#paint2_linear_2_2)"/>
<path style="mix-blend-mode:overlay" opacity="0.2" d="M438.949 918.483C451.103 918.483 466.597 914.064 480.267 910.184C490.545 907.255 500.36 904.48 505.73 904.428H508.145C515.854 904.428 523.562 904.634 531.271 905.071H533.198C537.232 905.302 541.446 905.533 545.66 905.533C555.271 905.923 564.822 903.853 573.41 899.521C575.029 898.621 576.545 897.671 577.984 896.72C579.577 895.639 581.242 894.669 582.969 893.816C585.857 892.697 588.867 891.921 591.936 891.504L605.015 889.114C606.608 888.934 608.355 888.729 610.154 888.395C611.952 888.061 613.879 887.624 615.293 887.239L637.442 883.205C645.741 881.714 654.066 879.35 659.513 872.541C661.44 871.587 663.096 870.166 664.331 868.406C665.565 866.646 666.338 864.605 666.579 862.469C666.898 859.045 665.987 855.62 664.01 852.808C658.511 844.508 649.647 841.528 640.885 839.549C633.382 837.828 625.314 836.312 615.575 834.77C610.771 833.115 605.784 832.045 600.724 831.584C599.67 831.584 598.617 831.584 597.486 831.584H595.122H593.298L588.647 830.967L560.768 827.293C554.084 825.379 547.165 824.411 540.213 824.415C535.366 824.412 530.53 824.877 525.772 825.802H525.412C522.046 825.648 518.423 825.391 514.389 825.006C512.693 824.646 510.998 824.209 509.25 823.798C504.062 822.287 498.716 821.382 493.32 821.1H486.202C483.376 821.1 480.883 821.1 478.494 821.254C472.507 820.741 467.162 820.509 462.203 820.509C454.295 820.445 446.4 821.185 438.641 822.719C430.874 821.186 422.97 820.446 415.053 820.509C410.094 820.509 404.775 820.741 398.763 821.254C396.45 821.254 393.958 821.1 391.054 821.1H383.911C378.527 821.329 373.189 822.192 368.006 823.67C366.31 824.081 364.614 824.518 362.867 824.877C358.833 825.263 355.159 825.52 351.844 825.674H351.613C346.822 824.734 341.952 824.261 337.07 824.261C330.117 824.252 323.197 825.22 316.514 827.139L287.941 830.916L283.984 831.43C282.52 831.43 281.235 831.43 280.002 831.43C278.768 831.43 277.663 831.43 276.559 831.43C271.489 831.888 266.494 832.958 261.681 834.616C251.943 836.157 243.875 837.673 236.346 839.395C227.636 841.373 218.771 844.354 213.221 852.679C211.252 855.486 210.341 858.9 210.651 862.315C210.893 864.451 211.666 866.492 212.9 868.252C214.135 870.011 215.791 871.433 217.717 872.387C223.165 879.196 231.516 881.56 239.789 883.05L261.938 887.084C263.377 887.47 265.227 887.907 267.077 888.266C268.927 888.626 270.495 888.78 272.088 888.96L285.192 891.35C288.264 891.766 291.275 892.551 294.159 893.688C295.882 894.521 297.54 895.483 299.119 896.566C300.557 897.517 302.073 898.467 303.718 899.367C312.294 903.706 321.839 905.776 331.443 905.379C335.656 905.379 339.87 905.148 343.904 904.917H345.832C353.54 904.48 361.608 904.274 369.471 904.274H372.04C377.436 904.274 387.2 907.101 397.555 910.03C411.225 914.09 426.693 918.483 438.949 918.483V918.483Z" fill="url(#paint3_linear_2_2)"/>
<path d="M216.407 857.099C216.638 859.18 218.694 860.336 220.749 861.081C224.706 866.734 232.543 868.507 239.507 869.663L262.092 873.441C263.737 873.826 265.381 874.186 267.051 874.468C268.722 874.751 270.289 874.905 271.908 875.085L285.32 877.32C288.971 877.757 292.559 878.619 296.009 879.89C299.555 881.355 302.716 883.641 306.133 885.363C317.876 891.273 331.828 890.245 344.829 889.603C353.737 889.157 362.653 888.96 371.578 889.012C385.684 889.012 418.317 901.859 438.847 901.859C459.377 901.859 491.983 889.012 506.09 889.012C514.86 889.012 523.605 889.209 532.324 889.603C545.429 890.245 559.304 891.273 571.021 885.363C574.464 883.641 577.598 881.355 581.144 879.89C584.596 878.622 588.183 877.76 591.833 877.32L605.246 875.085C606.865 874.905 608.509 874.725 610.102 874.468C611.695 874.211 613.417 873.826 615.061 873.441L637.647 869.663C644.61 868.507 652.473 866.734 656.404 861.081C658.46 860.336 660.515 859.18 660.772 857.099C660.799 855.775 660.342 854.487 659.488 853.476C655.299 847.694 647.771 845.613 640.782 844.174C632.303 842.401 623.746 840.988 615.087 839.755C610.602 838.297 605.963 837.365 601.263 836.98C599.619 836.98 598 836.98 596.381 836.98H593.992L588.673 836.337L560.1 832.869C549.489 830.031 538.382 829.566 527.571 831.507C527.108 831.507 526.646 831.635 526.183 831.712C522.021 831.558 517.858 831.275 513.695 830.916C506.989 829.605 500.206 827.447 493.474 827.37C488.515 827.37 483.53 827.216 478.571 827.37C465.248 826.029 451.804 826.522 438.615 828.834H438.436C425.247 826.522 411.803 826.029 398.48 827.37C393.521 827.139 388.562 827.216 383.577 827.37C376.845 827.37 370.087 829.605 363.355 830.916C359.193 831.275 355.03 831.558 350.868 831.712C350.405 831.712 349.943 831.712 349.506 831.507C338.686 829.566 327.571 830.031 316.951 832.869V832.869L288.378 836.337H287.761L283.085 836.903C280.663 836.761 278.235 836.761 275.813 836.903C271.105 837.286 266.457 838.217 261.964 839.678C253.382 840.911 244.825 842.247 236.269 844.097C229.28 845.536 221.752 847.617 217.563 853.399C216.724 854.441 216.311 855.764 216.407 857.099V857.099Z" fill="#677A62"/>
<path style="mix-blend-mode:overlay" opacity="0.2" d="M284.421 844.817C284.421 861.416 329.156 876.55 441.442 876.627H442.418C554.704 876.627 599.439 861.416 599.439 844.817C599.351 841.929 598.302 839.153 596.458 836.928H594.069L588.75 836.286L560.177 832.817C549.566 829.979 538.459 829.514 527.648 831.455C527.185 831.455 526.723 831.584 526.26 831.661C522.098 831.507 517.935 831.224 513.773 830.864C507.066 829.554 500.283 827.396 493.551 827.319C488.592 827.319 483.607 827.164 478.648 827.319C465.325 825.978 451.881 826.471 438.692 828.783H438.513C425.324 826.471 411.88 825.978 398.557 827.319C393.598 827.087 388.639 827.164 383.654 827.319C376.922 827.319 370.165 829.554 363.432 830.864C359.27 831.224 355.107 831.507 350.945 831.661C350.482 831.661 350.02 831.661 349.583 831.455C338.763 829.515 327.648 829.98 317.028 832.817V832.817L288.455 836.286H287.838C285.727 838.636 284.516 841.659 284.421 844.817V844.817Z" fill="url(#paint4_linear_2_2)"/>
</g>
<defs>
<linearGradient id="paint0_linear_2_2" x1="1098.05" y1="878.194" x2="1098.05" y2="1069.2" gradientUnits="userSpaceOnUse">
<stop stop-color="#6B77CF"/>
<stop offset="1" stop-color="white"/>
</linearGradient>
<linearGradient id="paint1_linear_2_2" x1="1202.01" y1="737.978" x2="1008.47" y2="1121.09" gradientUnits="userSpaceOnUse">
<stop stop-color="#272525" stop-opacity="0"/>
<stop offset="0.7" stop-color="#272525"/>
</linearGradient>
<linearGradient id="paint2_linear_2_2" x1="1272.49" y1="640.055" x2="951.252" y2="1164.56" gradientUnits="userSpaceOnUse">
<stop stop-color="#272525" stop-opacity="0"/>
<stop offset="0.7" stop-color="#272525"/>
</linearGradient>
<linearGradient id="paint3_linear_2_2" x1="499.486" y1="740.547" x2="385.993" y2="965.222" gradientUnits="userSpaceOnUse">
<stop stop-color="#272525" stop-opacity="0"/>
<stop offset="0.7" stop-color="#272525"/>
</linearGradient>
<linearGradient id="paint4_linear_2_2" x1="540.804" y1="683.145" x2="352.435" y2="990.712" gradientUnits="userSpaceOnUse">
<stop stop-color="#272525" stop-opacity="0"/>
<stop offset="0.7" stop-color="#272525"/>
</linearGradient>
<clipPath id="clip0_2_2">
<rect width="1920" height="1080" fill="white"/>
</clipPath>
</defs>
</svg>
