<svg width="1920" height="1230" viewBox="0 0 1920 1230" fill="none" xmlns="http://www.w3.org/2000/svg">
<g clip-path="url(#clip0_4_150)">
<path d="M1412 1111C1559.46 1111 1679 991.46 1679 844C1679 696.54 1559.46 577 1412 577C1264.54 577 1145 696.54 1145 844C1145 991.46 1264.54 1111 1412 1111Z" fill="url(#paint0_linear_4_150)"/>
<path d="M811.061 1334.61H-493C-421.055 1281.45 -300.289 1190.72 -205.013 1119.68C-174.796 1097.12 -147.123 1076.51 -124.383 1059.68C-87.1254 1032.11 -49.6881 1004.41 -8.75638 982.595C10.8487 972.189 31.2503 963.144 50.0332 951.247C90.2712 925.784 121.311 888.115 159.365 859.569C197.418 831.022 248.757 811.674 292.592 830.431C300.339 833.833 307.654 838.145 314.381 843.278C326.255 852.585 337.349 862.845 347.553 873.958L508.171 1039.77C560.965 1094.32 614.924 1147.7 670.048 1199.9C732.949 1259.25 811.061 1334.61 811.061 1334.61Z" fill="#A19974"/>
<path d="M-94.5868 1238.49C-182.746 1321.95 -292.437 1427.78 -292.437 1427.78H1539.11C1406.27 1329.5 1154.26 1140 1021.41 1041.67C969.048 1002.95 916.477 964.071 858.946 933.519C831.401 918.899 802.752 906.206 776.414 889.504C719.886 853.532 676.205 800.678 622.811 760.542C569.417 720.407 497.189 693.299 435.676 719.611C405.305 732.612 381.46 756.945 358.592 780.687L132.94 1013.58C58.7338 1090.21 -17.1085 1165.17 -94.5868 1238.49V1238.49Z" fill="#AEA680"/>
<path d="M2216.72 1373.92H912.632C984.578 1320.76 1105.34 1230.03 1200.65 1158.98C1230.86 1136.42 1258.51 1115.82 1281.25 1099.01C1318.51 1071.41 1355.97 1043.72 1396.88 1021.93C1416.51 1011.52 1436.91 1002.48 1455.67 990.579C1495.88 965.038 1526.92 927.37 1565.05 898.771C1603.18 870.173 1654.44 850.876 1698.25 869.634C1706 873.036 1713.31 877.348 1720.04 882.481C1731.91 891.787 1743.01 902.048 1753.21 913.161L1913.83 1078.87C1966.62 1133.41 2020.58 1186.78 2075.71 1239C2138.61 1298.45 2216.72 1373.92 2216.72 1373.92V1373.92Z" fill="#AEA680"/>
<path d="M1970.74 959.506V1064.65H973.4C977.023 1064.21 980.826 1063.7 984.706 1063.18H-73.6357V974.255C-44.909 972.173 -15.6683 970.169 15.4223 968.345H16.964C58.6666 960.791 101.577 953.211 130.406 948.149C151.45 944.449 172.546 940.749 195.62 937.871C206.669 936.458 218.18 935.301 228.74 933.683C251.429 930.24 268.901 925.203 290.408 921.349C311.914 917.495 340.821 914.951 365.514 917.469C375.921 918.639 386.227 920.58 396.347 923.276L486.947 945.374C516.719 952.671 547.158 959.823 578.266 966.829C606.839 973.253 641.116 981.089 653.167 983.865L675.983 985.715C687.88 983.145 700.085 980.576 712.958 978.52C723.416 976.798 734.311 975.334 744.332 973.381C765.787 969.193 782.36 962.949 802.71 958.247C823.06 953.545 850.451 950.333 873.807 953.442C883.8 954.906 893.633 957.306 903.177 960.611L911.938 963.386C911.322 961.125 911.399 959.737 913.3 961.33C918.08 965.364 1055.29 1005.88 1132.09 1022.15L1207.02 1027.88C1233.46 1027.88 1261.36 1026.34 1286.85 1024.41C1296.82 1023.25 1306.94 1022.18 1317.5 1021.22C1330.94 1019.97 1344.9 1018.89 1357.82 1017.5C1367.53 1016.34 1374.42 1015.44 1377.5 1014.93C1397.88 1012.05 1416.04 1008.66 1436.93 1005.91C1464.04 1002.39 1500.48 1000 1531.62 1002.31C1544.72 1003.37 1557.75 1005.16 1570.65 1007.68L1684.79 1028.24L1701.08 1031.14C1711.2 1032.93 1721.6 1032.28 1731.42 1029.24C1765.78 1018.4 1804.86 1006.12 1829.37 998.408C1843.96 993.834 1858.56 989.286 1874.57 985.689C1882.28 983.967 1890.22 982.477 1897.54 980.55C1913.24 976.31 1925.37 970.118 1940.29 965.39C1950.18 962.234 1960.4 960.259 1970.74 959.506V959.506Z" fill="#7E8C7A"/>
<path d="M1924.13 1050.72H-1.5874V1281.98H1924.13V1050.72Z" fill="url(#paint1_linear_4_150)"/>
<g style="mix-blend-mode:overlay" opacity="0.3">
<path d="M500.231 1217.07C490.485 1215.37 480.534 1215.2 470.734 1216.56C468.185 1216.97 465.593 1217.04 463.025 1216.76C460.648 1216.28 458.305 1215.65 456.011 1214.86C451.514 1213.4 446.711 1213.14 442.084 1214.12C437.809 1215.52 433.35 1216.28 428.851 1216.38C424.56 1216.09 420.423 1214.73 416.209 1214.04C411.825 1213.27 407.318 1213.58 403.079 1214.94C400.907 1215.72 398.684 1216.36 396.425 1216.84C394.028 1217.16 391.6 1217.16 389.204 1216.84C379.492 1215.81 369.214 1211.7 360.015 1217.1C359.579 1217.35 359.262 1217.77 359.135 1218.26C359.007 1218.75 359.079 1219.27 359.334 1219.7C359.59 1220.14 360.008 1220.46 360.497 1220.58C360.986 1220.71 361.506 1220.64 361.942 1220.38C369.651 1215.81 379.235 1219.31 387.637 1220.38C392.07 1221.1 396.606 1220.83 400.921 1219.59C402.951 1218.97 404.929 1218.23 406.985 1217.74C409.169 1217.26 411.419 1217.14 413.64 1217.4C418.085 1217.87 422.351 1219.28 426.77 1219.97C431.021 1220.43 435.32 1220.03 439.412 1218.79C443.707 1217.35 448.299 1217.05 452.747 1217.89C457.347 1218.97 461.561 1220.85 466.366 1220.74C471.762 1220.62 477.106 1219.46 482.528 1219.38C488.135 1219.28 493.738 1219.74 499.255 1220.74C501.645 1221.21 502.672 1217.53 500.257 1217.1L500.231 1217.07Z" fill="white"/>
<path d="M186.832 1116.55C177.086 1114.85 167.134 1114.68 157.334 1116.04C154.786 1116.45 152.193 1116.52 149.626 1116.24C147.249 1115.76 144.906 1115.13 142.611 1114.34C138.121 1112.89 133.327 1112.64 128.71 1113.62C124.422 1115 119.956 1115.76 115.452 1115.86C111.161 1115.58 107.024 1114.21 102.81 1113.52C98.4247 1112.76 93.9211 1113.07 89.6801 1114.42C87.5129 1115.22 85.2883 1115.86 83.0251 1116.32C80.6291 1116.64 78.2009 1116.64 75.8049 1116.32C66.0923 1115.29 55.8144 1111.18 46.6156 1116.58C46.1795 1116.83 45.8628 1117.25 45.7351 1117.74C45.6075 1118.23 45.6793 1118.75 45.9348 1119.19C46.1904 1119.62 46.6087 1119.94 47.0978 1120.07C47.5868 1120.19 48.1066 1120.12 48.5427 1119.87C56.2512 1115.29 65.8353 1118.79 74.2375 1119.87C78.6703 1120.58 83.2061 1120.31 87.5217 1119.07C89.5516 1118.48 91.5301 1117.71 93.5857 1117.22C95.7697 1116.74 98.0192 1116.62 100.241 1116.89C104.686 1117.35 108.951 1118.76 113.371 1119.46C117.621 1119.91 121.92 1119.51 126.012 1118.27C130.307 1116.83 134.902 1116.53 139.348 1117.4C143.947 1118.48 148.161 1120.33 152.966 1120.23C158.388 1120.1 163.707 1118.97 169.128 1118.86C174.737 1118.76 180.341 1119.23 185.856 1120.25C188.245 1120.69 189.273 1117.01 186.858 1116.58L186.832 1116.55Z" fill="white"/>
<path d="M151.168 1132.02C144.366 1130.17 137.254 1129.74 130.278 1130.76C123.392 1131.76 116.249 1135.34 109.208 1133.9C105.714 1133.2 102.476 1131.87 98.9304 1131.51C95.5896 1131.17 92.2162 1131.36 88.9351 1132.07C85.4663 1132.82 82.2545 1134.44 78.7857 1135.16C75.5556 1135.72 72.2517 1135.72 69.0217 1135.16C61.673 1134.08 54.427 1131.66 46.9242 1132.3C44.5088 1132.51 44.4832 1136.31 46.9242 1136.11C53.5534 1135.52 59.9257 1137.42 66.3751 1138.55C69.4788 1139.16 72.6426 1139.42 75.8051 1139.32C79.2086 1139 82.5489 1138.2 85.7233 1136.93C89.0199 1135.74 92.4961 1135.12 96.0012 1135.1C99.4495 1135.25 102.859 1135.89 106.125 1137.01C113.14 1139.11 119.795 1137.01 126.681 1135.31C134.423 1133.45 142.51 1133.57 150.191 1135.67C150.679 1135.8 151.199 1135.74 151.637 1135.49C152.076 1135.23 152.397 1134.82 152.529 1134.33C152.662 1133.85 152.596 1133.33 152.346 1132.89C152.095 1132.45 151.681 1132.13 151.194 1131.99L151.168 1132.02Z" fill="white"/>
<path d="M168.64 1148.36C165.886 1149.69 162.936 1150.55 159.904 1150.93C157.197 1151 154.495 1150.66 151.887 1149.93C146.748 1148.75 141.404 1147.36 136.213 1149.03C133.644 1149.9 131.357 1151.37 128.736 1151.99C126.256 1152.42 123.711 1152.3 121.285 1151.63C116.146 1150.52 111.007 1148.72 105.868 1150.06C105.428 1150.23 105.067 1150.55 104.855 1150.98C104.642 1151.4 104.594 1151.88 104.719 1152.34C104.844 1152.79 105.133 1153.18 105.53 1153.44C105.928 1153.69 106.405 1153.79 106.87 1153.71C112.009 1152.4 117.148 1154.86 122.287 1155.69C124.755 1156.17 127.296 1156.17 129.764 1155.69C132.297 1154.83 134.784 1153.84 137.216 1152.73C142.354 1150.96 147.827 1153.06 153.018 1154.09C155.627 1154.7 158.313 1154.9 160.983 1154.68C163.969 1154.21 166.879 1153.34 169.642 1152.11C171.878 1151.24 170.901 1147.57 168.64 1148.44V1148.36Z" fill="white"/>
<path d="M253.253 1148.75C249.276 1146.77 244.829 1145.94 240.406 1146.33C238.204 1146.52 236.04 1147.02 233.982 1147.82C232.033 1148.9 229.926 1149.66 227.738 1150.08C223.345 1150.42 219.336 1147.33 215.251 1146.2C210.755 1144.97 205.979 1145.21 201.632 1146.9C199.371 1147.8 200.373 1151.47 202.635 1150.57C206.739 1148.92 211.303 1148.81 215.482 1150.26C219.336 1151.63 222.959 1153.94 227.173 1153.91C231.387 1153.89 234.881 1151.14 238.761 1150.37C242.995 1149.56 247.376 1150.14 251.249 1152.04C253.459 1153.09 255.386 1149.8 253.176 1148.75H253.253Z" fill="white"/>
<path d="M1395.41 1084.13C1400.32 1083.23 1405.3 1082.76 1410.29 1082.74C1415.05 1082.82 1419.8 1083.18 1424.52 1083.82C1426.8 1084.15 1429.12 1084.2 1431.41 1083.97C1433.77 1083.61 1436.09 1083.05 1438.35 1082.28C1442.71 1080.69 1447.43 1080.37 1451.97 1081.32C1456.22 1082.7 1460.65 1083.47 1465.12 1083.61C1469.36 1083.18 1473.56 1082.45 1477.69 1081.4C1481.95 1080.47 1486.38 1080.68 1490.53 1082.02C1494.72 1083.58 1499.17 1084.33 1503.64 1084.23C1513.02 1083.66 1523.81 1078.63 1532.7 1083.82C1533.13 1084.04 1533.64 1084.09 1534.11 1083.96C1534.58 1083.82 1534.98 1083.51 1535.22 1083.08C1535.47 1082.66 1535.54 1082.16 1535.42 1081.68C1535.31 1081.2 1535.01 1080.79 1534.6 1080.53C1526.69 1075.9 1517.54 1078.27 1509.08 1079.73C1504.37 1080.76 1499.49 1080.66 1494.82 1079.42C1490.64 1077.78 1486.17 1076.96 1481.67 1077.03C1477.22 1077.39 1472.96 1078.73 1468.56 1079.45C1464.26 1080.06 1459.86 1079.69 1455.72 1078.37C1451.32 1076.96 1446.65 1076.62 1442.1 1077.37C1437.19 1078.32 1432.75 1080.53 1427.66 1080.3C1424.93 1080.17 1422.24 1079.71 1419.54 1079.4C1416.84 1079.09 1413.78 1078.94 1410.91 1078.94C1405.36 1078.93 1399.83 1079.45 1394.38 1080.48C1391.99 1080.91 1393.02 1084.59 1395.41 1084.13V1084.13Z" fill="white"/>
<path d="M1455.77 1099.54C1462.58 1097.66 1469.73 1097.34 1476.68 1098.62C1483.47 1099.9 1490.15 1102.73 1497.24 1101.52C1500.81 1100.9 1504.07 1099.39 1507.72 1099.08C1511.12 1098.78 1514.54 1099.1 1517.82 1100C1521.02 1101.17 1524.29 1102.14 1527.61 1102.91C1530.81 1103.33 1534.06 1103.29 1537.25 1102.78C1544.54 1101.8 1551.69 1099.31 1559.14 1099.98C1561.71 1100.18 1561.55 1096.38 1559.14 1096.18C1552.48 1095.59 1545.98 1097.41 1539.51 1098.59C1536.29 1099.26 1533 1099.51 1529.72 1099.34C1526.27 1098.8 1522.89 1097.86 1519.65 1096.56C1513.03 1094.66 1505.99 1094.82 1499.47 1097.02C1496.02 1098.09 1492.35 1098.27 1488.81 1097.54C1485.29 1096.87 1481.85 1095.77 1478.35 1094.97C1470.56 1093.41 1462.51 1093.7 1454.84 1095.79C1454.36 1095.92 1453.94 1096.24 1453.69 1096.68C1453.44 1097.12 1453.37 1097.64 1453.51 1098.13C1453.64 1098.62 1453.96 1099.03 1454.4 1099.28C1454.84 1099.53 1455.36 1099.6 1455.85 1099.47L1455.77 1099.54Z" fill="white"/>
<path d="M412.664 1135.52C419.476 1133.63 426.627 1133.31 433.579 1134.59C440.362 1135.87 447.043 1138.7 454.135 1137.49C457.706 1136.88 460.97 1135.36 464.618 1135.05C468.013 1134.75 471.433 1135.07 474.716 1135.98C477.919 1137.14 481.188 1138.11 484.506 1138.88C487.701 1139.34 490.946 1139.34 494.142 1138.88C501.439 1137.9 508.608 1135.41 516.059 1136.08C518.475 1136.29 518.475 1132.48 516.059 1132.28C509.379 1131.69 502.904 1133.51 496.403 1134.69C493.186 1135.36 489.895 1135.61 486.613 1135.44C483.169 1134.9 479.798 1133.97 476.566 1132.66C469.944 1130.76 462.899 1130.92 456.37 1133.13C452.916 1134.19 449.248 1134.37 445.707 1133.64C442.187 1132.97 438.769 1131.87 435.249 1131.07C427.455 1129.52 419.405 1129.8 411.739 1131.89C411.251 1132.03 410.837 1132.35 410.586 1132.78C410.336 1133.22 410.27 1133.74 410.403 1134.23C410.535 1134.72 410.856 1135.13 411.295 1135.38C411.733 1135.63 412.253 1135.7 412.741 1135.57L412.664 1135.52Z" fill="white"/>
<path d="M469.552 1112.08C476.356 1110.2 483.498 1109.88 490.442 1111.16C497.225 1112.44 503.906 1115.29 510.998 1114.06C514.543 1113.44 517.832 1111.95 521.455 1111.64C524.848 1111.34 528.268 1111.64 531.553 1112.54C534.757 1113.7 538.026 1114.67 541.343 1115.45C544.538 1115.91 547.783 1115.91 550.979 1115.45C558.302 1114.45 565.445 1111.98 572.896 1112.62C575.312 1112.83 575.312 1109.02 572.896 1108.82C566.216 1108.23 559.74 1110.08 553.24 1111.26C550.021 1111.92 546.732 1112.17 543.45 1112C540.009 1111.45 536.64 1110.52 533.403 1109.23C526.784 1107.32 519.738 1107.47 513.207 1109.67C509.755 1110.75 506.084 1110.92 502.544 1110.18C499.024 1109.51 495.606 1108.41 492.086 1107.61C484.294 1106.05 476.244 1106.32 468.575 1108.41C468.088 1108.54 467.675 1108.87 467.427 1109.31C467.179 1109.75 467.116 1110.27 467.252 1110.76C467.388 1111.25 467.713 1111.66 468.154 1111.91C468.595 1112.15 469.116 1112.22 469.603 1112.08H469.552Z" fill="white"/>
<path d="M1212.93 1234.98C1219.74 1233.12 1226.89 1232.8 1233.84 1234.05C1240.63 1235.34 1247.31 1238.19 1254.4 1236.98C1257.94 1236.37 1261.23 1234.85 1264.86 1234.54C1268.25 1234.25 1271.67 1234.55 1274.95 1235.44C1278.15 1236.62 1281.42 1237.59 1284.74 1238.37C1287.95 1238.82 1291.2 1238.82 1294.41 1238.37C1301.7 1237.37 1308.85 1234.9 1316.3 1235.54C1318.87 1235.78 1318.71 1231.97 1316.3 1231.74C1309.64 1231.18 1303.14 1233 1296.64 1234.31C1293.43 1234.98 1290.15 1235.23 1286.88 1235.06C1283.43 1234.51 1280.05 1233.58 1276.8 1232.28C1270.19 1230.38 1263.15 1230.54 1256.63 1232.74C1253.18 1233.81 1249.51 1233.99 1245.97 1233.26C1242.45 1232.59 1239.01 1231.49 1235.49 1230.69C1227.7 1229.13 1219.66 1229.42 1212 1231.51C1211.56 1231.68 1211.2 1232.01 1210.99 1232.43C1210.78 1232.85 1210.73 1233.33 1210.85 1233.79C1210.98 1234.24 1211.27 1234.63 1211.66 1234.89C1212.06 1235.14 1212.54 1235.24 1213 1235.16L1212.93 1234.98Z" fill="white"/>
<path d="M1411.6 1116.01C1414.35 1117.25 1417.25 1118.11 1420.23 1118.58C1422.91 1118.82 1425.61 1118.63 1428.22 1118.02C1433.36 1116.96 1438.76 1114.88 1444 1116.66C1446.57 1117.5 1448.86 1118.99 1451.48 1119.58C1453.94 1120.09 1456.49 1120.09 1458.95 1119.58C1464.09 1118.76 1469.23 1116.3 1474.37 1117.61C1474.84 1117.68 1475.31 1117.59 1475.71 1117.33C1476.11 1117.08 1476.4 1116.69 1476.52 1116.23C1476.65 1115.78 1476.6 1115.3 1476.39 1114.87C1476.17 1114.45 1475.81 1114.13 1475.37 1113.96C1470.23 1112.62 1465.1 1114.39 1459.96 1115.52C1457.52 1116.19 1454.97 1116.32 1452.48 1115.88C1449.95 1115.03 1447.46 1114.04 1445.03 1112.93C1439.89 1111.18 1434.47 1112.65 1429.33 1113.83C1426.73 1114.55 1424.04 1114.88 1421.34 1114.83C1418.31 1114.45 1415.36 1113.58 1412.6 1112.26C1410.34 1111.36 1409.34 1115.04 1411.6 1115.94V1116.01Z" fill="white"/>
<path d="M1527.17 1193.33C1529.92 1194.57 1532.83 1195.43 1535.81 1195.9C1538.48 1196.12 1541.18 1195.93 1543.8 1195.33C1548.94 1194.28 1554.33 1192.2 1559.58 1193.97C1562.14 1194.82 1564.43 1196.28 1567.05 1196.9C1569.52 1197.39 1572.06 1197.39 1574.53 1196.9C1579.67 1196.08 1584.81 1193.61 1589.95 1194.92C1590.42 1195.01 1590.9 1194.93 1591.31 1194.68C1591.72 1194.43 1592.01 1194.03 1592.14 1193.57C1592.27 1193.11 1592.23 1192.62 1592.01 1192.19C1591.79 1191.77 1591.42 1191.44 1590.97 1191.27C1585.71 1189.94 1580.7 1191.71 1575.56 1192.84C1573.12 1193.51 1570.57 1193.63 1568.08 1193.2C1565.55 1192.34 1563.06 1191.36 1560.63 1190.24C1555.49 1188.5 1550.07 1189.96 1544.93 1191.14C1542.18 1192.03 1539.29 1192.36 1536.42 1192.11C1533.54 1191.86 1530.75 1191.03 1528.2 1189.68C1525.91 1188.78 1524.94 1192.45 1527.2 1193.35L1527.17 1193.33Z" fill="white"/>
<path d="M1695.89 1229.53C1698.65 1230.77 1701.56 1231.63 1704.54 1232.1C1707.22 1232.34 1709.92 1232.15 1712.54 1231.54C1717.67 1230.48 1723.07 1228.4 1728.31 1230.17C1730.75 1231.28 1733.25 1232.26 1735.79 1233.1C1738.25 1233.6 1740.78 1233.6 1743.24 1233.1C1748.38 1232.28 1753.52 1229.81 1758.66 1231.13C1759.12 1231.2 1759.6 1231.11 1760 1230.85C1760.4 1230.6 1760.68 1230.21 1760.81 1229.75C1760.93 1229.3 1760.89 1228.81 1760.67 1228.39C1760.46 1227.97 1760.1 1227.65 1759.66 1227.48C1754.52 1226.14 1749.38 1227.91 1744.24 1229.04C1741.82 1229.71 1739.27 1229.84 1736.79 1229.4C1734.22 1228.79 1731.86 1227.32 1729.31 1226.45C1724.18 1224.7 1718.78 1226.17 1713.64 1227.35C1710.9 1228.24 1708 1228.57 1705.13 1228.31C1702.26 1228.06 1699.46 1227.24 1696.91 1225.88C1694.63 1225.01 1693.65 1228.66 1695.89 1229.56V1229.53Z" fill="white"/>
<path d="M583.919 1180.76C586.67 1182 589.573 1182.86 592.553 1183.33C595.229 1183.57 597.927 1183.38 600.544 1182.77C605.683 1181.71 611.078 1179.63 616.346 1181.41C618.777 1182.51 621.265 1183.49 623.797 1184.34C626.265 1184.84 628.807 1184.84 631.275 1184.34C636.414 1183.51 641.552 1181.05 646.691 1182.36C647.156 1182.44 647.634 1182.34 648.031 1182.09C648.429 1181.83 648.718 1181.44 648.843 1180.99C648.967 1180.53 648.919 1180.05 648.707 1179.63C648.494 1179.2 648.133 1178.88 647.694 1178.71C642.426 1177.37 637.416 1179.14 632.277 1180.28C629.841 1180.95 627.288 1181.07 624.799 1180.64C622.266 1179.78 619.779 1178.79 617.348 1177.68C612.209 1175.93 606.813 1177.4 601.674 1178.58C598.926 1179.47 596.027 1179.8 593.149 1179.54C590.272 1179.29 587.474 1178.47 584.921 1177.11C582.66 1176.22 581.658 1179.89 583.919 1180.79V1180.76Z" fill="white"/>
<path d="M270.854 1176.86C273.605 1178.09 276.508 1178.96 279.487 1179.43C282.164 1179.66 284.862 1179.47 287.479 1178.86C292.617 1177.81 298.013 1175.73 303.255 1177.5C305.825 1178.35 308.111 1179.84 310.732 1180.43C313.199 1180.93 315.742 1180.93 318.209 1180.43C323.348 1179.61 328.487 1177.14 333.626 1178.45C334.095 1178.54 334.582 1178.46 334.989 1178.21C335.396 1177.96 335.694 1177.56 335.824 1177.1C335.954 1176.64 335.905 1176.15 335.688 1175.72C335.472 1175.3 335.102 1174.97 334.654 1174.8C329.515 1173.47 324.376 1175.24 319.237 1176.37C316.811 1177.04 314.266 1177.16 311.786 1176.73C309.216 1176.11 306.852 1174.65 304.309 1173.77C299.17 1172.03 293.774 1173.49 288.635 1174.67C285.89 1175.56 282.996 1175.89 280.123 1175.64C277.249 1175.39 274.456 1174.56 271.907 1173.21C269.621 1172.31 268.644 1175.98 270.905 1176.88L270.854 1176.86Z" fill="white"/>
<path d="M1065.05 1215.35C1067.81 1216.59 1070.73 1217.45 1073.71 1217.92C1076.39 1218.15 1079.09 1217.96 1081.7 1217.35C1086.84 1216.3 1092.24 1214.22 1097.48 1215.99C1099.91 1217.09 1102.4 1218.07 1104.93 1218.92C1107.4 1219.42 1109.94 1219.42 1112.41 1218.92C1117.55 1218.1 1122.69 1215.63 1127.83 1216.94C1128.29 1217.02 1128.77 1216.92 1129.17 1216.67C1129.56 1216.42 1129.85 1216.03 1129.98 1215.57C1130.1 1215.12 1130.05 1214.63 1129.84 1214.21C1129.63 1213.79 1129.27 1213.46 1128.83 1213.29C1123.56 1211.96 1118.55 1213.73 1113.41 1214.86C1110.98 1215.53 1108.44 1215.65 1105.96 1215.22C1103.39 1214.6 1101.03 1213.14 1098.48 1212.27C1093.34 1210.52 1087.95 1211.98 1082.81 1213.16C1080.06 1214.05 1077.17 1214.38 1074.3 1214.13C1071.42 1213.88 1068.63 1213.05 1066.08 1211.7C1063.79 1210.8 1062.82 1214.47 1065.05 1215.37V1215.35Z" fill="white"/>
<path d="M681.405 1219C684.156 1220.23 687.059 1221.1 690.039 1221.57C692.715 1221.8 695.413 1221.61 698.03 1221C703.169 1219.97 708.565 1217.87 713.806 1219.64C716.376 1220.49 718.663 1221.98 721.283 1222.57C723.751 1223.07 726.293 1223.07 728.761 1222.57C733.9 1221.75 739.039 1219.28 744.178 1220.59C744.642 1220.67 745.12 1220.57 745.517 1220.32C745.915 1220.07 746.204 1219.67 746.329 1219.22C746.454 1218.76 746.405 1218.28 746.193 1217.86C745.98 1217.44 745.619 1217.11 745.18 1216.94C739.912 1215.61 734.902 1217.38 729.763 1218.51C727.327 1219.18 724.774 1219.3 722.286 1218.87C719.752 1218.01 717.265 1217.03 714.834 1215.91C709.695 1214.17 704.274 1215.63 699.16 1216.81C696.412 1217.7 693.513 1218.03 690.635 1217.78C687.758 1217.53 684.96 1216.7 682.407 1215.35C680.146 1214.48 679.144 1218.15 681.405 1219.02V1219Z" fill="white"/>
<path d="M373.607 1111.18C376.361 1112.41 379.264 1113.27 382.241 1113.75C384.919 1113.98 387.616 1113.78 390.232 1113.16C395.371 1112.13 400.767 1110.03 406.008 1111.8C408.448 1112.91 410.944 1113.9 413.486 1114.75C415.954 1115.24 418.494 1115.24 420.963 1114.75C426.102 1113.93 431.241 1111.49 436.38 1112.8C438.744 1113.39 439.771 1109.72 437.408 1109.13C432.14 1107.79 427.13 1109.59 421.991 1110.69C419.564 1111.36 417.019 1111.49 414.539 1111.05C411.97 1110.46 409.606 1108.97 407.062 1108.12C401.923 1106.35 396.527 1107.82 391.388 1109.02C388.784 1109.73 386.094 1110.06 383.397 1110.03C380.37 1109.62 377.424 1108.76 374.661 1107.46C372.374 1106.56 371.398 1110.23 373.659 1111.1L373.607 1111.18Z" fill="white"/>
<path d="M1329.89 1115.88C1333.7 1114.06 1337.98 1113.47 1342.15 1114.19C1346.23 1114.93 1349.85 1117.73 1353.97 1117.79C1358.08 1117.84 1361.67 1115.58 1365.43 1114.24C1369.67 1112.65 1374.36 1112.72 1378.56 1114.45C1380.84 1115.34 1381.82 1111.67 1379.58 1110.77C1375.23 1109.07 1370.45 1108.82 1365.94 1110.05C1361.88 1111.21 1357.85 1114.32 1353.45 1113.96C1351.36 1113.54 1349.34 1112.82 1347.46 1111.8C1345.34 1110.94 1343.1 1110.4 1340.81 1110.21C1336.39 1109.81 1331.94 1110.65 1327.96 1112.62C1325.75 1113.67 1327.68 1116.96 1329.86 1115.88H1329.89Z" fill="white"/>
<path d="M1212.7 1074.67C1216.5 1072.82 1220.79 1072.22 1224.95 1072.95C1229.04 1073.69 1232.66 1076.49 1236.77 1076.55C1240.88 1076.6 1244.48 1074.36 1248.23 1073C1252.48 1071.45 1257.16 1071.52 1261.36 1073.21C1263.65 1074.1 1264.63 1070.43 1262.36 1069.53C1258.02 1067.84 1253.24 1067.6 1248.75 1068.84C1244.69 1069.97 1240.65 1073.08 1236.26 1072.72C1234.17 1072.3 1232.15 1071.58 1230.27 1070.56C1228.14 1069.71 1225.9 1069.17 1223.62 1068.97C1219.19 1068.57 1214.75 1069.41 1210.77 1071.38C1208.58 1072.43 1210.51 1075.72 1212.7 1074.67V1074.67Z" fill="white"/>
<path d="M1393.02 1234.98C1396.82 1233.13 1401.1 1232.54 1405.25 1233.28C1409.34 1234.03 1412.96 1236.83 1417.1 1236.86C1421.23 1236.88 1424.81 1234.67 1428.56 1233.31C1432.81 1231.75 1437.49 1231.83 1441.69 1233.54C1443.97 1234.41 1444.95 1230.74 1442.69 1229.87C1438.35 1228.16 1433.57 1227.9 1429.07 1229.15C1425.01 1230.3 1420.95 1233.41 1416.58 1233.05C1414.49 1232.63 1412.48 1231.9 1410.6 1230.89C1408.46 1230.03 1406.21 1229.49 1403.92 1229.28C1399.49 1228.89 1395.05 1229.73 1391.07 1231.69C1388.88 1232.77 1390.79 1236.03 1393 1234.98H1393.02Z" fill="white"/>
<path d="M1685.15 1161.88C1690.05 1160.96 1695.03 1160.49 1700.02 1160.46C1704.78 1160.54 1709.54 1160.9 1714.26 1161.54C1716.54 1161.88 1718.85 1161.93 1721.14 1161.7C1723.52 1161.36 1725.85 1160.8 1728.11 1160C1732.47 1158.43 1737.19 1158.1 1741.73 1159.05C1745.98 1160.43 1750.41 1161.2 1754.88 1161.34C1759.11 1160.92 1763.3 1160.18 1767.42 1159.13C1771.68 1158.21 1776.11 1158.42 1780.27 1159.75C1784.46 1161.31 1788.9 1162.06 1793.37 1161.95C1802.78 1161.39 1813.54 1156.35 1822.43 1161.54C1822.87 1161.8 1823.39 1161.87 1823.88 1161.74C1824.37 1161.62 1824.79 1161.3 1825.04 1160.86C1825.3 1160.43 1825.37 1159.91 1825.24 1159.42C1825.11 1158.93 1824.8 1158.51 1824.36 1158.25C1816.42 1153.63 1807.3 1155.99 1798.84 1157.46C1794.14 1158.5 1789.24 1158.4 1784.58 1157.15C1780.39 1155.5 1775.91 1154.69 1771.4 1154.76C1766.96 1155.12 1762.69 1156.46 1758.32 1157.18C1754.01 1157.78 1749.62 1157.41 1745.48 1156.1C1741.08 1154.69 1736.41 1154.35 1731.86 1155.09C1726.95 1156.05 1722.53 1158.25 1717.42 1158.02C1714.69 1158.02 1712.02 1157.43 1709.32 1157.15C1706.63 1156.87 1703.57 1156.69 1700.67 1156.66C1695.13 1156.67 1689.61 1157.19 1684.17 1158.2C1681.75 1158.64 1682.78 1162.31 1685.17 1161.88H1685.15Z" fill="white"/>
<path d="M1660.63 1138.62C1667.45 1136.74 1674.6 1136.42 1681.55 1137.7C1688.33 1138.98 1695.01 1141.81 1702.1 1140.6C1705.68 1139.99 1708.94 1138.47 1712.59 1138.03C1715.98 1137.74 1719.4 1138.05 1722.69 1138.96C1725.89 1140.12 1729.16 1141.09 1732.48 1141.86C1735.67 1142.32 1738.92 1142.32 1742.11 1141.86C1749.41 1140.89 1756.55 1138.39 1764 1139.06C1766.57 1139.27 1766.42 1135.46 1764 1135.26C1757.35 1134.67 1750.85 1136.49 1744.37 1137.67C1741.15 1138.34 1737.86 1138.59 1734.58 1138.42C1731.13 1137.88 1727.75 1136.95 1724.51 1135.64C1717.9 1133.74 1710.86 1133.9 1704.34 1136.11C1700.89 1137.17 1697.22 1137.35 1693.68 1136.62C1690.16 1135.95 1686.71 1134.85 1683.22 1134.05C1675.42 1132.5 1667.37 1132.78 1659.71 1134.87C1659.22 1135.01 1658.81 1135.33 1658.56 1135.77C1658.31 1136.2 1658.24 1136.72 1658.37 1137.21C1658.5 1137.7 1658.83 1138.11 1659.26 1138.36C1659.7 1138.61 1660.22 1138.68 1660.71 1138.55L1660.63 1138.62Z" fill="white"/>
<path d="M1840.73 1138.6C1844.53 1136.76 1848.82 1136.17 1852.98 1136.9C1857.07 1137.65 1860.69 1140.45 1864.8 1140.5C1868.91 1140.55 1872.51 1138.29 1876.26 1136.95C1880.51 1135.37 1885.2 1135.44 1889.39 1137.16C1891.68 1138.03 1892.66 1134.38 1890.4 1133.49C1886.05 1131.79 1881.28 1131.53 1876.78 1132.77C1872.72 1133.92 1868.66 1137.03 1864.29 1136.67C1862.2 1136.26 1860.18 1135.53 1858.3 1134.51C1856.18 1133.65 1853.93 1133.11 1851.65 1132.92C1847.22 1132.53 1842.78 1133.36 1838.8 1135.34C1836.62 1136.39 1838.54 1139.68 1840.73 1138.6V1138.6Z" fill="white"/>
<path d="M566.652 1091.29C570.45 1089.46 574.729 1088.86 578.883 1089.6C582.969 1090.34 586.592 1093.14 590.728 1093.2C594.865 1093.25 598.437 1090.99 602.188 1089.65C606.434 1088.06 611.124 1088.13 615.318 1089.86C617.579 1090.73 618.581 1087.05 616.32 1086.18C611.976 1084.48 607.201 1084.23 602.702 1085.46C598.642 1086.62 594.583 1089.73 590.214 1089.37C588.121 1088.95 586.103 1088.23 584.228 1087.21C582.094 1086.34 579.841 1085.81 577.547 1085.62C573.124 1085.22 568.677 1086.06 564.7 1088.03C562.515 1089.08 564.417 1092.37 566.627 1091.29H566.652Z" fill="white"/>
</g>
<path style="mix-blend-mode:overlay" opacity="0.2" d="M1098.61 1243.43C1119.35 1243.43 1145.79 1235.93 1169.09 1229.3C1186.69 1224.16 1203.34 1219.56 1212.49 1219.51H1216.6C1229.73 1219.51 1243.04 1219.87 1256.15 1220.59L1259.41 1220.77C1266.32 1221.16 1273.46 1221.54 1280.68 1221.54C1294.05 1221.54 1311.52 1220.38 1328.01 1211.26C1330.76 1209.77 1333.33 1208.1 1335.72 1206.51C1338.43 1204.67 1341.27 1203.01 1344.2 1201.55C1349.12 1199.66 1354.24 1198.33 1359.46 1197.59L1381.77 1193.56C1384.52 1193.25 1387.47 1192.87 1390.43 1192.33C1393.38 1191.79 1396.77 1190.99 1399.21 1190.37L1437.01 1183.49C1451.14 1180.92 1465.28 1176.88 1474.65 1165.27C1477.94 1163.65 1480.76 1161.23 1482.87 1158.23C1484.97 1155.23 1486.28 1151.75 1486.68 1148.11C1487.19 1142.26 1485.6 1136.43 1482.18 1131.66C1472.78 1117.45 1457.7 1112.39 1442.79 1109.02C1429.95 1106.07 1416.22 1103.47 1399.63 1100.85C1391.42 1098.03 1382.91 1096.21 1374.26 1095.43C1372.49 1095.43 1370.69 1095.25 1368.77 1095.25C1367.43 1095.25 1366.2 1095.25 1364.73 1095.25C1363.81 1095.25 1362.73 1095.25 1361.62 1095.25L1353.68 1094.4L1306.15 1088.11C1286.73 1082.55 1266.28 1081.67 1246.46 1085.54H1245.84C1240.09 1085.31 1233.92 1084.84 1227.03 1084.2C1224.16 1083.59 1221.25 1082.87 1218.35 1082.12C1209.5 1079.55 1200.39 1078.01 1191.19 1077.55C1187.16 1077.55 1183.1 1077.42 1179.06 1077.42C1174.23 1077.42 1169.97 1077.42 1166.03 1077.7C1155.76 1076.85 1146.71 1076.44 1138.28 1076.44C1124.78 1076.34 1111.3 1077.6 1098.05 1080.19C1084.8 1077.59 1071.33 1076.34 1057.83 1076.44C1049.41 1076.44 1040.31 1076.85 1030.08 1077.7C1026.15 1077.52 1021.89 1077.42 1017.06 1077.42C1013 1077.42 1008.94 1077.42 1004.9 1077.55C995.711 1078.01 986.605 1079.55 977.769 1082.12C974.865 1082.87 971.962 1083.59 969.084 1084.2C962.198 1084.87 956.005 1085.31 950.249 1085.54H949.864C929.978 1081.63 909.447 1082.51 889.97 1088.11L841.381 1094.4L834.597 1095.3C832.028 1095.17 829.921 1095.1 827.814 1095.1C825.707 1095.1 823.857 1095.1 821.981 1095.28C813.332 1096.06 804.808 1097.88 796.595 1100.7C779.97 1103.27 766.224 1105.84 753.376 1108.87C738.525 1112.24 723.442 1117.3 714.012 1131.53C710.609 1136.31 709.023 1142.14 709.541 1147.98C709.945 1151.61 711.259 1155.09 713.36 1158.09C715.462 1161.08 718.284 1163.5 721.566 1165.12C730.868 1176.73 745.077 1180.76 759.209 1183.33L797.006 1190.22C799.447 1190.84 802.582 1191.61 805.871 1192.2C808.748 1192.71 811.678 1193.1 814.427 1193.41L836.756 1197.44C842.03 1198.17 847.203 1199.51 852.173 1201.42C855.088 1202.88 857.903 1204.53 860.6 1206.36C863.17 1207.95 865.739 1209.62 868.463 1211.13C884.908 1220.21 902.38 1221.41 915.741 1221.41C922.936 1221.41 930.105 1221.03 937.017 1220.64L940.254 1220.46C953.616 1219.74 967.182 1219.38 980.595 1219.38H984.809C993.982 1219.38 1010.66 1224.16 1028.31 1229.2C1051.49 1235.88 1077.9 1243.43 1098.61 1243.43V1243.43Z" fill="url(#paint2_linear_4_150)"/>
<path d="M719.279 1138.7C719.69 1142.25 723.21 1144.25 726.705 1145.51C733.437 1155.15 746.798 1158.18 758.695 1160.16L797.237 1166.58C800.038 1167.25 802.839 1167.86 805.691 1168.33C808.543 1168.79 811.189 1169.1 813.964 1169.38L836.858 1173.18C843.08 1173.98 849.192 1175.48 855.076 1177.65C861.114 1180.22 866.485 1184.08 872.343 1187.01C892.334 1197.11 916.024 1195.33 938.327 1194.23C953.487 1193.48 968.724 1193.15 983.935 1193.23C1007.99 1193.35 1063.59 1215.32 1098.64 1215.32C1133.68 1215.32 1189.24 1193.41 1213.31 1193.23C1228.25 1193.23 1243.16 1193.56 1258.05 1194.23C1280.4 1195.33 1304.04 1197.11 1324.03 1187.01C1329.89 1184.08 1335.26 1180.17 1341.3 1177.65C1347.18 1175.48 1353.29 1173.98 1359.52 1173.18L1382.38 1169.38C1385.16 1169.1 1387.93 1168.79 1390.68 1168.33C1393.43 1167.86 1396.34 1167.25 1399.14 1166.58L1437.68 1160.16C1449.58 1158.18 1462.94 1155.15 1469.67 1145.51C1473.16 1144.25 1476.68 1142.25 1477.1 1138.7C1477.16 1136.46 1476.39 1134.27 1474.94 1132.56C1467.79 1122.69 1454.92 1119.15 1443.02 1116.68C1428.56 1113.65 1413.99 1111.26 1399.34 1109.15C1391.69 1106.68 1383.77 1105.09 1375.75 1104.4C1372.98 1104.26 1370.2 1104.26 1367.43 1104.4C1366.06 1104.4 1364.7 1104.45 1363.34 1104.55L1354.3 1103.45L1305.48 1097.54C1287.38 1092.68 1268.43 1091.88 1249.98 1095.2C1249.21 1095.35 1248.41 1095.43 1247.64 1095.53C1240.52 1095.28 1233.46 1094.79 1226.34 1094.17C1214.88 1091.94 1203.21 1088.29 1191.86 1088.13C1183.38 1088.13 1174.9 1087.9 1166.47 1088.29C1143.55 1086.52 1120.81 1086.28 1098.3 1090.86H1097.99C1075.51 1086.36 1052.77 1086.59 1029.85 1088.29C1021.42 1087.9 1012.94 1088.01 1004.47 1088.13C992.98 1088.29 981.34 1091.94 969.983 1094.17C962.866 1094.79 955.774 1095.28 948.682 1095.53C947.911 1095.53 947.115 1095.35 946.344 1095.2C927.897 1091.88 908.946 1092.68 890.843 1097.54L842.023 1103.45L840.97 1103.58L832.979 1104.55C820.794 1103.63 808.549 1105.22 797.006 1109.23C782.36 1111.34 767.791 1113.73 753.325 1116.76C741.402 1119.33 728.555 1122.77 721.412 1132.64C719.982 1134.33 719.224 1136.49 719.279 1138.7V1138.7Z" fill="#677A62"/>
<path style="mix-blend-mode:overlay" opacity="0.2" d="M835.291 1117.79C835.291 1146.05 911.553 1171.74 1103.03 1172.03H1104.7C1296.2 1171.87 1372.47 1146.1 1372.47 1117.79C1372.31 1112.85 1370.5 1108.11 1367.33 1104.32C1365.96 1104.32 1364.59 1104.37 1363.24 1104.48L1354.2 1103.37L1305.38 1097.46C1287.27 1092.61 1268.32 1091.81 1249.88 1095.12C1249.11 1095.28 1248.31 1095.35 1247.54 1095.46C1240.42 1095.2 1233.35 1094.71 1226.24 1094.1C1214.78 1091.86 1203.11 1088.21 1191.75 1088.06C1183.28 1088.06 1174.8 1087.83 1166.37 1088.21C1143.45 1086.44 1120.71 1086.21 1098.2 1090.78H1097.89C1075.41 1086.28 1052.67 1086.52 1029.75 1088.21C1021.32 1087.83 1012.84 1087.93 1004.36 1088.06C992.877 1088.21 981.238 1091.86 969.88 1094.1C962.763 1094.71 955.671 1095.2 948.579 1095.46C947.809 1095.46 947.012 1095.28 946.241 1095.12C927.794 1091.81 908.843 1092.61 890.741 1097.46L841.92 1103.37L840.867 1103.5C837.408 1107.47 835.437 1112.52 835.291 1117.79V1117.79Z" fill="url(#paint3_linear_4_150)"/>
<path style="mix-blend-mode:overlay" opacity="0.2" d="M438.949 1120.48C451.103 1120.48 466.597 1116.06 480.267 1112.18C490.544 1109.26 500.36 1106.48 505.73 1106.43H508.145C515.854 1106.43 523.562 1106.63 531.271 1107.07H533.198C537.232 1107.3 541.446 1107.53 545.66 1107.53C555.271 1107.92 564.822 1105.85 573.41 1101.52C575.029 1100.62 576.545 1099.67 577.984 1098.72C579.577 1097.64 581.242 1096.67 582.968 1095.82C585.857 1094.7 588.866 1093.92 591.936 1093.5L605.015 1091.11C606.608 1090.93 608.355 1090.73 610.154 1090.4C611.952 1090.06 613.879 1089.62 615.293 1089.24L637.441 1085.2C645.741 1083.71 654.066 1081.35 659.513 1074.54C661.44 1073.59 663.096 1072.17 664.33 1070.41C665.565 1068.65 666.338 1066.6 666.579 1064.47C666.898 1061.05 665.987 1057.62 664.01 1054.81C658.511 1046.51 649.646 1043.53 640.884 1041.55C633.382 1039.83 625.313 1038.31 615.575 1036.77C610.771 1035.11 605.784 1034.04 600.724 1033.58C599.67 1033.58 598.617 1033.58 597.486 1033.58H595.122H593.298L588.647 1032.97L560.768 1029.29C554.084 1027.38 547.165 1026.41 540.212 1026.42C535.365 1026.41 530.53 1026.88 525.772 1027.8H525.412C522.046 1027.65 518.423 1027.39 514.389 1027.01C512.693 1026.65 510.997 1026.21 509.25 1025.8C504.062 1024.29 498.716 1023.38 493.319 1023.1H486.202C483.376 1023.1 480.883 1023.1 478.494 1023.25C472.507 1022.74 467.162 1022.51 462.203 1022.51C454.294 1022.44 446.4 1023.19 438.641 1024.72C430.873 1023.19 422.97 1022.45 415.053 1022.51C410.094 1022.51 404.775 1022.74 398.763 1023.25C396.45 1023.25 393.958 1023.1 391.054 1023.1H383.911C378.527 1023.33 373.188 1024.19 368.006 1025.67C366.31 1026.08 364.614 1026.52 362.867 1026.88C358.833 1027.26 355.159 1027.52 351.844 1027.67H351.613C346.822 1026.73 341.952 1026.26 337.07 1026.26C330.117 1026.25 323.197 1027.22 316.514 1029.14L287.941 1032.92L283.984 1033.43C282.52 1033.43 281.235 1033.43 280.001 1033.43C278.768 1033.43 277.663 1033.43 276.558 1033.43C271.489 1033.89 266.494 1034.96 261.681 1036.62C251.943 1038.16 243.875 1039.67 236.346 1041.4C227.636 1043.37 218.771 1046.35 213.221 1054.68C211.251 1057.49 210.341 1060.9 210.651 1064.31C210.892 1066.45 211.666 1068.49 212.9 1070.25C214.135 1072.01 215.791 1073.43 217.717 1074.39C223.165 1081.2 231.515 1083.56 239.789 1085.05L261.938 1089.08C263.377 1089.47 265.227 1089.91 267.077 1090.27C268.927 1090.63 270.494 1090.78 272.087 1090.96L285.192 1093.35C288.264 1093.77 291.275 1094.55 294.159 1095.69C295.882 1096.52 297.54 1097.48 299.118 1098.57C300.557 1099.52 302.073 1100.47 303.718 1101.37C312.294 1105.71 321.839 1107.78 331.442 1107.38C335.656 1107.38 339.87 1107.15 343.904 1106.92H345.831C353.54 1106.48 361.608 1106.27 369.471 1106.27H372.04C377.436 1106.27 387.2 1109.1 397.555 1112.03C411.225 1116.09 426.693 1120.48 438.949 1120.48V1120.48Z" fill="url(#paint4_linear_4_150)"/>
<path d="M216.407 1059.1C216.638 1061.18 218.694 1062.34 220.749 1063.08C224.706 1068.73 232.543 1070.51 239.507 1071.66L262.092 1075.44C263.737 1075.83 265.381 1076.19 267.051 1076.47C268.722 1076.75 270.289 1076.91 271.908 1077.09L285.32 1079.32C288.971 1079.76 292.559 1080.62 296.009 1081.89C299.555 1083.35 302.716 1085.64 306.133 1087.36C317.876 1093.27 331.828 1092.24 344.829 1091.6C353.737 1091.16 362.653 1090.96 371.578 1091.01C385.684 1091.01 418.317 1103.86 438.847 1103.86C459.377 1103.86 491.983 1091.01 506.09 1091.01C514.86 1091.01 523.605 1091.21 532.324 1091.6C545.429 1092.24 559.304 1093.27 571.021 1087.36C574.464 1085.64 577.598 1083.35 581.144 1081.89C584.596 1080.62 588.183 1079.76 591.833 1079.32L605.246 1077.09C606.865 1076.91 608.509 1076.73 610.102 1076.47C611.695 1076.21 613.417 1075.83 615.061 1075.44L637.647 1071.66C644.61 1070.51 652.473 1068.73 656.404 1063.08C658.46 1062.34 660.515 1061.18 660.772 1059.1C660.799 1057.78 660.342 1056.49 659.488 1055.48C655.299 1049.69 647.771 1047.61 640.782 1046.17C632.303 1044.4 623.746 1042.99 615.087 1041.75C610.602 1040.3 605.963 1039.37 601.263 1038.98C599.619 1038.98 598 1038.98 596.381 1038.98H593.992L588.673 1038.34L560.1 1034.87C549.489 1032.03 538.382 1031.57 527.571 1033.51C527.108 1033.51 526.646 1033.64 526.183 1033.71C522.021 1033.56 517.858 1033.28 513.695 1032.92C506.989 1031.61 500.206 1029.45 493.474 1029.37C488.515 1029.37 483.53 1029.22 478.571 1029.37C465.248 1028.03 451.804 1028.52 438.615 1030.83H438.436C425.247 1028.52 411.803 1028.03 398.48 1029.37C393.521 1029.14 388.562 1029.22 383.577 1029.37C376.845 1029.37 370.087 1031.61 363.355 1032.92C359.193 1033.28 355.03 1033.56 350.868 1033.71C350.405 1033.71 349.943 1033.71 349.506 1033.51C338.686 1031.57 327.571 1032.03 316.951 1034.87V1034.87L288.378 1038.34H287.761L283.085 1038.9C280.663 1038.76 278.235 1038.76 275.813 1038.9C271.105 1039.29 266.457 1040.22 261.964 1041.68C253.382 1042.91 244.825 1044.25 236.269 1046.1C229.28 1047.54 221.752 1049.62 217.563 1055.4C216.724 1056.44 216.311 1057.76 216.407 1059.1V1059.1Z" fill="#677A62"/>
<path style="mix-blend-mode:overlay" opacity="0.2" d="M284.421 1046.82C284.421 1063.42 329.156 1078.55 441.442 1078.63H442.418C554.704 1078.63 599.439 1063.42 599.439 1046.82C599.351 1043.93 598.302 1041.15 596.458 1038.93H594.069L588.75 1038.29L560.177 1034.82C549.566 1031.98 538.459 1031.51 527.648 1033.46C527.185 1033.46 526.723 1033.58 526.26 1033.66C522.098 1033.51 517.935 1033.22 513.773 1032.86C507.066 1031.55 500.283 1029.4 493.551 1029.32C488.592 1029.32 483.607 1029.16 478.648 1029.32C465.325 1027.98 451.881 1028.47 438.693 1030.78H438.513C425.324 1028.47 411.88 1027.98 398.557 1029.32C393.598 1029.09 388.639 1029.16 383.654 1029.32C376.922 1029.32 370.165 1031.55 363.433 1032.86C359.27 1033.22 355.107 1033.51 350.945 1033.66C350.482 1033.66 350.02 1033.66 349.583 1033.46C338.763 1031.51 327.648 1031.98 317.028 1034.82V1034.82L288.455 1038.29H287.839C285.727 1040.64 284.516 1043.66 284.421 1046.82V1046.82Z" fill="url(#paint5_linear_4_150)"/>
</g>
<defs>
<linearGradient id="paint0_linear_4_150" x1="1412" y1="312.65" x2="1412" y2="1103.65" gradientUnits="userSpaceOnUse">
<stop stop-color="#F39B31"/>
<stop offset="1" stop-color="#EE9734" stop-opacity="0"/>
</linearGradient>
<linearGradient id="paint1_linear_4_150" x1="1098.05" y1="1080.19" x2="1098.05" y2="1271.2" gradientUnits="userSpaceOnUse">
<stop stop-color="#6B77CF"/>
<stop offset="1" stop-color="white"/>
</linearGradient>
<linearGradient id="paint2_linear_4_150" x1="1202.01" y1="939.978" x2="1008.47" y2="1323.09" gradientUnits="userSpaceOnUse">
<stop stop-color="#272525" stop-opacity="0"/>
<stop offset="0.7" stop-color="#272525"/>
</linearGradient>
<linearGradient id="paint3_linear_4_150" x1="1272.49" y1="842.055" x2="951.252" y2="1366.56" gradientUnits="userSpaceOnUse">
<stop stop-color="#272525" stop-opacity="0"/>
<stop offset="0.7" stop-color="#272525"/>
</linearGradient>
<linearGradient id="paint4_linear_4_150" x1="499.486" y1="942.547" x2="385.993" y2="1167.22" gradientUnits="userSpaceOnUse">
<stop stop-color="#272525" stop-opacity="0"/>
<stop offset="0.7" stop-color="#272525"/>
</linearGradient>
<linearGradient id="paint5_linear_4_150" x1="540.804" y1="885.145" x2="352.436" y2="1192.71" gradientUnits="userSpaceOnUse">
<stop stop-color="#272525" stop-opacity="0"/>
<stop offset="0.7" stop-color="#272525"/>
</linearGradient>
<clipPath id="clip0_4_150">
<rect width="1920" height="1230" fill="white"/>
</clipPath>
</defs>
</svg>
